<?xml version="1.0" encoding="utf-8"?>
<!-- Generator: Adobe Illustrator 25.0.1, SVG Export Plug-In . SVG Version: 6.00 Build 0)  -->
<svg version="1.1" id="Layer_1" xmlns="http://www.w3.org/2000/svg" xmlns:xlink="http://www.w3.org/1999/xlink" x="0px" y="0px"
	 viewBox="0 0 1024 768" style="enable-background:new 0 0 1024 768;" xml:space="preserve">
<style type="text/css">
	.st0{fill:#E0E0E0;}
	.st1{fill:#FFBE9D;}
	.st2{fill:#EB996E;stroke:#1D1D1B;stroke-miterlimit:10;}
	.st3{fill:#FF9ABB;}
	.st4{fill:#F99026;}
	.st5{fill:#37474F;}
	.st6{fill:#1D1D1B;}
	.st7{fill:#F9DCEA;}
	.st8{fill:#FF725E;}
	.st9{fill:#263238;}
	.st10{opacity:0.3;}
	.st11{opacity:0.2;}
	.st12{opacity:0.6;}
	.st13{fill:#FFFFFF;}
	.st14{fill:#455A64;}
	.st15{fill:#FAFAFA;}
	.st16{fill:#EB996E;}
	.st17{fill:none;stroke:#000000;stroke-width:4;stroke-miterlimit:10;}
</style>
<g>
	<path class="st0" d="M21.5,622.5c12.6,24.4,33.6,43.4,59.1,53.6c25.3,10,79.8,1.3,79.8,1.3L440.6,645
		c-3.7-12.5-15.2-44.4-22.8-54.9c-7.6-10.5-154.9,4.6-167.6,1.9c-15.6-3.4-31.5,2.1-47.3,4.1c-27.8,3.5-55.7-3.8-83-9.9
		s-56.3-10.9-83.1-2.6c-7.6,2.4-15.5,6.3-18.8,13.5C14.4,605.1,17.5,614.6,21.5,622.5z"/>
	<path class="st0" d="M815,686.5c-17.5-39.8-48.8-71.9-88.2-90.6c-39-18.3-126-9.9-126-9.9l-228.7-0.5c4.7,20.1,19.7,71.7,30.7,89
		c11,17.3,27.6,32,47.4,37.6c24.3,6.9,50-0.2,75.2-1.9c44.3-2.9,87.7,11.5,130.3,23.8s88,22.8,131.1,12.3c12.3-3,25.1-8.4,31-19.5
		C824.6,714.7,820.5,699.4,815,686.5z"/>
	<g>
		<g>
			<path class="st1" d="M401.6,364.4c-84.4,99.4-198.8,236.6-184.8,269.1c23.1,53.3,138.6-95.9,144.9-109
				c3.6-7.5,43.2-76.1,95.1-168C511,260.4,428.7,332.5,401.6,364.4z"/>
			<g>
				<g>
					<path d="M416.2,349.4c7-6.9,14.2-13.6,21.7-19.9c3.8-3.2,7.6-6.3,11.5-9.2c3.9-2.9,8-5.7,12.3-8c2.1-1.1,4.4-2.2,6.6-2.8
						c1.1-0.3,2.3-0.4,3.3-0.2c1,0.2,1.8,0.8,2.1,1.8c0.4,1,0.4,2.1,0.4,3.3c0,0.6-0.1,1.2-0.2,1.8c-0.1,0.6-0.2,1.2-0.3,1.8
						c-0.5,2.3-1.3,4.7-2.1,6.9c-3.5,9.1-8.1,17.9-12.8,26.5c-19.6,34.3-39.1,68.6-58.8,103c-9.8,17.2-19.6,34.4-29.4,51.6
						c-2.4,4.3-4.9,8.6-7.3,13l-1.8,3.3l-0.9,1.7l-0.4,0.7l-0.4,0.8c-1.2,2-2.7,4.1-4.1,6.1c-5.7,8-11.8,15.8-18,23.5
						c-12.4,15.4-25.5,30.2-39.3,44.4c-6.9,7-14,13.9-21.5,20.3c-7.5,6.4-15.3,12.5-23.7,17.4c-3.1,1.8-6.4,3.4-9.7,4.7
						c-3.3,1.2-6.8,2.2-10.3,2.2l-1.3,0c-0.4,0-0.9-0.1-1.3-0.1c-0.9-0.1-1.7-0.3-2.5-0.5c-1.6-0.5-3.2-1.2-4.5-2.3
						c-2.7-2-4.7-5.2-5.9-8.4c-0.3-0.8-0.5-1.6-0.7-2.5c-0.1-0.9-0.2-1.7-0.2-2.6c-0.1-1.8,0.2-3.5,0.4-5.3c0.6-3.5,1.6-7,2.8-10.5
						c2.5-6.9,5.6-13.5,9-20c6.9-13,14.8-25.4,23-37.6c8.2-12.2,16.8-24.1,25.5-35.8c17.8-24,36.4-47.5,55.3-70.8
						c14.6-18,29.4-35.9,44.3-53.7l23.1-27.6l1.4-1.7l-17.4,20.4c-15,17.6-29.9,35.3-44.6,53.1c-20.2,24.4-40.1,49.1-59.3,74.3
						c-10.5,13.8-20.7,27.8-30.5,42.2c-4.9,7.2-9.6,14.5-14.2,21.9c-4.5,7.4-8.8,15-12.6,22.9c-2.2,4.5-4.2,9.1-5.8,13.9
						c-0.8,2.4-1.5,4.8-2,7.3c-0.5,2.5-0.8,5.1-0.7,7.7c0,0.7,0.1,1.3,0.2,2c0.1,0.7,0.3,1.3,0.4,2c0.2,0.6,0.4,1.3,0.6,1.9l0.8,1.8
						c1.2,2.3,2.7,4.5,4.7,6.3c2,1.8,4.5,3,7.1,3.6c2.6,0.6,5.3,0.6,7.8,0.3c2.6-0.3,5.1-1.1,7.5-1.9c2.4-0.9,4.7-1.9,7-3
						c4.5-2.3,8.8-5,12.9-7.9c8.2-5.8,15.9-12.3,23.3-19.1c14.7-13.6,28.3-28.3,41.3-43.5c6.5-7.6,12.8-15.3,19-23.2
						c3.1-4,6.1-7.9,9-12c1.5-2,2.9-4.1,4.3-6.2c0.7-1.1,1.4-2.1,2-3.3l0.9-1.7c0.3-0.5,0.5-1.1,0.9-1.6c4.8-8.7,9.7-17.4,14.6-26.1
						l14.8-26c9.8-17.4,19.7-34.7,29.5-52.1c9.8-17.4,19.6-34.8,29.4-52.1c4.9-8.7,9.8-17.4,14.2-26.4c2.2-4.5,4.3-9.1,6.1-13.8
						c0.9-2.4,1.7-4.8,2.3-7.3c0.3-1.3,0.5-2.5,0.6-3.8c0.1-1.3,0.1-2.7-0.3-4.1c-0.1-0.2-0.1-0.4-0.2-0.6c-0.1-0.2-0.2-0.5-0.4-0.7
						c-0.3-0.5-0.8-1.1-1.5-1.5c-1.4-0.9-3.3-0.8-5.1-0.5c-3.7,0.8-7.6,3-11.8,5.7c-8.4,5.4-17.8,13.3-26.4,21.1
						c-8.6,7.9-16.4,15.8-21.6,21.6c-5.2,5.8-7.9,9.4-6.6,8.2c0.7-0.7,3.4-3.7,6.4-6.8C411.3,354.2,414.6,350.9,416.2,349.4z"/>
				</g>
			</g>
		</g>
		<g>
			<path class="st1" d="M253.2,568c-39-1.3-87.6-4.3-125.9,8.6c-4.3,1.4-7.8,3.6-9.7,6.4c-17.4,5.6-18.2,12.5-18.2,12.5
				c-13.5,8.4-12.8,15.6-12.8,15.6s-20.3,6.7-15.5,15.2c5.3,9.6,32.7-1.7,54.1-2c49-0.6,119.3,7.2,133.5,8L253.2,568z"/>
			<path class="st2" d="M174.7,601.1c-14.4,0.4-28.6,0.5-42.8,2.1c-15.6,1.7-30.1,5.1-44.9,8.2c-0.2,0.1-0.4,0-0.5-0.1
				c-0.1-0.1,0-0.3,0.2-0.3l0,0c25.3-8.4,59.1-12,87.9-10.3C175.4,600.7,175.5,601,174.7,601.1z"/>
			<path class="st2" d="M177.6,582.3c-14,0.8-38.5,2.4-78,13.6c-0.1,0-0.3-0.1-0.1-0.1c24-9.5,49.6-13.7,78.1-13.8
				C178.4,581.9,178.5,582.2,177.6,582.3z"/>
			<path class="st2" d="M178.8,572.1c-23.6,2-38.1,5.2-61.2,10.9c-0.1,0-0.3-0.1-0.1-0.1c25.1-8.3,35.8-9.5,61.2-11.3
				C179.6,571.6,179.7,572.2,178.8,572.1z"/>
			<path class="st1" d="M184.4,626.2c6.5,1.5,5.4,3.7-6.2,6c-11.6,2.3-60.6,5.4-56.9,16.1c3.6,10.8,72.7,5.9,91.4,1s46-16.8,46-16.8
				C244.9,631.7,211.5,627.9,184.4,626.2z"/>
			<g>
				<g>
					<g>
						<path d="M222,645.1c-5.7,1.4-11.3,3-16.9,4.4c-5.6,1.4-11.3,2.3-17.1,3c-4.3,0.5-8.6,1.2-13,1.3c-2.2,0.2-4.4,0.3-6.6,0.5
							l-5.1,0.3l-2.7,0.2l-0.2,0l2,0.1l5.1,0.1c2.3,0,4.7,0.1,7.1,0.1c2.6,0,5.2,0,7.7,0c5.9-0.1,11.9-0.5,17.8-1.6
							c5.9-1.2,11.6-3.2,17.1-5.3c0.7-0.3,7.1-2.6,6.3-3.3C223.3,644.7,222.3,645,222,645.1z"/>
					</g>
				</g>
			</g>
		</g>
	</g>
	<g>
		<g>
			<path class="st1" d="M624.7,305.9c18.4,50.6,65.8,148.2,105.2,156.6c37.9,8,84.7-131.3,94.1-159.7c3.8-11.6-79.3-60-84.9-48.2
				c-12.4,26.1-27.2,90.2-28.8,90.7c-1.6,0.5-28.5-31.8-56.3-62.5C613.6,238.2,611.4,269.7,624.7,305.9z"/>
			<path class="st1" d="M756.1,160.6C767.6,160.1,768,172,768,172c3.7-3.5,8.3-5.7,13.4-6c8.9-0.3,13.2,13.6,13.2,13.6
				c4.5-2.9,9.9-4.3,15.3-4.1c8.6,0.7,15,14,15,14c5.6-0.4,11.1,1.4,15.7,4.8c11.5,9.5,8.7,32.4,6.7,46.8
				c-2.8,21.5-20.4,54-23.3,61.8l-93.2-10.6c0,0-9.4-67-6-84.1C728.4,190.8,744.7,161.2,756.1,160.6z"/>
			<path d="M710,345c0,6,0.6,11.9,1.8,17.8c1.1,5.7,2.3,11.2,3.9,16.8c0.1,0.1,0.3,0,0.3-0.2c-1.1-5.7-1.8-11.6-2.7-17.4
				s-1.3-11.9-2.4-17.4C710.8,344.2,710,344.6,710,345z"/>
			<path d="M760,445.1c7.2-10.9,13.8-22.3,19.5-34.1l4.4-8.8l4.1-8.9c1.4-3,2.7-5.9,4-9c1.4-3,2.7-5.9,3.9-8.9
				c5.2-12,9.9-24.2,14.5-36.5l6.7-18.4l6.4-18.5l0.1-0.1l0,0c3-6.5,6.1-13.2,9-19.8c2.9-6.6,5.8-13.3,8.6-20
				c2.8-6.7,5.1-13.6,6.6-20.6c1.4-7.1,2.3-14.3,2.5-21.6c0.3,7.3-0.1,14.6-1.1,21.8c-0.6,3.7-1.3,7.2-2.3,10.8
				c-1.1,3.6-2.2,7-3.5,10.4c-2.4,6.9-5.1,13.7-8,20.3c-2.7,6.8-5.7,13.4-8.7,20.1l0.1-0.2l-6.2,18.7c-2.2,6.1-4.4,12.3-6.7,18.6
				c-4.7,12.2-9.5,24.5-15,36.5c-5.4,12-11.2,23.8-17.5,35.3c-1.6,2.9-3.3,5.8-4.9,8.6c-1.8,2.8-3.4,5.6-5.2,8.3
				C767.8,434.6,764,440,760,445.1z"/>
			<path class="st1" d="M738.6,210.6c0,0-7.8-27.1-29-28.7c-21.2-1.6-21.5,6.5-18,13c3.4,6.4,15.1,5.5,24,15.6s13.3,19.5,13.3,19.5
				S747.2,238.1,738.6,210.6z"/>
		</g>
		<g>
			<g>
				<path class="st3" d="M708,155.9c0,0-11.5-10.6-18.2-2.1c-6.6,8.5,6.5,17.1,6.5,17.1L708,155.9z"/>
				<g>
					<g>
						<path d="M706.8,156.8c-1.9,2-3.7,4.1-5.5,6.1l-2.7,3.1l-2.5,3c0,0-0.1,0-0.1,0c0,0,0,0,0,0l-0.4-0.3l-0.7-0.6
							c-1-0.9-1.9-1.8-2.7-2.8c-1.6-2-2.9-4.2-2.9-6.5c-0.1-3.3,2.7-7.4,6.5-7.6c1.9-0.2,4,0.2,5.9,1c1.5,0.6,2.9,1.4,4.2,2.2
							c0.7,0.5,1.4,0.9,2,1.5l0.1,0.1c-0.4-0.4-0.9-0.9-1.4-1.3c-1.2-1-2.6-2-4-2.8c-1.9-1.1-4.1-2-6.5-2c-1.3,0-2.6,0.2-3.8,0.8
							c-1.2,0.6-2.3,1.4-3.1,2.4c-1,1.1-1.8,2.5-2.2,4.1c-0.4,1.6-0.3,3.2,0.2,4.7c0.9,3,2.8,5.4,4.9,7.4c0.5,0.5,1.1,1,1.6,1.4
							c0.3,0.3,0.4,0.4,1.1,0.8c0.6,0.4,1.1,0.8,1.7,1.1l0.1,0.1c0,0,0.1,0,0.1-0.1l0.2-0.2l0.3-0.4c0.2-0.2,0.4-0.5,0.6-0.8
							l0.9-1.2l1.2-1.7c1.6-2.2,3.3-4.5,4.9-6.8c0.4-0.6,4.1-5.7,3.2-5.9C707.6,155.8,707,156.6,706.8,156.8z"/>
					</g>
				</g>
			</g>
			<g>
				<polygon class="st4" points="695.7,170.6 707.4,155.6 875.3,285.4 863.6,300.4 				"/>
				<g>
					<g>
						<path d="M704.3,177.7c26.2,20.7,52.5,41.4,78.9,62c13.2,10.3,26.5,20.6,39.7,30.9c13.6,10.6,27.3,21.1,40.9,31.7l13.4-17.2
							c-8.9-6.8-17.8-13.6-26.7-20.5c-24.7-18.9-49.9-37.8-74.6-56.9l-38-29l-29.4-22.5l-1.1-0.9l-11,14.2l-0.7,0.9l8.9-11.2
							l2.9-3.6l25.2,19.7l39.8,31.2l43.6,34.1c19.1,14.9,38.2,29.9,57.4,44.8l-10.1,12.8c-20.9-16.2-41.9-32.4-62.8-48.6
							c-21.3-16.4-42.7-32.8-64.1-49.1c-4.4-3.4-42.9-32.9-40.6-30C696.5,171.6,702.4,176.3,704.3,177.7z"/>
					</g>
				</g>
			</g>
			
				<rect x="691.9" y="162" transform="matrix(0.6163 -0.7875 0.7875 0.6163 140.4037 616.5651)" class="st5" width="22.2" height="4.4"/>
			
				<rect x="697.4" y="166.5" transform="matrix(0.6163 -0.7875 0.7875 0.6163 139.0065 622.6907)" class="st5" width="22.2" height="4.4"/>
			<path class="st6" d="M870,293.5l7.1-8.8l6.5,12.6l3.7,7c1.1,2.1-0.9,4.5-3.1,3.9l-7.6-2.1l-13.7-3.8L870,293.5z"/>
		</g>
		<g>
			<g>
				<g>
					<path d="M740.7,218.3c6.8,3.3,13,7.6,18.5,12.7c5.5,5,10.4,10.8,14.5,17c3.1,4.6,5.9,9.6,7.8,14.8l0.8,2c0.3,0.7,0.5,1.3,0.7,2
						l1.2,4.1l0.7,3.3l0.4,1.6c0.1,0.5,0.2,1.1,0.2,1.7l0.5,3.4l0,0.2l-0.2-2.6c-0.1-1.1-0.1-2.2-0.3-3.3l-0.5-3.3l-0.2-1.1
						l-0.2-1.1l-0.5-2.2c-0.2-0.7-0.3-1.5-0.5-2.2l-0.7-2.2l-0.7-2.4l-0.9-2.4l-0.9-2.4c-0.3-0.8-0.7-1.5-1-2.3
						c-3.2-7.1-7.6-13.7-12.9-19.4c-0.6-0.7-1.3-1.4-2.1-2.1l-2.1-2c-1.4-1.3-3-2.5-4.5-3.8c-1.6-1.1-3.2-2.3-4.8-3.3l-2.5-1.5
						c-0.8-0.5-1.7-1-2.6-1.4c-0.2-0.1-0.9-0.4-1.8-0.8c-0.9-0.4-1.9-0.9-3-1.3c-2.2-0.7-4.1-1.3-4-0.7
						C739.1,217.5,740.3,218.1,740.7,218.3z"/>
				</g>
			</g>
		</g>
		<g>
			<path class="st1" d="M773.1,136.8c7.4,3.8,10.5,12.8,6.9,20.3c-6.7,14.4-17.5,37-25.3,50.6c-2.3,4.5-5.4,8.5-9.2,11.9
				c-5,4.9-13,4.9-18-0.2c-2.8-2.8-4.1-6.7-3.5-10.6c0.4-5.3,1.9-10.5,4.3-15.2c5.8-13.6,15.7-33.9,24-50c3.8-7.6,13-10.6,20.6-6.8
				C773,136.7,773.1,136.8,773.1,136.8L773.1,136.8z"/>
			<path class="st1" d="M792.6,166c7.4,3.8,10.5,12.8,6.9,20.3c-6.7,14.4-17.5,37-25.4,50.6c-2.3,4.5-5.4,8.6-9.2,11.9
				c-3.9,3.4-9.3,4.3-14.1,2.5c-4.8-2.7-7.6-7.8-7.2-13.3c0.4-5.3,1.9-10.5,4.2-15.3c5.9-13.5,15.7-33.9,24-50
				C775.6,165,785,162,792.6,166L792.6,166z"/>
			<path class="st1" d="M813,185.3c6.3,3.4,8.9,11.1,5.9,17.6c-5.8,12.5-15.4,32-22,43.7c-2,3.9-4.7,7.5-8,10.4
				c-4.3,4.2-11.3,4.1-15.5-0.2c-2.4-2.4-3.5-5.8-3-9.2c0.3-4.6,1.6-9.1,3.7-13.2c5.1-11.7,13.6-29.1,20.8-43.3
				c3.4-6.5,11.4-9.1,18-5.8L813,185.3z"/>
			<path class="st1" d="M838.9,193.3c6.4,3.4,9,11.2,5.9,17.7c-5.8,12.6-15.4,32.1-22.1,44c-2,3.9-4.7,7.5-8,10.4
				c-4.3,4.3-11.2,4.3-15.5,0c-2.5-2.5-3.6-5.9-3.1-9.4c0.3-4.6,1.6-9.2,3.7-13.3c5.1-11.7,13.6-29.3,20.9-43.5
				c3.4-6.6,11.5-9.2,18.1-5.8c0,0,0,0,0,0L838.9,193.3z"/>
			<path class="st6" d="M748.4,220.4c2.5-9.7,6.6-18.9,12-27.3c4.1-9.2,9.6-17.6,16.3-25.1c-2.5,9.7-6.6,18.9-12.1,27.2
				C760.5,204.4,755.1,212.9,748.4,220.4z"/>
			<path class="st6" d="M794.7,250.2c7.7-18.3,16.9-35.9,27.4-52.7C817.3,217.1,807.9,235.1,794.7,250.2L794.7,250.2z"/>
			<path class="st6" d="M770.5,242.2c7.7-18.3,16.9-36,27.4-52.8C793.1,208.9,783.7,227.1,770.5,242.2z"/>
			<g>
				<path class="st7" d="M734.8,220l-5.5-2.8c-2.7-1.4-3.8-4.7-2.4-7.4l4-7.9c1.4-2.7,4.7-3.8,7.4-2.4l5.5,2.8
					c2.7,1.4,3.8,4.7,2.4,7.4l-4,7.9C740.8,220.3,737.5,221.4,734.8,220z"/>
			</g>
			<g>
				<path class="st7" d="M752.8,248.1l-3.9-2.5c-2.9-1.8-3.8-5.7-1.9-8.6l3.9-6.2c1.8-2.9,5.7-3.8,8.6-1.9l3.9,2.5
					c2.9,1.8,3.8,5.7,1.9,8.6l-3.9,6.2C759.6,249.1,755.7,249.9,752.8,248.1z"/>
			</g>
			<g>
				<path class="st7" d="M778.1,256.9l-3.9-2.5c-2.9-1.8-3.8-5.7-1.9-8.6l3.9-6.2c1.8-2.9,5.7-3.8,8.6-1.9l3.9,2.5
					c2.9,1.8,3.8,5.7,1.9,8.6l-3.9,6.2C784.8,257.9,781,258.8,778.1,256.9z"/>
			</g>
			<g>
				<path class="st7" d="M804.7,266l-4.2-2.1c-3.1-1.5-4.3-5.3-2.8-8.4l3.3-6.5c1.5-3.1,5.3-4.3,8.4-2.8l4.2,2.1
					c3.1,1.5,4.3,5.3,2.8,8.4l-3.3,6.5C811.6,266.3,807.8,267.5,804.7,266z"/>
			</g>
		</g>
	</g>
	<g id="freepik--Character--inject-14">
		<path class="st8" d="M646,394.7l19.1,25.2l41.4-91.7c0,0-40.1-49-54.8-69.5c-14.7-20.5-25.5-23.9-25.5-23.9s-26.7-7.8-40-7.8
			l-65.9,3.9l-66.9,29.2c-16.4,7.2-30.4,19-40.3,33.9l-63,101.2l89.2,38.1l29.9,171.3c5.7,25.7,10.7,49.9,34.4,61.7l165.4-159
			l-19.4-30.5L646,394.7z"/>
		<path class="st9" d="M487.8,363.3c0.4,0.3-9.9,16.1-22.8,35.4c-12.9,19.3-23.8,34.7-24.2,34.4s9.9-16.1,22.8-35.4
			C476.5,378.4,487.4,363.1,487.8,363.3z"/>
		<path class="st9" d="M626.5,525.9c-1.4,1-2.9,1.9-4.4,2.6c-2.9,1.6-7.1,3.8-12.3,6.6c-10.5,5.4-25,12.7-41.3,20.3
			c-16.3,7.7-31.1,14.3-41.9,18.9c-5.4,2.3-9.9,4.1-12.9,5.4c-1.6,0.7-3.2,1.3-4.8,1.7c1.4-0.9,3-1.7,4.6-2.3l12.6-5.8
			c10.7-4.9,25.5-11.7,41.7-19.3c16.2-7.7,30.8-14.7,41.4-19.7l12.5-6C623.3,527.2,624.9,526.5,626.5,525.9z"/>
		<path class="st9" d="M482.5,326.3c-2.1-2.3-4.1-4.7-5.8-7.3c-4.4-6-9.3-11.6-14.7-16.8c-5.4-5-11.9-8.8-19-11.1
			c-5.4-1.7-9-1.6-9-2c0.8-0.2,1.7-0.3,2.5-0.2c2.3,0.1,4.6,0.4,6.8,1c7.3,2.1,14.1,5.9,19.7,11c5.5,5.2,10.4,11,14.5,17.3
			C479.5,320.8,481.2,323.4,482.5,326.3z"/>
		<path class="st9" d="M618.6,409.6c0.1,0.6,0.1,1.2,0,1.8c0,1.2,0,2.9,0,5.2c-0.4,6.4-1.3,12.7-2.7,19c-9,42.1-37.3,77.4-76.4,95.3
			c-5.8,2.6-11.8,4.8-17.9,6.6c-2.2,0.7-3.9,1-5.1,1.3c-0.6,0.2-1.2,0.3-1.8,0.3c0,0,2.4-0.8,6.6-2.2c6-2,11.9-4.4,17.6-7.2
			c38.4-18.3,66.3-53.1,75.8-94.5c1.5-6.2,2.6-12.4,3.3-18.8C618.3,412.1,618.5,409.6,618.6,409.6z"/>
		<g class="st10">
			<path d="M450.8,499.6c-0.3-1.6,21.2-112.9,21.2-112.9l-32.5,48.7"/>
		</g>
		<path class="st9" d="M641.7,287.9c0.2,0.6,0.2,1.3,0.2,1.9c0,1.4,0.2,3.3,0.4,5.5c0.2,5,0.6,11.8,1,20.2c0.8,17.3,2,40.8,3.3,66.7
			c1.3,25.9,2.2,49.7,2.7,66.7c0.3,8.5,0.4,15.5,0.5,20.2v5.5c0.1,0.6,0.1,1.3,0,1.9c-0.2-0.6-0.2-1.3-0.2-1.9
			c0-1.4-0.2-3.3-0.4-5.5c-0.2-5-0.6-11.9-1-20.2c-0.8-17.3-2-40.8-3.3-66.7c-1.3-25.9-2.2-49.6-2.7-66.7
			c-0.3-8.5-0.4-15.4-0.5-20.2v-5.5C641.6,289.2,641.6,288.6,641.7,287.9z"/>
		<g class="st11">
			<path d="M509.7,581c-5.3-4.4-4.1-13.4,0.6-18.5c4.7-5.1,11.7-7.1,18.3-9.4c31.4-10.2,63-24.6,83.8-50.3c2.6-3.7,5.8-7,9.3-9.9
				c3.7-2.9,8.6-3.6,12.9-1.8c6.3,3.3,6.6,12.5,3.9,19.1c-3.3,8.2-9.5,14.9-17.3,18.9"/>
		</g>
		<g class="st11">
			<polygon points="642.4,307.7 660.8,414.2 646.5,395.4 			"/>
		</g>
		<path class="st8" d="M817.1,587.6l-31,106.5l132.3,39.4c3-12.9-57.9-58.6-57.9-58.6l22.9-67.5L817.1,587.6z"/>
		<g class="st12">
			<path class="st13" d="M821.2,656.9c-2.9,0-5.3,2.2-5.6,5c-0.1,2.9,2.1,5.3,5,5.6c3,0,5.6-2.4,5.9-5.4c-0.2-3-2.8-5.3-5.8-5.2"/>
		</g>
		<g class="st12">
			<path class="st13" d="M786.1,694.1l3.5-10.6l125.5,41.6c0,0,5.1,4.3,3.3,8.2L786.1,694.1z"/>
		</g>
		<path class="st9" d="M862.8,674.7c-0.2,0.6-3.5,0-7.3,1.1s-6.3,3.3-6.8,2.9c-0.5-0.4,1.5-3.9,6.2-5.2S863.1,674.2,862.8,674.7z"/>
		<path class="st9" d="M874.9,684.6c0,0.7-3.3,1-6.2,3c-2.9,2.1-4.5,4.8-5.1,4.6c-0.6-0.2,0-4,3.8-6.6S875.1,684,874.9,684.6z"/>
		<path class="st9" d="M877.9,703.6c-0.7,0-0.6-3.5,2.1-6.6c2.7-3,6.1-3.5,6.2-3c0.1,0.6-2.3,2-4.5,4.5
			C879.6,701.1,878.5,703.7,877.9,703.6z"/>
		<path class="st9" d="M866.2,658.8c-0.5,0.5-3.3-1.3-6.9-2.1c-3.6-0.8-6.9-0.5-7.1-1.2s3.3-2.1,7.6-1.1
			C864.2,655.4,866.9,658.4,866.2,658.8z"/>
		<path class="st9" d="M867.7,642.2c-2.3-0.1-4.6-0.8-6.6-2c-2.3-1.1-4.4-2.5-6.3-4.2c-1.2-1-2.3-2.1-3.3-3.3
			c-0.6-0.6-1.1-1.3-1.5-2.1c-0.6-1.2-0.3-2.7,0.7-3.5c0.9-0.7,2.2-0.9,3.3-0.6c0.8,0.2,1.7,0.6,2.4,1.1c1.3,0.8,2.5,1.6,3.7,2.6
			c1.9,1.7,3.6,3.6,4.9,5.8c1.4,1.9,2.2,4.2,2.3,6.6c-0.4,0-1.2-2.4-3.7-5.6c-1.4-1.9-3.1-3.6-4.9-5.1c-1.1-0.9-2.2-1.6-3.4-2.3
			c-1.3-0.8-2.5-1.1-3-0.6c-0.6,0.5-0.2,0.3,0,0.8c0.3,0.6,0.7,1.1,1.1,1.6c0.9,1.1,1.9,2.1,2.9,3.1c1.8,1.6,3.6,3.1,5.6,4.4
			C865.4,640.8,867.9,641.8,867.7,642.2z"/>
		<path class="st9" d="M866.6,642.9c-0.7-2.3-0.6-4.7,0.2-6.9c0.6-2.5,1.6-4.9,3.1-7c0.8-1.3,1.8-2.5,2.9-3.5
			c1.2-1.6,3.2-2.4,5.2-2.1c1.2,0.4,2,1.4,2.2,2.7c0.1,0.9,0.1,1.8,0,2.6c-0.2,1.5-0.7,3.1-1.3,4.5c-1.1,2.4-2.8,4.4-4.9,6
			c-3.6,2.7-6.6,2.6-6.6,2.4c0-0.2,2.5-1,5.5-3.7c1.7-1.5,3.1-3.5,3.9-5.6c0.5-1.2,0.9-2.5,1-3.9c0.2-1.5,0-2.8-0.5-2.8
			c-0.5,0-2.1,0.5-3,1.5c-1,1-1.9,2-2.7,3.1c-1.4,1.9-2.5,4-3.3,6.2C867.1,640.2,867,642.9,866.6,642.9z"/>
		<path class="st9" d="M952.9,429c3.3,24.6-5.1,52.3-14,75.5l-58,136.2l-64.2-9.9c0,0-13.4,14.9-30.5,20.6
			c-7.7,2.5-32.8,7.5-53.6-7.4l0,0c0,0-29.3,40.9-75.5,53.2c-46.2,12.4-116,19.2-149.8-34.8l160.9-155.2
			c3.3,0.8,138.7-90.5,211.9-111.3C880.2,396.1,946.7,383.9,952.9,429z"/>
		<path class="st14" d="M812,630.4c0,0,0.3-0.2,0.9-0.5l2.6-1.4c2.3-1.2,5.7-3,10.1-5.4c5.3-2.9,10.4-6,15.4-9.5
			c6.6-4.5,12.4-9.9,17.4-16.1c5.9-7.6,9.8-16.6,11.3-26.1c1.6-10.9,1.2-22.1-1.4-32.8c-2.2-12-8.4-22.9-17.7-30.8
			c-10.5-7.7-23.1-12.2-36.1-12.9c-6.6-0.5-13.3-0.5-19.9,0.2c-6.4,0.7-12.8,1.8-19.1,3.3c-11.9,3.1-23.4,7.1-34.7,12
			c-21.4,9.4-40.1,19.5-56.4,26.5c-12.8,5.8-26.2,10.3-39.9,13.3c-2.4,0.6-4.6,0.9-6.6,1.2c-1.9,0.3-3.5,0.6-4.8,0.7l-3,0.3h-1
			l1-0.2l2.9-0.4c1.3-0.2,2.9-0.4,4.8-0.8s4-0.7,6.6-1.3c13.6-3.3,26.8-7.9,39.4-13.8c16.2-7.1,34.8-17.3,56.3-26.8
			c11.3-5,22.9-9.1,34.9-12.2c6.4-1.5,12.8-2.6,19.3-3.3c6.7-0.6,13.5-0.7,20.2-0.2c13.4,0.7,26.4,5.3,37.2,13.3
			c5,4,9.1,9,12.1,14.6c2.8,5.4,4.9,11.2,6.1,17.1c2.5,11,2.9,22.3,1.2,33.4c-1.6,9.7-5.6,18.9-11.7,26.6
			c-5.1,6.3-11.1,11.7-17.8,16.2c-5,3.4-10.2,6.5-15.6,9.3c-4.4,2.3-7.9,4-10.2,5.1l-2.7,1.2C812.6,630.3,812.3,630.4,812,630.4z"/>
		<path class="st14" d="M852.2,451.5c-4,7.6-8.5,15-13.5,22c-4.5,7.3-9.5,14.3-14.9,21c4-7.6,8.5-15,13.5-22
			C841.9,465.2,846.8,458.1,852.2,451.5z"/>
		<path class="st14" d="M805.9,619.6c-3.8,1.2-7.7,2.2-11.7,3c-7.2,1.8-17.1,4.5-27.8,8.2c-10.7,3.7-20.1,7.8-26.9,10.9
			c-6.7,3.1-10.9,5.2-11,4.9c0.8-0.7,1.7-1.3,2.7-1.8c1.8-1.1,4.5-2.5,7.8-4.2c17.4-8.8,35.9-15.2,54.9-19.2
			c3.6-0.8,6.6-1.3,8.7-1.5C803.8,619.7,804.8,619.6,805.9,619.6z"/>
		<path class="st14" d="M879.8,631.9c-0.3,0-1.1-2.9-3.8-6.9c-7.2-10.9-20.9-15.3-33-10.7c-4.6,1.6-7,3.6-7.2,3.3s0.5-0.7,1.6-1.5
			c1.6-1.2,3.3-2.2,5.1-3c12.7-5.5,27.6-0.6,34.5,11.4c1,1.7,1.8,3.5,2.4,5.4C880,631,880,631.9,879.8,631.9z"/>
		<path class="st14" d="M602,581c0.5,1,0.8,2,0.9,3.1c0.5,2.9,0.7,5.7,0.7,8.6c0,9.7-2.6,19.2-7.6,27.5c-5,8.3-12.8,14.6-22,17.9
			c-2.8,0.9-5.6,1.5-8.5,1.6c-1.1,0.2-2.2,0.2-3.3,0c3.9-0.5,7.6-1.4,11.3-2.6c8.7-3.4,16.1-9.6,21-17.6c4.8-8.1,7.5-17.2,7.8-26.5
			C602.7,585.5,601.7,581,602,581z"/>
		<path class="st14" d="M529.6,654.7c-0.4,0.3-2.1-1.2-3.7-3.3c-1.6-2.1-2.5-4.4-2-4.6c0.4-0.2,1.9,1.4,3.4,3.6
			C528.9,652.5,529.9,654.4,529.6,654.7z"/>
		<path class="st14" d="M543.1,669c-0.3,0.4-2.1-0.9-4.1-2.8c-2-1.9-3.3-3.7-3-4c0.3-0.3,2.2,0.9,4.1,2.8
			C542.1,666.8,543.4,668.6,543.1,669z"/>
		<path class="st14" d="M559,680.5c-0.2,0.4-2.3-0.5-4.6-2s-3.9-3-3.7-3.3c0.3-0.3,2.4,0.5,4.6,2C557.6,678.7,559.2,680.2,559,680.5
			z"/>
		<path class="st14" d="M577.1,688.2c0,0.5-2.3,0-4.9-0.9c-2.6-0.9-4.5-2-4.3-2.5s2.4,0,4.9,0.9
			C575.2,686.7,577.2,687.8,577.1,688.2z"/>
		<path class="st14" d="M596.5,691.3c0,0.5-2.2,0.7-5,0.4s-4.9-0.8-4.8-1.3c0.1-0.5,2.3-0.7,5-0.4S596.5,690.8,596.5,691.3z"/>
		<path class="st14" d="M616.1,690.3c0,0.5-2.1,1-4.9,1.2c-1.2,0.1-2.5,0.1-3.7,0l0,0c-0.8,0-1.3-0.2-1.3-0.4c0-0.2,0.4-0.5,1.2-0.7
			l0,0c1.2-0.3,2.4-0.5,3.6-0.5C613.9,689.5,616.1,689.8,616.1,690.3z"/>
		<path class="st14" d="M635.5,686.8c0,0.5-1.9,1.3-4.6,1.9c-2.7,0.6-4.9,0.7-5,0.2s2-1.3,4.6-1.9
			C633.2,686.4,635.4,686.3,635.5,686.8z"/>
		<path class="st14" d="M654.3,681c0,0.5-1.8,1.5-4.4,2.4c-2.6,0.9-4.8,1.2-5,0.8c-0.1-0.4,1.8-1.5,4.4-2.4
			C651.9,680.9,654.2,680.6,654.3,681z"/>
		<path class="st14" d="M672.4,673.3c0.2,0.4-1.6,1.7-4.1,2.8c-2.5,1.1-4.7,1.7-4.9,1.3c-0.2-0.4,1.7-1.7,4.1-2.8
			C670.1,673.5,672.2,672.9,672.4,673.3z"/>
		<path class="st14" d="M689.7,663.8c0.2,0.4-1.5,1.8-3.8,3.3c-2.4,1.4-4.5,2.1-4.7,1.7c-0.2-0.4,1.5-1.9,3.8-3.3
			S689.5,663.4,689.7,663.8z"/>
		<path class="st14" d="M705.9,652.7c0.3,0.4-1.3,2-3.5,3.6c-2.2,1.6-4.2,2.6-4.5,2.2c-0.3-0.4,1.3-2,3.5-3.6
			C703.6,653.3,705.7,652.4,705.9,652.7z"/>
		<path class="st14" d="M721.1,640.2c0.3,0.4-1.1,2.1-3.3,3.9c-2.2,1.8-4,3-4.3,2.6c-0.3-0.4,1.1-2.1,3.3-3.9
			C719,641,720.8,639.9,721.1,640.2z"/>
		<path class="st14" d="M735.5,626.7c0.3,0.4-1,2.2-3,4s-3.9,3.1-4.2,2.8s1-2.1,3-4C733.3,627.5,735.2,626.3,735.5,626.7z"/>
		<path class="st14" d="M751,614.5c0.3,0.4-1.3,2-3.5,3.6c-2.2,1.6-4.2,2.6-4.5,2.2c-0.3-0.4,1.3-2,3.5-3.6
			C748.7,615.1,750.8,614.2,751,614.5z"/>
		<path class="st14" d="M768.3,605c0.2,0.4-1.6,1.7-4,3c-2.4,1.2-4.6,1.8-4.8,1.4c-0.2-0.4,1.6-1.7,4-3
			C766,605.2,768.1,604.7,768.3,605z"/>
		<path class="st14" d="M787.1,599.2c0,0.5-2,1.4-4.6,2c-2.6,0.6-4.9,0.8-5,0.4c-0.1-0.4,1.9-1.4,4.6-2
			C784.8,598.9,787,598.7,787.1,599.2z"/>
		<path class="st14" d="M806.7,598.1c0,0.5-2.3,0.7-5,0.6c-2.7-0.1-4.9-0.3-4.9-0.8c0-0.5,2.2-1,4.9-1S806.8,597.7,806.7,598.1z"/>
		<path class="st14" d="M825.7,603.2c-0.2,0.4-2.3-0.2-4.8-1.1s-4.6-1.8-4.5-2.2c0.1-0.5,2.4-0.3,5,0.6
			C824.1,601.4,825.9,602.7,825.7,603.2z"/>
		<path class="st14" d="M821.6,617.5c-0.3-0.4,1.2-2,2.9-4c1.7-2,3.3-3.6,3.6-3.3s-0.4,2.4-2.3,4.5
			C823.9,616.8,821.9,617.8,821.6,617.5z"/>
		<path class="st14" d="M804.2,626.5c0-0.5,1.7-1.6,4.2-2.7c2.5-1,4.7-1.5,4.9-1.1c0.2,0.4-1.7,1.6-4.2,2.7
			C806.5,626.5,804.4,627,804.2,626.5z"/>
		<path class="st14" d="M785.4,632.5c0-0.5,1.8-1.5,4.4-2.4c2.6-0.9,4.8-1.2,5-0.8c0.2,0.5-1.8,1.5-4.4,2.4
			C787.8,632.6,785.6,633,785.4,632.5z"/>
		<path class="st14" d="M767,639.5c-0.2-0.4,1.7-1.6,4.3-2.6c2.6-1,4.7-1.4,4.9-1c0.2,0.4-1.7,1.6-4.3,2.6S767.2,640,767,639.5z"/>
		<path class="st14" d="M748.8,647.4c-0.2-0.4,1.7-1.7,4.2-2.7s4.7-1.6,4.9-1.2c0.2,0.4-1.7,1.7-4.2,2.7
			C751.2,647.3,749,647.6,748.8,647.4z"/>
		<path class="st15" d="M447.7,295.4c0.6-0.2,1.2-0.4,1.9-0.3c1.9,0.2,3.6,1,4.9,2.4c2,2.2,3.1,5.1,2.8,8.1c-0.4,3.8-1.2,7.5-2.5,11
			c-1.6,4.1-1.3,8.7,0.8,12.6c2.3,4.1,7.1,7.2,9,12.9c2,5.9,0.1,12.5-4.8,16.4c-2.5,2.1-5.6,3.3-8.9,3.4c-3.2,0-6.4-0.6-9.5-1.5
			c-2.9-1-5.9-1.2-8.9-0.6c-2.7,1-5,2.9-6.6,5.3c-1.6,2.5-3.5,4.9-5.6,7c-2.2,2.1-5.2,3.2-8.3,3.1c-5.6-0.5-10.5-3.8-13.1-8.7
			c-2.1-4.2-3.2-8.7-3.3-13.4c-0.2-4.2,0-8,0-11.3c0-2.8-0.3-5.6-0.7-8.4c-0.5-2.4-1.1-4.7-2-6.9c0.4,0.5,0.7,1.1,0.9,1.6
			c0.8,1.6,1.4,3.4,1.7,5.1c0.6,2.8,1,5.6,1.1,8.5c0,3.3,0,7.1,0.4,11.2c0.2,4.4,1.3,8.8,3.3,12.8c2.4,4.4,6.9,7.4,11.9,7.8
			c2.6,0.1,5.2-0.8,7.1-2.7c2-2.1,3.8-4.3,5.4-6.8c1.7-2.8,4.3-4.9,7.4-6c3.3-0.7,6.7-0.5,9.9,0.6c2.9,0.9,5.9,1.4,9,1.5
			c2.9-0.2,5.7-1.2,7.9-3.1c4.3-3.5,6.1-9.4,4.3-14.7c-1.6-5-6.2-8.2-8.8-12.6c-1.3-2.2-1.9-4.6-1.9-7.1c0.1-2.2,0.5-4.4,1.2-6.6
			c1.3-3.5,2.2-7.1,2.7-10.8c0.3-2.7-0.5-5.5-2.4-7.6c-1.1-1.3-2.7-2.2-4.4-2.5C448.4,295.3,447.7,295.5,447.7,295.4z"/>
		<path class="st15" d="M456.8,525.3c0,0,0.2,0.8,1,2c1.2,1.8,3,3,5.1,3.5c3.3,0.9,6.8,0.2,9.4-2c3.3-3,5.6-7.1,6.3-11.5
			c1.1-4.9,0.9-10.5,1.8-16.4c0.5-3.1,1.5-6.2,3-9c1.7-3.1,4.3-5.5,7.6-6.8c3.4-1.2,7-1.5,10.5-1c3.6,0.4,7.1,1.2,10.6,1.6
			c3.6,0.6,7.2,0.4,10.7-0.5c3.6-1,6.8-2.8,9.6-5.3c2.7-2.5,4.8-5.6,5.9-9.2c1-3.4,0.9-7.1-0.2-10.5c-1.9-6.6-7.5-11.6-14.3-12.7
			c-6.6-0.7-12.5,2.5-18.7,2.6c-3,0.1-6-0.6-8.7-2c-2.4-1.2-4.7-2.7-6.8-4.4c-3.4-3-7.3-5.3-11.5-7c-3.2-1.2-6.8-1-9.9,0.7
			c-1.9,1-3.4,2.6-4.2,4.6c-0.2,0.7-0.4,1.5-0.5,2.2c-0.1-0.8,0-1.6,0.2-2.3c0.7-2.2,2.2-4,4.2-5.1c1.4-0.8,3-1.4,4.6-1.6
			c1.9-0.2,3.9,0,5.7,0.6c4.3,1.6,8.4,4,12,7c4.1,3.6,9.3,5.7,14.7,5.9c3-0.3,6-0.8,9-1.7c3.2-0.9,6.5-1.3,9.9-1.1
			c7.4,1.2,13.5,6.5,15.7,13.7c1.3,3.7,1.4,7.7,0.2,11.5c-1.2,3.8-3.4,7.2-6.4,9.9c-2.9,2.7-6.5,4.6-10.3,5.7
			c-3.7,1-7.6,1.2-11.4,0.5c-3.7-0.5-7.2-1.3-10.6-1.7c-3.3-0.6-6.7-0.3-9.9,0.8c-2.9,1.1-5.3,3.3-6.8,6c-1.5,2.6-2.5,5.5-3,8.4
			c-1,5.8-0.9,11.5-2,16.4c-0.8,4.7-3.3,8.9-6.9,12c-2.9,2.3-6.7,3-10.1,1.8c-2.2-0.6-4.1-2-5.2-4
			C456.8,526.8,456.7,526,456.8,525.3z"/>
		<path class="st15" d="M568.3,326.3c0.6-1.1,1.4-2.2,2.3-3.1c2.7-2.7,6.1-4.4,9.9-4.9c6-0.9,12,1.5,15.7,6.2
			c2.3,2.9,3.7,6.4,4,10.1c0,3.9,0.8,7.8,2.5,11.4c1.1,1.7,2.8,3,4.8,3.6c2.1,0.6,4.3,1,6.6,1c2.3,0,4.7,0,7.1,0.3
			c2.6,0.1,5.1,1,7.2,2.6c1.1,0.9,1.9,2,2.5,3.3c0.5,1.3,0.8,2.7,0.7,4.1c-0.3,2.7-1.5,5.3-3.3,7.4c-1.8,2.1-4.1,3.9-6.6,5.2
			c-2.5,1.2-5.1,2.3-7.6,3.4c-2.5,1.1-4.9,2.5-7,4.3c-2.1,1.9-3.5,4.3-4.1,7c-1.3,5.5,0,11.5-0.4,17.7c-0.2,3.2-1,6.3-2.5,9.2
			c-1.5,3.1-4.4,5.3-7.8,5.9c-3.5,0.3-6.9-0.9-9.4-3.3c-2.5-2.2-4.6-4.8-6.3-7.7c-1.5-2.8-3.2-5.5-5.1-8c-1.7-2.5-4.2-4.4-7-5.5
			c-2.8-0.8-5.9-0.6-8.6,0.6c-2.8,1.2-5.5,2.6-8,4.3c-2.6,1.7-5.3,3.1-8.1,4.2c-2.9,1.1-6,1.6-9,1.5c-5.9-0.2-11.7-2.2-16.4-5.8
			c-4.6-3.4-7.8-8.3-9-13.9c-1.4-5.3,0.1-11,3.9-15c1.9-1.7,4.3-2.9,6.8-3.5c2.3-0.6,4.7-1,7.1-1.2c4.3-0.2,8.5-1.6,12.1-4.1
			c3-2.7,5.2-6.1,6.6-9.9c1.4-3.5,2.3-7,3.5-10.2c1-3,2.5-5.8,4.4-8.4c1.7-2,3.6-3.9,5.7-5.5c2.8-2.5,6.2-4.1,9.9-4.8
			c1.3-0.2,2.6,0.2,3.6,1c-1.1-0.6-2.4-0.8-3.6-0.7c-3.5,0.8-6.8,2.5-9.4,4.9c-2,1.6-3.9,3.5-5.5,5.5c-1.8,2.5-3.2,5.3-4.2,8.2
			c-1.1,3.3-2,6.6-3.3,10.2c-1.3,3.9-3.6,7.5-6.6,10.3c-3.7,2.7-8.1,4.2-12.7,4.5c-4.5,0.7-9.5,1.2-13.1,4.5
			c-3.4,3.7-4.6,8.8-3.3,13.7c1.2,5.2,4.2,9.8,8.5,12.9c4.5,3.4,9.9,5.2,15.5,5.4c2.9,0.1,5.7-0.4,8.4-1.4c2.8-1.1,5.4-2.5,7.9-4.1
			c2.3-1.6,4.8-3,7.4-4.2c3.1-1.4,6.6-1.6,9.9-0.6c3.2,1.2,5.9,3.3,7.8,6c1.9,2.6,3.6,5.4,5.2,8.2c1.6,2.7,3.5,5.1,5.9,7.2
			c2.2,2,5.1,3,8.1,2.7c2.9-0.5,5.3-2.4,6.6-5c1.3-2.6,2.1-5.5,2.3-8.5c0.3-5.9-1-12,0.5-18c0.7-3,2.3-5.7,4.6-7.8
			c2.2-1.9,4.7-3.4,7.4-4.6c2.6-1.2,5.2-2.2,7.6-3.3c2.3-1.2,4.4-2.8,6.1-4.8c1.7-1.8,2.9-4.1,3.3-6.6c0.1-1.1-0.1-2.2-0.5-3.3
			c-0.5-1-1.2-2-2.1-2.7c-1.9-1.4-4.2-2.2-6.6-2.3c-2.3-0.3-4.7-0.3-7-0.4c-2.3-0.1-4.6-0.5-6.9-1.1c-2.2-0.7-4.1-2.2-5.4-4.1
			c-1.7-3.7-2.6-7.8-2.6-12c-0.1-3.6-1.4-7-3.6-9.9c-3.5-4.5-9.1-6.9-14.8-6.3c-3.6,0.5-6.9,2.1-9.6,4.5
			C570,324.3,569.1,325.3,568.3,326.3z"/>
		<path class="st15" d="M513.1,270.9c-1.8,1.8-4.2,3-6.8,3.3c-2.8,0.5-5.6,0.5-8.3,0c-3.5-0.6-6.7-2.4-9-5.2c-2-2.9-3.1-6.3-3.3-9.9
			c-0.3-2.8-0.1-5.6,0.6-8.3c0.4-2.5,1.6-4.8,3.5-6.6c-1.1,2.2-1.8,4.6-2.3,7c-0.4,2.6-0.5,5.3-0.2,7.9c0.3,3.2,1.3,6.2,3.1,8.9
			c2,2.4,4.8,4.1,7.9,4.6c2.6,0.5,5.2,0.6,7.8,0.3C508.4,272.5,510.8,271.8,513.1,270.9z"/>
		<path class="st15" d="M654.5,262.5c0,0,0,0.3-0.2,0.9c-0.3,0.8-0.7,1.6-1.3,2.4c-2,2.7-4.9,4.6-8.2,5.5c-2.3,0.5-4.7,0.5-6.9,0
			c-2.6-0.7-5-2-7-3.7c-2-1.8-4.4-3.3-6.9-4.2c-2.7-0.7-5.5,0.4-7,2.8c-1.5,2.6-2.9,5.2-4,8c-1.3,2.7-3.3,4.9-5.8,6.6
			c-7.1,4.8-16.7,2.9-21.5-4.1c-0.1-0.2-0.3-0.4-0.4-0.6c-0.7-1-1.2-2.1-1.3-3.3c0,0,0.6,1.1,1.9,3c1.9,2.5,4.5,4.5,7.4,5.6
			c7.2,2.4,15-0.9,18.3-7.8c1.2-2.8,2.6-5.6,4.1-8.2c1-1.5,2.3-2.6,3.9-3.3c1.6-0.6,3.3-0.7,4.9-0.2c2.8,1.1,5.3,2.6,7.5,4.6
			c1.8,1.6,4,2.9,6.3,3.6c2.1,0.5,4.3,0.5,6.3,0c3.1-0.7,5.8-2.3,7.9-4.7C653.9,263.6,654.3,262.4,654.5,262.5z"/>
		<path class="st15" d="M677.9,391.4c-1.3-0.6-2.5-1.4-3.6-2.4c-3.2-2.4-6.2-5-9-7.8c-2-2-3.7-4.2-5.2-6.6c-1.8-2.7-2.9-5.8-3.3-9.1
			c-0.5-3.6,0-7.3,1.7-10.5c0.9-1.7,2.2-3.2,3.7-4.4c1.5-1.1,3.1-2.2,4.8-3.1c1.6-0.9,3.1-2,4.4-3.3c1.2-1.2,2.1-2.7,2.5-4.3
			c0.8-3.2,0.9-6.6,0.3-9.9c-0.5-3.1-0.8-6.3-0.7-9.5c0-2.9,1.1-5.7,3.1-7.9c3.1-2.7,7-4.3,11.1-4.4c1.5-0.2,3,0.4,4.1,1.5
			c-1.2-0.6-2.6-0.9-4-0.9c-3.8,0.4-7.4,2-10.2,4.6c-1.7,2-2.6,4.5-2.5,7.1c0,3.1,0.3,6.1,0.8,9.2c0.6,3.5,0.6,7.1-0.3,10.6
			c-0.5,1.9-1.5,3.6-2.9,5.1c-1.4,1.4-3,2.5-4.7,3.4c-3.3,1.5-6.1,3.9-7.9,7c-1.5,3-2,6.3-1.6,9.6c0.9,5.7,3.7,10.9,7.8,14.8
			C673.1,387.7,678.1,391.2,677.9,391.4z"/>
		<path class="st15" d="M609.2,456.6c0.5-0.1,1-0.1,1.5,0c1.5,0,2.9,0.1,4.4,0.3c5.4,0.5,10.7,2,15.6,4.5
			c7.4,3.8,12.8,10.6,14.7,18.6c1.1,4.8,0.4,9.9-2,14.2c-2.7,4.7-7.1,8-12.4,9.2c-2.7,0.5-5.4,0.3-8-0.4c-2.2-0.7-4.6-0.7-6.8,0
			c-2.1,0.9-3.9,2.3-5.3,4.1c-1.3,1.7-2.5,3.6-3.5,5.6c-1.8,4.1-4.8,7.5-8.6,9.9c-3.5,1.8-7.5,2.3-11.3,1.3
			c-3.1-0.8-5.9-2.6-7.9-5.1c-1.5-1.9-2.5-4-3-6.4c-0.3-1.5-0.4-3-0.2-4.4c0-0.5,0.1-1,0.3-1.5c-0.1,1.9,0.1,3.9,0.6,5.8
			c0.6,2.2,1.7,4.2,3.1,5.9c1.9,2.2,4.4,3.7,7.2,4.4c3.5,0.8,7.2,0.3,10.3-1.4c3.5-2.3,6.2-5.5,7.9-9.3c1.9-4.6,5.4-8.3,9.9-10.6
			c2.5-0.8,5.3-0.8,7.8,0c2.4,0.7,4.8,0.9,7.3,0.4c4.7-1.1,8.8-4.2,11.2-8.4c2.3-4,3-8.7,1.9-13.1c-1.8-7.7-6.8-14.2-13.8-17.9
			c-4.7-2.5-9.8-4.2-15-4.9C611.3,456.9,609.2,456.9,609.2,456.6z"/>
		<path class="st15" d="M547.7,565.3c-0.6-2.4-1.7-4.7-3.1-6.8c-1.6-2.1-3.7-3.8-6.1-5c-6-3-13.3-1.1-16.9,4.5
			c-1.5,2.1-2.5,4.6-2.9,7.2c-0.2,2.5,0.1,5,0.7,7.4c0,0-0.6-0.6-1.1-1.8c-0.7-1.8-1-3.8-0.9-5.7c0.2-2.9,1.1-5.7,2.7-8.1
			c3.9-6.5,12.3-8.7,19-5.1c2.7,1.3,4.9,3.2,6.6,5.7c1.1,1.6,1.8,3.4,2.1,5.4C547.9,564.4,547.8,565.3,547.7,565.3z"/>
		<path class="st15" d="M558.1,612.9c0,0-0.3-1.5-1.5-4c-1.6-3.5-4.4-6.3-7.9-8.1c-5.2-2.4-11.2-1.9-16,1.2c-2.7,2-4.9,4.6-6.6,7.5
			c-1.1,1.6-2.3,3-3.7,4.3c-1.6,1.4-3.6,2.1-5.7,2.1c-4-0.5-7.5-2.7-9.9-5.9c-1.9-2.8-4.3-5.2-7-7.3c-2.6-1.5-5.6-2.1-8.5-1.5
			c-2.6,0.4-5.1,1.5-7.2,3c-3.1,2.4-5.6,5.3-7.6,8.7c-0.7,1.3-1.4,2.5-2.3,3.7c0.4-1.4,0.9-2.8,1.7-4c1.8-3.6,4.3-6.8,7.4-9.4
			c2.3-1.7,4.9-2.8,7.7-3.3c3.3-0.7,6.7-0.1,9.6,1.6c2.8,2.1,5.3,4.6,7.4,7.5c2,2.9,5.1,4.8,8.6,5.3c3.5,0,6.1-2.9,8.1-5.7
			c1.8-3,4.3-5.7,7.1-7.8c7.8-5.3,18.4-3.2,23.6,4.6c0.7,1.1,1.3,2.2,1.8,3.4c0.4,1.1,0.7,2.2,0.8,3.3
			C558.3,612.5,558.3,612.9,558.1,612.9z"/>
		<path class="st15" d="M583.4,493.7c-2.9-1.8-6.1-3.2-9.5-4.2c-3.6-0.9-7.4-1.1-11-0.6c-4.5,0.5-8.8,2.2-12.5,4.9
			c-3.6,2.7-6.4,6.4-7.9,10.7c-1.2,3.5-1.6,7.2-1.2,10.9c0.6,3.4,1.8,6.7,3.5,9.7c0,0-0.8-0.7-1.8-2.2c-1.4-2.2-2.4-4.7-2.9-7.3
			c-1.4-8.8,2.1-17.6,9.3-23c3.9-2.8,8.4-4.5,13.1-5c3.9-0.5,7.8-0.1,11.6,1c2.5,0.7,4.9,1.8,7,3.3
			C582.8,493,583.5,493.7,583.4,493.7z"/>
	</g>
	<g>
		<path d="M581.6,17.3c-7.3-0.5-18.8,10.6-25.6,13.9c-9.8,4.8-20.2,8.2-31.2,7.9c-4.6-0.2-9.3-0.9-14.1-0.8
			c-10.5,0.4-16.2,8.3-23.8,14.3c-9.4,7.3-14.8,14.2-14,25.9c-10.4-3.6-23.7,11.2-26.8,23.7s0.5,23.9,6,35.6
			c9.3,20,22.5,38.1,38.8,53c1.4,1.3,3.5,2.6,5.1,1.5c0.9-0.9,1.4-2.3,1.1-3.7c-0.3-11.5-4-22.7-7.1-33.7c-3.2-11.1-5.8-22.6-4.4-34
			c1.5-11.5,8-22.8,18.6-27.2c7.8-3.3,16.9-2.3,25,0.4c8.1,2.6,15.5,6.8,23.4,10.1s16.4,5.7,24.8,4.4c8.4-1.3,18.1-26.2,20.1-34.5
			c2-8.3-5.4,1.1-14,0.9c8.8-2.6,13.8-24.5,11.3-33.3c-1.9-6.5-4.2-6.7-11-7.3C583,34.3,581.9,19.1,581.6,17.3z"/>
		<g>
			<path class="st1" d="M581.3,245.2l-5.9-23.8c0,0,30.6-12.2,23.6-44.1c-3.4-15.3-12.9-46.5-21.9-74.5c-9.6-30.2-40.8-48-71.6-40.8
				l-3,0.7c-32.5,9.7-42.5,42.7-32.1,75.1l32.8,127.4c5.6,21.3,27.4,34.3,48.9,28.8l0,0C573.5,288.5,586.5,266.8,581.3,245.2z"/>
			<g>
				<g>
					<path d="M581.3,259.4c-0.8,6.6-3.5,12.9-7.4,18.2c-0.4,0.7-1,1.3-1.5,1.9c-0.6,0.6-1,1.3-1.6,1.9c-1.2,1.1-2.3,2.3-3.6,3.3
						c-2.5,2.1-5.4,3.8-8.3,5.2c-6,2.6-12.6,3.9-19.1,3.4c-6.5-0.6-12.8-2.6-18.2-6.3c-0.7-0.5-1.4-0.9-2-1.4l-1.9-1.5
						c-0.3-0.3-0.6-0.5-0.9-0.8l-0.9-0.9l-1.7-1.7l-1.5-1.9l-0.8-0.9l-0.7-1l-1.4-2l-1.2-2.1l-0.6-1.1c-0.2-0.4-0.3-0.7-0.5-1.1
						l-0.9-2.2c-0.3-0.7-0.5-1.5-0.7-2.3c-0.2-0.8-0.5-1.5-0.7-2.3l-2.5-9.9c-3.3-13.2-6.6-26.5-10-39.7
						c-3.4-13.2-6.7-26.5-10.1-39.7l-5.1-19.9l-2.6-9.9l-1.3-5l-0.6-2.5c-0.2-0.8-0.5-1.6-0.7-2.4c-0.9-3.2-1.7-6.4-2.3-9.7
						c-0.5-3.3-0.9-6.5-1-9.8c-0.2-6.6,0.5-13.1,2.4-19.3c1.9-6.2,5-12,9.2-16.9c4.2-4.9,9.5-8.8,15.4-11.5c2.2-1,4.5-1.8,6.7-2.6
						c1.2-0.3,2.4-0.6,3.6-0.8l3.6-0.7c0.6-0.1,1.2-0.3,1.8-0.3l1.8-0.2c1.2-0.1,2.4-0.3,3.6-0.3l3.7,0c0.6,0,1.2,0,1.8,0l1.8,0.2
						c1.2,0.1,2.4,0.2,3.7,0.4l3.6,0.7c1.2,0.2,2.4,0.5,3.6,0.9c1.2,0.4,2.4,0.6,3.5,1.1c2.3,0.9,4.6,1.7,6.8,2.9l1.7,0.8l0.8,0.4
						l0.8,0.5l3.2,1.9c4,2.8,8,5.9,11.2,9.6l1.3,1.4c0.4,0.4,0.8,1,1.2,1.5l2.3,3c0.7,1,1.3,2.1,2,3.1l1,1.6
						c0.3,0.5,0.6,1.1,0.8,1.7l1.7,3.3c0.5,1.1,0.9,2.3,1.4,3.5c0.9,2.3,1.7,4.7,2.4,7.1c1.6,4.8,3.1,9.6,4.6,14.5
						c3.2,9.8,6.3,19.7,9.2,29.6c1.5,4.9,2.9,9.9,4.3,14.9c0.7,2.5,1.3,5,2,7.5c0.6,2.5,1.2,5,1.5,7.5c1.1,7.8-0.4,16-4.6,22.7
						c-2.1,3.4-4.7,6.4-7.7,9c-3,2.6-6.3,4.9-9.9,6.7c-0.6,0.3-1.1,0.6-1.7,0.8c0.1,0.9,0.5,2,0.7,2.9l0.7,2.8l1.5,5.6l2.9,11.2
						l0.4,1.5l-4.3-18l-0.7-3l-0.3-1.4l-0.2-0.7l-0.1-0.3l0-0.2c0,0-0.1-0.1,0-0.1c0.8-0.3,1.4-0.6,2.2-1c0.8-0.4,1.5-0.8,2.3-1.3
						c1.5-0.9,3-1.8,4.4-2.9c2.8-2.1,5.4-4.5,7.7-7.2c2.3-2.7,4.1-5.7,5.6-9c1.4-3.2,2.3-6.7,2.6-10.2c0.6-5.5-0.3-11.2-1.6-16.5
						c-1.3-5.3-2.6-10.6-4.1-15.9c-2.9-10.6-5.9-21.1-9.1-31.5l-5.2-17.2l-1.3-4.3l-0.7-2.1l-0.8-2.2L577,98
						c-0.3-0.7-0.5-1.5-0.9-2.1l-2-4.2c-2.9-5.4-6.5-10.4-10.8-14.9c-4.3-4.4-9.3-8.1-14.8-11.1c-6.2-3.4-13-5.7-20.1-6.9
						c-7-1.1-14.3-1-21.3,0.4c-0.9,0.2-1.8,0.3-2.6,0.5l-2.6,0.6c-1.7,0.5-3.5,1.1-5.2,1.7c-3.3,1.3-6.6,2.9-9.6,4.8
						c-6.1,3.9-11.3,9.2-15.2,15.4c-3.8,6.2-6.3,13.1-7.5,20.2c-1.2,7.1-1.2,14.3-0.2,21.4c0.5,3.5,1.2,7,2.1,10.5
						c0.4,1.7,1,3.3,1.4,5l1.3,5l5.1,20c6.9,26.7,13.8,53.3,20.8,79.9l5.3,20c0.4,1.6,1,3.4,1.6,5.2c0.3,0.9,0.7,1.7,1,2.5
						c0.4,0.8,0.7,1.7,1.2,2.5c0.9,1.6,1.7,3.2,2.8,4.7c0.5,0.7,1,1.5,1.6,2.2l1.8,2.1c0.6,0.7,1.3,1.3,1.9,2c0.7,0.6,1.3,1.3,2,1.9
						c1.4,1.1,2.8,2.3,4.4,3.2c3,2.1,6.4,3.5,9.8,4.8c6.9,2.2,14.4,2.9,21.4,1.4c0.9-0.2,2.8-0.5,5.2-1.3c0.6-0.2,1.2-0.4,1.9-0.6
						c0.7-0.3,1.3-0.6,2.1-0.9c1.5-0.6,2.9-1.4,4.5-2.3c6.2-3.6,12.6-10.1,16.1-17.7c3.6-7.5,4.5-15.7,3.8-21.1
						c-0.2-1.4-0.4-2.6-0.6-3.6c-0.3-1-0.5-1.8-0.7-2.5c-0.4-1.2-0.7-1.7-0.8-1c-0.1,0.4,0,1.2,0.1,2.4c0,0.6,0.2,1.2,0.2,1.9
						c0,0.7,0.1,1.4,0.1,2.1C581.8,254.8,581.5,257.9,581.3,259.4z"/>
				</g>
			</g>
		</g>
		<path class="st16" d="M572.9,220c-14.7,3.7-30,2.9-44.2-2.1c0,0,15.1,20.5,46.1,10.3L572.9,220z"/>
		<path d="M525.6,114.6c-0.2,1.4-5.2,2-10.8,3.9c-5.6,2-9.9,4.7-10.9,3.6c-0.5-0.5,0-1.8,1.6-3.6c4.3-4.4,10.4-6.6,16.4-5.8
			C524.3,113,525.6,113.8,525.6,114.6z"/>
		<path d="M568.9,106c-0.7,1.3-4.3,0.9-8.3,1.8c-4.1,0.9-7.4,2.4-8.4,1.5c-0.5-0.5-0.2-1.7,1-3.1c3.5-3.6,8.8-4.7,13.4-2.7
			C568.4,104.4,569,105.3,568.9,106z"/>
		<g>
			<path class="st1" d="M479.4,160.9c-0.7-0.2-23.4-1.4-17.7,20.2c5.7,21.5,26.3,11.3,26.1,10.7"/>
			<g>
				<g>
					<path d="M486.4,192.2c-2.7,1-5.7,1.5-8.6,1.5c-2.9,0-5.6-0.8-7.9-2.3c-2.3-1.5-4-3.8-5.2-6.3c-1.2-2.6-2-5.4-2.5-8.2
						c-0.3-2.1-0.4-4.2,0.1-6.3c0.2-1,0.6-2,1.2-2.9c0.5-0.9,1.2-1.7,2.1-2.4c1.6-1.5,3.6-2.5,5.8-3.2c1.7-0.5,3.4-0.9,5.2-1.1
						c0.9-0.1,1.8-0.2,2.7-0.1l0.2,0c-0.7-0.1-1.4-0.1-2.1-0.1c-1.8,0-3.6,0.1-5.3,0.4c-2.4,0.5-4.8,1.3-6.9,2.7
						c-2.3,1.6-4.1,4.1-4.8,6.8c-0.4,1.6-0.6,3.2-0.6,4.8c0.1,1.6,0.2,3.2,0.6,4.8c0.6,3.1,1.7,6.2,3.6,8.9c1.8,2.7,4.7,5,7.9,5.9
						c3.2,1,6.6,0.9,9.7,0.1c0.4-0.1,2.4-0.6,4-1.4c0.8-0.4,1.6-0.9,2.1-1.3c0.2-0.2,0.4-0.4,0.5-0.6c0-0.1,0-0.2,0-0.3
						c-0.1,0-0.1,0-0.1,0C487.6,191.6,486.7,192.1,486.4,192.2z"/>
				</g>
			</g>
		</g>
		<path d="M480.8,184.9c-0.1,0-0.3,0.3-0.8,0.8c-0.9,0.6-1.8,0.9-2.8,0.8c-2.6-0.2-5.4-3.2-6.6-7.1c-0.5-1.8-0.6-3.7-0.4-5.6
			c0.1-1.5,0.8-2.9,2-3.7c0.7-0.5,1.8-0.3,2.5,0.4c0.5,0.5,0.5,1,0.6,1c0.1,0,0.4-0.5,0-1.4c-0.2-0.6-0.7-1-1.2-1.1
			c-0.7-0.3-1.5-0.3-2.2,0c-1.6,0.8-2.8,2.5-3,4.4c-0.3,2.1-0.2,4.3,0.3,6.3c1.3,4.2,4.5,7.7,7.9,7.8c1.3,0,2.5-0.5,3.3-1.5
			C481,185.1,481,184.7,480.8,184.9z"/>
		<path d="M582.2,94.3c-13.4,7-29.3,7.1-42.9,0.3c-9.2-4.8-16.3-3.5-26.8-4.2c-7.1-0.3-13.9,2.4-19.1,7.3c-5,4.9-10,1.4-12.8,8
			c9.9,14.7,9.9,33.8,9.7,51.5c0.2,1.9-0.2,3.8-1.2,5.6c-2.1,2.5-6.4,1.9-9.1,0.1c-4.5-2.9-7-7.8-9.1-12.7
			c-5-11.1-7.8-23.2-8.1-35.4c-0.2-12.3,3.1-24.3,9.6-34.6c8.5-12.7,21.8-21.5,36.8-24.7c14.9-2.9,30.6-1.1,44.4,5.2
			c6.6,2.6,12.4,6.8,16.9,12.2"/>
		<g>
			<path class="st17" d="M545.4,145.8l-5.9-22.2c-0.8-2.8-3.6-4.5-6.4-3.7l-33.5,8.9c-2.8,0.8-4.5,3.6-3.7,6.4l5.9,22.2
				c0.8,2.8,3.6,4.5,6.4,3.7l33.5-8.9C544.5,151.5,546.2,148.6,545.4,145.8z"/>
			<path class="st17" d="M601.6,131.2l-5.9-22.2c-0.8-2.8-3.6-4.5-6.4-3.7l-33.5,8.9c-2.8,0.8-4.5,3.6-3.7,6.4l5.9,22.2
				c0.8,2.8,3.6,4.5,6.4,3.7l33.5-8.9C600.8,136.8,602.4,134,601.6,131.2z"/>
			<line class="st17" x1="498.8" y1="146" x2="468.7" y2="161.8"/>
			<line class="st17" x1="597.9" y1="116.6" x2="583.8" y2="123.8"/>
			<line class="st17" x1="553.4" y1="124.8" x2="540.7" y2="128.2"/>
		</g>
		<path d="M552.8,191.1c-2.4-0.7-4.7-2-6.7-4.1c-0.6-0.6-0.8-1.4-0.8-2.1c0-0.8,0.4-1.5,1-2.1s1.3-0.8,2.1-0.8c0.7,0,1.3,0.3,2,1.1
			l0.1,0.1c1,1,2.3,1.9,3.7,2.5c1.4,0.5,3,0.7,4.4,0.3c2.8-0.7,4.7-2.5,6.5-4.8c0.2-0.3,0.5-0.5,0.7-0.9c0.2-0.3,0.4-0.5,0.6-0.5
			c0.2-0.1,0.6-0.2,0.9-0.1c0.2,0.1,0.5,0.3,0.7,0.5s0.3,0.5,0.3,0.9c0.1,2.2-0.9,4.4-2.3,6c-1.5,1.9-3.8,3.4-6,4
			C557.7,191.9,555.2,191.8,552.8,191.1L552.8,191.1z"/>
		<path d="M557.7,156.4c2.8,1.3,7.2,4.6,4.8,8.9c-2.9,3.9-8.1,0.4-10.7-1.1c-2.3-1.1-4.4,2.8-2.2,4.2c18.5,10.8,22.9-13.1,9.3-13.9
			C557.2,154.4,556.9,156.1,557.7,156.4z"/>
		<path id="Fill-21_1_" d="M521.5,148.9c3.9,0.9,6.2-2.7,6.6-6.2c0.6-4.7-2.5-8.5-5.9-11.3c-2.2,2.7,2.7,6.2,1.2,9.1
			c-1.9,3.2-3.9-0.5-5.2-2c-2-2-5.2-5.2-5.1-0.7C512.5,142.1,516.9,147.4,521.5,148.9"/>
		<path id="Fill-21_2_" d="M571.8,133.4c3.2,0.7,5.2-2.2,5.5-5.1c0.5-3.9-2-7.1-4.9-9.4c-1.8,2.2,2.2,5.2,1,7.6
			c-1.6,2.7-3.3-0.4-4.3-1.7c-1.7-1.7-4.3-4.3-4.2-0.6C564.4,127.8,568,132.2,571.8,133.4"/>
	</g>
</g>
</svg>
