<?xml version="1.0" encoding="utf-8"?>
<!-- Generator: Adobe Illustrator 25.0.1, SVG Export Plug-In . SVG Version: 6.00 Build 0)  -->
<svg version="1.1" id="Layer_1" xmlns="http://www.w3.org/2000/svg" xmlns:xlink="http://www.w3.org/1999/xlink" x="0px" y="0px"
	 viewBox="0 0 1024 768" style="enable-background:new 0 0 1024 768;" xml:space="preserve">
<style type="text/css">
	.st0{fill:#EBEBEB;}
	.st1{fill:#FFFFFF;}
	.st2{fill:#DBDBDB;}
	.st3{fill:#C7C7C7;}
	.st4{fill:#FF725E;}
	.st5{fill:#263238;}
	.st6{opacity:0.8;}
	.st7{fill:#F5F5F5;}
	.st8{opacity:0.5;}
	.st9{opacity:0.6;}
	.st10{opacity:0.7;}
	.st11{opacity:0.3;}
	.st12{opacity:0.4;}
	.st13{fill:#455A64;}
	.st14{opacity:0.3;enable-background:new    ;}
	.st15{opacity:0.2;}
	.st16{fill:#FAFAFA;}
	.st17{fill:#FFBE9D;}
	.st18{fill:#EB996E;}
	.st19{fill:none;stroke:#000000;stroke-width:4;stroke-miterlimit:10;}
	.st20{fill:#FF9ABB;}
	.st21{fill:#F99026;}
	.st22{fill:#37474F;}
	.st23{fill:#E0E0E0;}
	.st24{font-family:'HelveticaNeue-Bold';}
	.st25{font-size:35.9095px;}
</style>
<g>
	<g id="freepik--background-complete--inject-13">
		<path class="st0" d="M118.2,496.6c0-3.1-0.2-6.2-0.2-9.3l0.5,0.5c-7.4,0-14.8,0.3-22.2,0.3L74,488.2l0.8-0.8v18.8l-0.7-0.7
			c3.7,0,7.3,0,11,0.1l11,0.2l22.4,0.5L118.2,496.6z M96.5,506.6l-11.2,0.2c-3.7,0.1-7.5,0-11.2,0.1h-0.8v-0.7v-18.8v-0.8h0.8
			l22.2,0.1c7.4,0,14.8,0.2,22.2,0.3h0.4v0.5c0,3.2-0.1,6.4-0.2,9.5l-0.2,9.3L96.5,506.6z"/>
		<path class="st0" d="M93.5,520.2c-0.1-3.1-0.2-6.2-0.2-9.3l0.5,0.5c-7.4,0.1-14.8,0.3-22.2,0.3l-22.2,0.1l0.8-0.8L50,529.7
			l-0.7-0.7c3.7,0,7.3,0,11,0.1l11,0.2l22.4,0.5L93.5,520.2z M71.6,530.3l-11.2,0.2c-3.7,0.1-7.5,0-11.2,0.1h-0.7v-0.7V511v-0.8h0.8
			l22.2,0.1c7.4,0,14.8,0.2,22.2,0.3h0.5v0.5c0,3.3-0.1,6.4-0.2,9.5l-0.2,9.3L71.6,530.3z"/>
		<path class="st0" d="M143,520.2c0-3.1-0.2-6.2-0.2-9.3l0.5,0.5c-7.4,0.1-14.8,0.3-22.2,0.3l-22.2,0.1l0.8-0.8l-0.1,18.8l-0.7-0.7
			c3.7,0,7.3,0,11,0.1l11.1,0.2l22.4,0.5L143,520.2z M121.2,530.2l-11.2,0.2c-3.7,0.1-7.5,0-11.2,0.1h-0.7v-0.7L98,510.9v-0.8h0.8
			l22.2,0.1c7.4,0,14.8,0.2,22.2,0.3h0.5v0.5c0,3.3-0.1,6.4-0.2,9.5l-0.2,9.3L121.2,530.2z"/>
		<path class="st0" d="M950.1,378.1c0-3.1-0.2-6.2-0.2-9.3l0.5,0.5c-7.4,0-14.8,0.3-22.2,0.3l-22.2,0.1l0.8-0.8v18.8l-0.7-0.7
			c3.7,0,7.3,0,11,0.1l11,0.2l22.4,0.5L950.1,378.1z M928.3,388.1l-11.2,0.2c-3.7,0.1-7.5,0-11.2,0.1h-0.8v-0.7v-18.8V368h0.8
			l22.2,0.1c7.4,0,14.8,0.2,22.2,0.3h0.4v0.5c0,3.2-0.1,6.4-0.2,9.5l-0.2,9.3L928.3,388.1z"/>
		<path class="st0" d="M925.3,401.7c-0.1-3.1-0.2-6.2-0.2-9.3l0.5,0.5c-7.4,0.1-14.8,0.3-22.2,0.3l-22.2,0.1l0.8-0.8l-0.1,18.8
			l-0.7-0.7c3.7,0,7.3,0,11,0.1l11,0.2l22.4,0.5L925.3,401.7z M903.4,411.8l-11.2,0.2c-3.7,0.1-7.5,0-11.2,0.1h-0.7v-0.7v-18.8v-0.8
			h0.8l22.2,0.1c7.4,0,14.8,0.2,22.2,0.3h0.5v0.5c0,3.3-0.1,6.4-0.2,9.5l-0.2,9.3L903.4,411.8z"/>
		<path class="st0" d="M974.8,401.7c0-3.1-0.2-6.2-0.2-9.3l0.5,0.5c-7.4,0.1-14.8,0.3-22.2,0.3l-22.2,0.1l0.8-0.8l-0.1,18.8
			l-0.7-0.7c3.7,0,7.3,0,11,0.1l11.1,0.2l22.4,0.5L974.8,401.7z M953.1,411.7l-11.2,0.2c-3.7,0.1-7.5,0-11.2,0.1H930v-0.7l-0.1-18.8
			v-0.8h0.8l22.2,0.1c7.4,0,14.8,0.2,22.2,0.3h0.5v0.5c0,3.3-0.1,6.4-0.2,9.5l-0.2,9.3L953.1,411.7z"/>
		<path class="st0" d="M805.9,561.6c-0.1-3.1-0.2-6.2-0.2-9.3l0.5,0.5c-7.4,0.1-14.8,0.3-22.2,0.3l-22.2,0.1l0.8-0.8l-0.1,18.8
			l-0.7-0.7c3.7,0,7.3,0,11,0.1l11.1,0.2l22.4,0.5L805.9,561.6z M784.1,571.6l-11.2,0.2c-3.7,0.1-7.5,0-11.2,0.1h-0.8v-0.7v-18.7
			v-0.8h0.8l22.2,0.1c7.4,0,14.8,0.2,22.2,0.3h0.4v0.5c0,3.3-0.1,6.4-0.2,9.5l-0.2,9.3L784.1,571.6z"/>
		<path class="st0" d="M880,62.5c-0.1-3.1-0.2-6.2-0.2-9.3l0.5,0.5c-7.4,0-14.8,0.3-22.2,0.3h-22.3l0.8-0.8L836.5,72l-0.7-0.7
			c3.7,0,7.3,0,11,0.1l11.1,0.2l22.4,0.5L880,62.5z M858.2,72.4L847,72.6c-3.7,0-7.5,0-11.2,0.1H835V72V53.2v-0.8h0.8l22.2,0.1
			c7.4,0,14.8,0.2,22.2,0.3h0.4v0.5c0,3.2-0.1,6.4-0.2,9.5l-0.2,9.3L858.2,72.4z"/>
		<path class="st0" d="M904.8,86.1c-0.1-3.1-0.2-6.2-0.2-9.3l0.5,0.5c-7.4,0-14.8,0.3-22.2,0.3l-22.2,0.1l0.8-0.8l-0.1,18.8
			l-0.7-0.7c3.7,0,7.3,0,11,0.1l11,0.2l22.4,0.5L904.8,86.1z M883,96.1l-11.2,0.2c-3.7,0-7.5,0-11.2,0h-0.7v-0.8l-0.1-18.8v-0.8h0.8
			l22.2,0.1c7.4,0,14.8,0.2,22.2,0.3h0.5v0.4c0,3.3-0.1,6.4-0.2,9.5l-0.2,9.3L883,96.1z"/>
		<path class="st0" d="M130.6,54.4c-0.1-3.1-0.2-6.2-0.2-9.3l0.5,0.5c-7.4,0-14.8,0.3-22.2,0.3L86.5,46l0.8-0.8L87.2,64l-0.7-0.7
			c3.7,0,7.3,0,11,0.1l11,0.2l22.4,0.5L130.6,54.4z M108.7,64.3l-11.2,0.2c-3.7,0-7.5,0-11.2,0.1h-0.7v-0.7V45.1v-0.8h0.8l22.2,0.1
			c7.4,0,14.8,0.2,22.2,0.3h0.5v0.5c0,3.3-0.1,6.4-0.2,9.5l-0.2,9.3L108.7,64.3z"/>
		<path class="st0" d="M459.3,294.8c0.1,3.1,0.2,6.2,0.2,9.3l-0.5-0.5c7.4-0.1,14.8-0.3,22.2-0.3l22.2-0.1l-0.8,0.8l0.1-18.8
			l0.7,0.7c-3.7,0-7.3,0-11-0.1l-11.1-0.2l-22.4-0.5L459.3,294.8z M481.1,284.9l11.2-0.2c3.7,0,7.5,0,11.2-0.1h0.7v0.7l0.1,18.8v0.8
			h-0.8l-22.2-0.1c-7.4,0-14.8-0.2-22.2-0.3h-0.5V304c0-3.3,0.1-6.4,0.2-9.5l0.2-9.3L481.1,284.9z"/>
		<path class="st0" d="M484,271.2c0,3.1,0.2,6.2,0.2,9.3l-0.5-0.5c7.4-0.1,14.8-0.3,22.2-0.3l22.2-0.1l-0.8,0.8l0.1-18.8l0.7,0.7
			c-3.7,0-7.3,0-11-0.1l-11-0.2l-22.4-0.5L484,271.2z M505.8,261.2L517,261c3.7-0.1,7.5,0,11.2-0.1h0.7v0.7l0.1,18.8v0.8h-0.8H506
			c-7.4,0-14.8-0.2-22.2-0.3h-0.5v-0.4c0-3.3,0.1-6.4,0.2-9.5l0.2-9.4L505.8,261.2z"/>
		<path class="st0" d="M244.1,215.1c-2.8,1.7-5.8,2.9-9,3.6c-16.7,3.9-33.3-6.5-37.2-23.2s6.5-33.3,23.2-37.2s33.3,6.5,37.2,23.2
			C261.3,194.7,255.6,208.2,244.1,215.1z"/>
		<path class="st1" d="M237.6,185.2c-0.1,5.2-4.3,9.4-9.5,9.3c-5.2-0.1-9.4-4.3-9.3-9.5c0.1-5.2,4.3-9.4,9.5-9.3
			C233.5,175.7,237.7,180,237.6,185.2L237.6,185.2z"/>
		<path class="st1" d="M244.2,211.3v3.9c-2.8,1.7-5.8,2.9-9,3.6c-8.1,1.9-16.6,0.4-23.6-4v-3.9c0.1-9,7.5-16.2,16.5-16.1
			S244.3,202.2,244.2,211.3L244.2,211.3z"/>
		<polygon class="st0" points="605.4,233.5 611.5,245.7 624.9,247.7 615.2,257.1 617.5,270.5 605.4,264.2 593.4,270.5 595.7,257.1 
			586,247.7 599.4,245.7 		"/>
		<g id="freepik--aiZGp2--inject-13">
			<path class="st0" d="M759.2,160.5c-2.1,5.3-3.3,10.9-3.7,16.7h-14.7v-0.4c0-0.4,0.1-0.7,0.1-1.1c0.2-2,0.5-3.9,1-5.8
				c0.8-3.1,1.8-6.2,3.3-9.1c0.1-0.1,0.2-0.2,0.4-0.2C745.6,160.5,759.2,160.5,759.2,160.5z"/>
			<path class="st0" d="M758.8,197.7h-13.6c-0.1,0-0.3-0.1-0.3-0.2c-1.6-3.3-2.7-6.7-3.4-10.3c-0.3-1.7-0.6-3.4-0.7-5.2
				c0,0,0-0.1,0-0.2v-0.4h14.5c0.3,0,0.2,0,0.3,0.3c0.1,1.2,0.2,2.4,0.3,3.6c0.2,1.9,0.5,3.7,0.9,5.6c0.5,2.3,1.1,4.5,1.9,6.6
				C758.7,197.5,758.7,197.6,758.8,197.7z"/>
			<path class="st0" d="M815.8,202c0,0.1-0.1,0.1-0.1,0.2c-1.1,1.8-2.4,3.4-3.8,5c-1.7,1.9-3.6,3.6-5.6,5.2c-2,1.5-4.2,2.8-6.4,4
				c-2.2,1.1-4.4,2-6.8,2.6c-1.9,0.5-3.7,0.9-5.6,1.2l-0.6,0.1h-0.3l-0.3-0.2l0.4-0.2c4.1-2.8,7.8-6.3,10.7-10.4
				c1.7-2.3,3.1-4.7,4.4-7.3c0-0.1,0.2-0.2,0.3-0.2L815.8,202L815.8,202z"/>
			<path class="st0" d="M802.2,177.1h-19v-16.6H798c0.1,0,0.3,0.1,0.3,0.2c1.4,3.1,2.4,6.4,3,9.8c0.3,1.7,0.6,3.5,0.7,5.3
				C802.1,176.2,802.2,176.6,802.2,177.1z"/>
			<path class="st0" d="M802.1,181.6c0,0.4,0,0.8,0,1.2c-0.1,0.9-0.2,1.8-0.3,2.8c-0.2,1.3-0.4,2.5-0.6,3.8
				c-0.6,2.8-1.4,5.5-2.5,8.2c0,0.2-0.2,0.3-0.4,0.2H783v-16.1L802.1,181.6z"/>
			<path class="st0" d="M778.8,160.6v16.7h-18.6c0-0.4,0-0.8,0.1-1.3c0.1-0.9,0.2-1.9,0.3-2.8c0.2-1.4,0.5-2.8,0.8-4.2
				c0.6-2.8,1.5-5.5,2.7-8.2c0.1-0.1,0.2-0.2,0.3-0.2H778.8L778.8,160.6z"/>
			<path class="st0" d="M778.9,181.8v15.9H764c-0.1,0-0.3-0.1-0.3-0.2c-1.1-2.7-2-5.5-2.5-8.4c-0.3-1.5-0.5-3-0.7-4.5
				c-0.1-1-0.1-2-0.2-2.9v-0.1h18.4C778.8,181.5,778.9,181.6,778.9,181.8z"/>
			<path class="st0" d="M822.4,177.2h-15.6c-0.3-5.8-1.5-11.4-3.6-16.8h14.5c0.1,0,0.3,0.1,0.3,0.2c1.7,3.3,2.9,6.8,3.6,10.4
				c0.4,1.9,0.6,3.9,0.7,5.9L822.4,177.2z"/>
			<path class="st0" d="M822.4,181.4v1.1c-0.1,1.4-0.3,2.8-0.5,4.2c-0.6,3.2-1.5,6.4-2.9,9.4c-0.2,0.5-0.4,1-0.7,1.5
				c0,0.1-0.1,0.2-0.2,0.1h-14.5c0.2-0.5,0.3-1,0.5-1.5c0.8-2.5,1.5-5,1.9-7.6c0.3-1.9,0.6-3.8,0.7-5.7c0-0.5,0-0.9,0.1-1.4
				c0-0.1,0-0.2,0.2-0.2L822.4,181.4L822.4,181.4z"/>
			<path class="st0" d="M815.3,156.2L815.3,156.2h-13.9c-0.1,0-0.3-0.1-0.3-0.2c-1.8-3.6-4.1-7-6.8-10c-1.6-1.8-3.3-3.4-5.2-4.8
				c-0.9-0.7-1.9-1.4-2.8-2.1l-0.2-0.1l0.2-0.1c0,0,0-0.2-0.1-0.3c4.8,0.6,9.5,2,13.7,4.2C806.2,145.9,811.5,150.5,815.3,156.2z"/>
			<path class="st0" d="M776.2,220.1c-0.1,0-0.3,0-0.4,0c-1.5-0.2-3-0.5-4.5-0.9c-2.7-0.7-5.4-1.7-7.9-2.9c-2.9-1.4-5.6-3.2-8.1-5.3
				c-1.8-1.5-3.4-3.1-4.9-4.9c-1.1-1.3-2.1-2.7-3-4.2v-0.1h12.9c0.1,0,0.3,0.1,0.3,0.2c1.3,2.7,2.9,5.2,4.7,7.6
				c1.7,2.2,3.5,4.2,5.5,6c1.6,1.6,3.4,3,5.3,4.2L776.2,220.1z"/>
			<path class="st0" d="M776.1,139.1c-0.6,0.4-1.3,0.9-1.9,1.4c-2.2,1.7-4.3,3.6-6.2,5.7c-2.6,2.8-4.8,5.9-6.5,9.2
				c-0.1,0.2-0.2,0.4-0.3,0.6c0,0.1-0.1,0.1-0.2,0.1c-0.2,0-0.5,0-0.7,0h-12.4c6.5-9.5,16.6-15.9,28-17.4l-0.1,0.1L776.1,139.1z"/>
			<path class="st0" d="M796.5,202c-1.8,3.1-3.9,5.9-6.3,8.5c-2.1,2.3-4.6,4.4-7.2,6.1V202H796.5z"/>
			<path class="st0" d="M778.8,202v14.3c-5.4-3.7-9.8-8.6-12.9-14.3H778.8z"/>
			<path class="st0" d="M796.1,156.2h-12.9v-13.6c2.7,1.7,5.1,3.8,7.3,6.1C792.6,150.9,794.5,153.5,796.1,156.2z"/>
			<path class="st0" d="M778.8,143v13.3h-12.4C769.4,150.9,773.7,146.4,778.8,143z"/>
		</g>
		<path class="st2" d="M410.8,507.7c-2.9,19.3-20.8,32.6-40.1,29.7c-19.3-2.9-32.6-20.8-29.7-40.1c2.6-17.3,17.4-30.1,34.9-30.1
			v35.3L410.8,507.7z"/>
		<path class="st0" d="M418.4,495.4c0,1.7-0.1,3.5-0.4,5.2l-34.9-5.2v-35.3C402.6,460.1,418.4,475.8,418.4,495.4
			C418.4,495.3,418.4,495.4,418.4,495.4L418.4,495.4z"/>
		<rect x="393.8" y="521.3" class="st3" width="37.5" height="1.6"/>
		<path class="st3" d="M434,525.6c-1.9,0-3.5-1.5-3.5-3.4s1.5-3.5,3.4-3.5s3.5,1.5,3.5,3.4l0,0C437.4,524,435.9,525.5,434,525.6
			L434,525.6z M434,520.3c-1,0-1.8,0.8-1.8,1.8s0.8,1.8,1.8,1.8s1.8-0.8,1.8-1.8l0,0C435.8,521.1,435,520.3,434,520.3L434,520.3z"/>
		<rect x="443.5" y="520.1" class="st3" width="29.1" height="1.3"/>
		<rect x="443.5" y="522.8" class="st3" width="16.5" height="1.3"/>
		<rect x="229.3" y="380.3" class="st0" width="7.5" height="53"/>
		<rect x="242.2" y="393.2" class="st0" width="7.5" height="40.2"/>
		<rect x="255" y="413.3" class="st0" width="7.5" height="20.1"/>
		<rect x="267.8" y="401.8" class="st0" width="7.5" height="31.6"/>
		<rect x="280.6" y="389.7" class="st0" width="7.5" height="43.6"/>
		<rect x="293.4" y="382.6" class="st0" width="7.5" height="50.7"/>
		<path class="st0" d="M225,373.6l0.1,14.9v14.9v29.9l-0.2-0.2c6.8,0,13.7,0,20.6,0H266h20.5l20.6,0.1l-20.6,0.1H266h-20.6
			c-6.9,0-13.7,0-20.6,0h-0.1v-0.2v-29.9v-14.9L225,373.6z"/>
		<path class="st0" d="M223.4,376.6c0.5-0.2,1.1-0.2,1.6-0.2c0.6,0,1.1,0.1,1.6,0.2c-0.5,0.1-1.1,0.2-1.6,0.2
			C224.5,376.8,223.9,376.7,223.4,376.6z"/>
		<path class="st0" d="M223.4,381.1c0.5-0.1,1.1-0.2,1.6-0.2c0.6,0,1.1,0.1,1.6,0.2c-0.5,0.2-1.1,0.2-1.6,0.2
			C224.5,381.4,223.9,381.3,223.4,381.1z"/>
		<path class="st0" d="M223.4,385.7c0.5-0.1,1.1-0.2,1.6-0.2c0.6,0,1.1,0.1,1.6,0.2c-0.5,0.1-1.1,0.2-1.6,0.2
			C224.5,385.9,223.9,385.8,223.4,385.7z"/>
		<path class="st0" d="M223.4,390.2c0.5-0.1,1.1-0.2,1.6-0.2c0.6,0,1.1,0.1,1.6,0.2c-0.5,0.1-1.1,0.2-1.6,0.2
			C224.5,390.4,223.9,390.4,223.4,390.2z"/>
		<path class="st0" d="M223.4,394.8c0.5-0.2,1.1-0.2,1.6-0.2c0.6,0,1.1,0.1,1.6,0.2c-0.5,0.1-1.1,0.2-1.6,0.2
			S223.9,394.9,223.4,394.8z"/>
		<path class="st0" d="M223.4,399.3c0.5-0.1,1.1-0.2,1.6-0.2s1.1,0.1,1.6,0.2c-0.5,0.2-1.1,0.2-1.6,0.2S223.9,399.5,223.4,399.3z"/>
		<path class="st0" d="M223.4,403.9c0.5-0.1,1.1-0.2,1.6-0.2c0.6,0,1.1,0.1,1.6,0.2c-0.5,0.1-1.1,0.2-1.6,0.2S223.9,404,223.4,403.9
			z"/>
		<path class="st0" d="M223.4,408.4c0.5-0.1,1.1-0.2,1.6-0.2c0.6,0,1.1,0.1,1.6,0.2c-0.5,0.1-1.1,0.2-1.6,0.2
			S223.9,408.5,223.4,408.4z"/>
		<path class="st0" d="M223.4,413c0.5-0.1,1.1-0.2,1.6-0.2c0.6,0,1.1,0.1,1.6,0.2c-0.5,0.1-1.1,0.2-1.6,0.2S223.9,413.1,223.4,413z"
			/>
		<path class="st0" d="M223.4,417.5c0.5-0.2,1.1-0.2,1.6-0.2c0.6,0,1.1,0.1,1.6,0.2c-0.5,0.1-1.1,0.2-1.6,0.2
			S223.9,417.6,223.4,417.5z"/>
		<path class="st0" d="M223.4,422c0.5-0.1,1.1-0.2,1.6-0.2c0.6,0,1.1,0.1,1.6,0.2c-0.5,0.2-1.1,0.2-1.6,0.2
			C224.5,422.3,223.9,422.2,223.4,422z"/>
		<path class="st0" d="M223.4,426.6c0.5-0.1,1.1-0.2,1.6-0.2c0.6,0,1.1,0.1,1.6,0.2c-0.5,0.1-1.1,0.2-1.6,0.2
			C224.5,426.8,223.9,426.7,223.4,426.6z"/>
	</g>
	<g id="freepik--Shadow--inject-13">
		<ellipse class="st0" cx="509.8" cy="698.2" rx="208.9" ry="50.1"/>
	</g>
	<g id="freepik--Book--inject-13">
		<polygon class="st4" points="457,672.5 646.9,647.1 726.6,703.6 539.3,741 		"/>
		<path class="st1" d="M468.5,673.1l75.4,63l175.5-34.9l-77.2-54.3c0,0-51.3,0.3-53.7,0.8c-2.4,0.4-25.8,6.9-25.8,6.9
			s-31.9,1.5-34.1,2C526.3,657,468.5,673.1,468.5,673.1z"/>
		<polygon class="st2" points="562.7,654.5 571.8,662.2 581,670.1 599.1,685.8 617.1,701.8 626.1,709.8 634.9,717.9 625.7,710.2 
			616.6,702.4 598.5,686.6 580.5,670.6 571.5,662.6 		"/>
		<path class="st2" d="M573.5,694.9c2.2-0.4,4.4-0.7,6.7-1c2.2-0.3,4.5-0.6,6.7-0.8s4.5-0.4,6.7-0.6c2.2-0.1,4.5-0.3,6.8-0.3
			c-2.2,0.4-4.5,0.7-6.7,1.1s-4.5,0.5-6.7,0.8c-2.2,0.2-4.5,0.4-6.7,0.6C578,694.7,575.8,694.8,573.5,694.9z"/>
		<path class="st2" d="M533.2,712.1c5.9-1.9,11.8-3.8,17.7-5.6s11.9-3.6,17.8-5.3c3-0.9,6-1.6,9-2.5c0.8-0.2,1.6-0.3,2.3-0.4
			l2.3-0.2l4.6-0.4c6.2-0.5,12.4-1,18.6-1.3c-6.1,0.8-12.3,1.5-18.5,2.2l-4.6,0.5c-1.5,0.1-3,0.3-4.5,0.7c-3,0.8-6,1.6-8.9,2.5
			l-17.9,5.1C545.1,708.9,539.1,710.5,533.2,712.1z"/>
		<path class="st2" d="M538.4,716.6c5.7-2,11.4-3.8,17.2-5.6s11.5-3.6,17.3-5.3c2.9-0.9,5.8-1.7,8.7-2.5c0.7-0.2,1.5-0.4,2.2-0.6
			c0.8-0.2,1.5-0.2,2.3-0.3l4.5-0.4c6-0.5,12-1,18-1.3c-6,0.8-11.9,1.5-17.9,2.2l-4.5,0.5c-0.7,0.1-1.5,0.2-2.2,0.3
			s-1.4,0.4-2.1,0.6l-8.7,2.5c-5.8,1.6-11.5,3.4-17.3,5.1C550,713.3,544.2,715,538.4,716.6z"/>
		<path class="st2" d="M543.7,720.4c5.8-1.7,11.6-3.3,17.4-4.9c5.8-1.6,11.7-3.1,17.5-4.6c2.9-0.7,5.8-1.5,8.8-2.1l9-1.3
			c6-0.8,12-1.6,17.9-2.4c-5.9,1.2-11.9,2.2-17.8,3.3l-8.9,1.5c-2.9,0.6-5.8,1.4-8.7,2.1c-5.9,1.4-11.7,3-17.6,4.4
			C555.5,717.7,549.6,719.1,543.7,720.4z"/>
		<path class="st2" d="M629.7,703.5c5.4-1.8,10.9-3.5,16.4-5c1.4-0.4,2.8-0.7,4.2-1.1c0.7-0.2,1.4-0.3,2.1-0.4l2.1-0.3l8.5-1.2
			c5.7-0.8,11.3-1.5,17-2.2s11.3-1.4,17-2.1c-5.6,0.9-11.3,1.8-16.9,2.7c-5.6,0.8-11.3,1.7-16.9,2.5l-8.5,1.2l-2.1,0.3
			c-0.7,0.1-1.4,0.3-2,0.5l-4.1,1C640.8,700.8,635.3,702.2,629.7,703.5z"/>
		<path class="st2" d="M624.7,698.4c5.3-1.5,10.7-2.8,16.1-4c2.7-0.6,5.4-1.2,8.2-1.6l8.2-1.2c5.5-0.8,10.9-1.5,16.4-2.3
			c5.5-0.7,10.9-1.4,16.4-2.1c-5.4,0.9-10.9,1.8-16.3,2.7c-5.4,0.9-10.9,1.7-16.3,2.5l-8.2,1.2c-1.4,0.2-2.7,0.5-4,0.8l-4.1,0.8
			C635.6,696.5,630.2,697.5,624.7,698.4z"/>
		<path class="st2" d="M619.8,693.9c5.3-1.5,10.6-2.8,16-3.9c2.7-0.6,5.3-1.2,8.2-1.6l8.2-0.9c5.4-0.6,10.9-1.2,16.3-1.8
			c5.4-0.6,10.9-1.1,16.4-1.6c-5.4,0.8-10.9,1.5-16.3,2.2s-10.9,1.4-16.3,2.1c-2.7,0.3-5.5,0.6-8.2,1l-8,1.6
			C630.7,692,625.3,693,619.8,693.9z"/>
		<path class="st2" d="M615.6,690.4c5.2-2,10.4-3.7,15.7-5.2c0.7-0.2,1.3-0.4,2-0.5c0.7-0.2,1.4-0.3,2.1-0.3l4.1-0.4l8.2-0.7
			c11-0.9,22-1.7,33-2.4c-11,1.2-21.9,2.2-32.9,3.3l-8.2,0.8l-4.1,0.4c-1.3,0.2-2.7,0.4-4,0.8C626.3,687.7,621,689.2,615.6,690.4z"
			/>
		<path class="st2" d="M611.1,686.4c5.2-2,10.4-3.7,15.7-5.2c0.7-0.2,1.3-0.4,2-0.5s1.4-0.3,2.1-0.3l4.1-0.4l8.2-0.7
			c11-0.9,22-1.7,33-2.4c-11,1.2-21.9,2.2-32.9,3.3l-8.2,0.8l-4.1,0.4c-1.3,0.2-2.7,0.4-4,0.8C621.7,683.5,616.4,685.1,611.1,686.4z
			"/>
		<path class="st2" d="M606.5,682.3c5.2-2,10.4-3.7,15.7-5.2c0.7-0.2,1.3-0.4,2-0.5c0.7-0.2,1.4-0.3,2.1-0.3l4.1-0.4l8.2-0.7
			c11-0.9,22-1.7,33-2.4c-11,1.2-21.9,2.2-32.9,3.3l-8.2,0.8l-4.1,0.4c-1.3,0.1-2.7,0.4-4,0.8C617.2,679.4,611.9,681,606.5,682.3z"
			/>
		<path class="st2" d="M601.9,678.1c5.2-2,10.4-3.7,15.7-5.2c0.7-0.2,1.3-0.3,2-0.5s1.4-0.3,2.1-0.3l4.1-0.4l8.2-0.7
			c11-0.9,22-1.7,33-2.4c-11,1.2-21.9,2.2-32.9,3.3l-8.2,0.8l-4.1,0.4c-1.3,0.2-2.7,0.4-4,0.8C612.5,675.3,607.3,676.9,601.9,678.1z
			"/>
		<path class="st2" d="M595.8,674.5c5.2-2,10.4-3.7,15.7-5.2c0.7-0.2,1.3-0.4,2-0.5c0.7-0.2,1.4-0.3,2.1-0.3l4.1-0.4l8.2-0.7
			c11-0.9,22-1.7,33-2.4c-11,1.2-21.9,2.2-32.9,3.3l-8.2,0.7l-4.1,0.4c-1.3,0.2-2.7,0.4-4,0.8C606.5,671.7,601.2,673.3,595.8,674.5z
			"/>
		<path class="st2" d="M589.8,671c5.2-2,10.4-3.7,15.7-5.2c0.7-0.2,1.3-0.4,2-0.5s1.4-0.3,2.1-0.3l4.1-0.4l8.2-0.7
			c11-0.9,22-1.7,33-2.4c-11,1.2-21.9,2.2-32.9,3.3l-8.2,0.8l-4.1,0.4c-1.3,0.2-2.7,0.4-4,0.8C600.5,668.2,595.2,669.7,589.8,671z"
			/>
		<path class="st2" d="M585.3,666.9c5.1-2,10.4-3.7,15.7-5.2c0.7-0.2,1.3-0.4,2-0.5c0.7-0.2,1.4-0.3,2.1-0.3l4.1-0.3l8.2-0.6
			c11-0.7,22-1.3,33-1.8c-11,1-21.9,1.8-32.9,2.7l-8.2,0.6l-4.1,0.3c-1.3,0.1-2.7,0.4-3.9,0.8C595.9,664.1,590.6,665.6,585.3,666.9z
			"/>
		<path class="st2" d="M580.7,662.7c5.1-2,10.4-3.7,15.7-5.1c0.7-0.2,1.3-0.4,2-0.5c0.7-0.2,1.4-0.3,2.1-0.3l4.1-0.2l8.2-0.4
			c11-0.5,21.9-0.9,32.9-1.1c-11,0.7-21.9,1.4-32.9,2l-8.2,0.5l-4.1,0.3c-1.3,0.1-2.7,0.4-3.9,0.8
			C591.3,660,586.1,661.5,580.7,662.7z"/>
		<path class="st2" d="M576.1,658.6c5.1-2,10.4-3.7,15.7-5.1c0.7-0.2,1.3-0.4,2-0.5c0.7-0.2,1.4-0.3,2.1-0.3l4.1-0.1l8.2-0.1
			c5.5,0,11,0,16.4-0.1c5.5-0.1,11,0,16.5,0.1c-11,0.4-21.9,0.6-32.9,0.9l-8.2,0.2l-4.1,0.1c-1.3,0.1-2.6,0.4-3.9,0.8
			C586.7,655.8,581.5,657.4,576.1,658.6z"/>
		<path class="st2" d="M548.9,726c5.9-1.6,11.8-3,17.7-4.5s11.9-2.8,17.8-4.2c3-0.7,5.9-1.3,9-1.9l9-1.5c6-1,12-1.9,18.1-2.8
			c-6,1.3-11.9,2.4-17.9,3.6l-9,1.6c-2.9,0.6-5.9,1.4-8.9,2l-17.9,4C560.9,723.5,554.9,724.8,548.9,726z"/>
		<path class="st2" d="M633.3,708.2c5.9-1.5,11.9-2.8,17.9-4.1s12-2.6,17.9-3.8c3-0.6,6-1.2,9-1.8l9.1-1.3
			c6.1-0.8,12.1-1.6,18.2-2.4c-6,1.2-12,2.2-18.1,3.3l-9.1,1.5c-3,0.5-6,1.2-9,1.8l-17.9,3.6C645.3,706,639.3,707.2,633.3,708.2z"/>
	</g>
	<g id="freepik--Desk--inject-13">
		<polygon class="st5" points="176.8,638.4 260.1,638 343.3,637.8 509.8,637.6 676.3,637.8 759.5,638 842.8,638.4 759.5,638.8 
			676.3,638.9 509.8,639.2 343.3,638.9 260.1,638.8 		"/>
	</g>
	<path class="st1" d="M443.3,464.3c0,0.8-0.6,1.4-1.4,1.4s-1.4-0.6-1.4-1.4s0.6-1.4,1.4-1.4S443.3,463.5,443.3,464.3L443.3,464.3z
		 M465,462.9c-0.8,0-1.4,0.6-1.4,1.4s0.6,1.4,1.4,1.4s1.4-0.6,1.4-1.4S465.8,462.9,465,462.9L465,462.9z M453.4,445
		c-0.8,0-1.4,0.6-1.4,1.4s0.6,1.4,1.4,1.4s1.4-0.6,1.4-1.4S454.2,445,453.4,445L453.4,445z M418.8,498.8c-0.8,0-1.4,0.6-1.4,1.4
		s0.6,1.4,1.4,1.4s1.4-0.6,1.4-1.4C420.1,499.5,419.5,498.9,418.8,498.8L418.8,498.8z M441.9,498.8c-0.8,0-1.4,0.6-1.4,1.4
		s0.6,1.4,1.4,1.4s1.4-0.6,1.4-1.4C443.2,499.5,442.6,498.9,441.9,498.8L441.9,498.8z M465,498.8c-0.8,0-1.4,0.6-1.4,1.4
		s0.6,1.4,1.4,1.4s1.4-0.6,1.4-1.4C466.4,499.5,465.7,498.9,465,498.8L465,498.8z M430.3,480.9c-0.8,0-1.4,0.6-1.4,1.4
		s0.6,1.4,1.4,1.4s1.4-0.6,1.4-1.4c-0.1-0.7-0.7-1.3-1.4-1.3V480.9z M453.4,480.9c-0.8,0-1.4,0.6-1.4,1.4s0.6,1.4,1.4,1.4
		s1.4-0.6,1.4-1.4c-0.1-0.7-0.7-1.3-1.4-1.3V480.9z M407.3,516.9c-0.8,0-1.4,0.6-1.4,1.4s0.6,1.4,1.4,1.4s1.4-0.6,1.4-1.4l0,0
		c-0.1-0.7-0.7-1.3-1.4-1.3V516.9z M430.3,516.9c-0.8,0-1.4,0.6-1.4,1.4s0.6,1.4,1.4,1.4s1.4-0.6,1.4-1.4l0,0
		c-0.1-0.7-0.7-1.3-1.4-1.3V516.9z M453.4,516.9c-0.8,0-1.4,0.6-1.4,1.4s0.6,1.4,1.4,1.4s1.4-0.6,1.4-1.4l0,0
		c-0.1-0.7-0.7-1.3-1.4-1.3V516.9z"/>
	<g>
		<g id="freepik--Shape--inject-7">
			<path class="st4" d="M324.2,313.4c5.8,21.7-13.7,44.8-5.8,65.7c10,26.3,51.7,23.4,67.8,46.4c6.1,8.7,7.5,19.7,12.1,29.2
				c10.2,20.8,35.1,31.2,58.3,30.8c15.1-0.2,29.8-4.1,44.1-9.2c18.3,7.3,37.1,13.7,56.7,14c23.2,0.3,48.1-10,58.3-30.8
				c4.6-9.5,6-20.6,12.1-29.2c16.1-23,57.8-20.2,67.8-46.4c7.9-20.9-11.6-44.1-5.8-65.7c3.9-14.5,18.6-24.8,20.2-39.7
				c1.5-13.5-8.2-25.5-18.1-35c-9.9-9.5-21.1-19-24-32.3c-2.2-10.2,1-20.6,2.4-31c1.4-10.3,0.5-22.3-7.6-29
				c-14.2-11.6-38.5,1.9-52.9-9.5c-15.3-12.1-6.6-42.3-23.9-51.5c-16.7-8.8-35.9,13.4-54.2,8.8c-12.3-3-17.7-22.3-28.1-29.8
				c0,0-26.3-16.3-39.8,12.9c-10.1,21.7-23.9-4.2-40.6,4.6c-17.2,9.1-3.5,36.5-18.9,48.5c-14.4,11.4-38.9-0.5-53.1,11.2
				c-8.1,6.6-9,18.7-7.6,29s4.6,20.8,2.4,31c-2.9,13.3-14,22.9-24,32.3s-19.6,21.5-18.1,35C305.7,288.6,320.3,299,324.2,313.4z"/>
			<g class="st6">
				<path class="st1" d="M324.2,313.4c5.8,21.7-13.7,44.8-5.8,65.7c10,26.3,51.7,23.4,67.8,46.4c6.1,8.7,7.5,19.7,12.1,29.2
					c10.2,20.8,35.1,31.2,58.3,30.8c15.1-0.2,29.8-4.1,44.1-9.2c18.3,7.3,37.1,13.7,56.7,14c23.2,0.3,48.1-10,58.3-30.8
					c4.6-9.5,6-20.6,12.1-29.2c16.1-23,57.8-20.2,67.8-46.4c7.9-20.9-11.6-44.1-5.8-65.7c3.9-14.5,18.6-24.8,20.2-39.7
					c1.5-13.5-8.2-25.5-18.1-35c-9.9-9.5-21.1-19-24-32.3c-2.2-10.2,1-20.6,2.4-31c1.4-10.3,0.5-22.3-7.6-29
					c-14.2-11.6-38.5,1.9-52.9-9.5c-15.3-12.1-6.6-42.3-23.9-51.5c-16.7-8.8-35.9,13.4-54.2,8.8c-12.3-3-17.7-22.3-28.1-29.8
					c0,0-26.3-16.3-39.8,12.9c-10.1,21.7-23.9-4.2-40.6,4.6c-17.2,9.1-3.5,36.5-18.9,48.5c-14.4,11.4-38.9-0.5-53.1,11.2
					c-8.1,6.6-9,18.7-7.6,29s4.6,20.8,2.4,31c-2.9,13.3-14,22.9-24,32.3s-19.6,21.5-18.1,35C305.7,288.6,320.3,299,324.2,313.4z"/>
			</g>
		</g>
		<g id="freepik--color-palette--inject-7">
			<path class="st7" d="M593.8,230.1c1.2,1.4,3.2,1.5,4.6,0.3l80.3-68l0.1-0.1c1.3-1.2,1.4-3.3,0.2-4.6l-17.8-21c0,0,0-0.1-0.1-0.1
				c-1.2-1.4-3.2-1.5-4.6-0.4l-80.4,68c0,0-0.1,0-0.1,0.1c-1.3,1.2-1.4,3.3-0.2,4.6L593.8,230.1C593.7,230,593.8,230.1,593.8,230.1z
				"/>
			<path class="st5" d="M594.3,230.5c0.6,0.4,1.3,0.7,2,0.7c0.5,0,1-0.1,1.5-0.4c0.5-0.3,1-0.7,1.5-1.2l3.7-3.1l23.4-19.8l34.7-29.4
				l10-8.5l5.2-4.4c0.8-0.7,1.8-1.5,2.6-2.2c0.7-0.8,1-1.9,0.6-3c-0.2-0.5-0.5-1-0.9-1.4l-1.1-1.3l-2.3-2.7l-4.6-5.5L661,137
				c-0.7-0.9-1.9-1.3-3-1c-0.6,0.1-1.1,0.4-1.5,0.8l-1.3,1.2l-5.5,4.7c-3.7,3.1-7.3,6.2-10.9,9.2l-20.5,17.3l-34.8,29.3l-7.1,6
				c-1,0.9-1.4,2.4-0.8,3.7c0.3,0.6,0.7,1.1,1.2,1.6l1.3,1.5l8.5,10.1l5.3,6.4l1.4,1.6l0.5,0.6l-0.5-0.5l-1.4-1.6l-5.4-6.3
				l-8.6-10.1l-1.3-1.5c-0.5-0.5-0.9-1-1.2-1.6c-0.7-1.4-0.3-3.1,0.8-4.1l7-6l34.9-29.5l20.5-17.4l10.9-9.2c1.8-1.6,3.7-3.1,5.6-4.7
				l1.4-1.2c0.5-0.4,1-0.8,1.6-0.9c1.3-0.3,2.7,0.2,3.6,1.2l9.5,11.2l4.6,5.5l2.3,2.7l1.1,1.3c0.4,0.5,0.8,1,1,1.6
				c0.4,1.2,0.1,2.6-0.7,3.5c-0.9,0.8-1.8,1.5-2.6,2.3c-1.7,1.5-3.5,3-5.2,4.4l-10,8.5L626.9,207c-9.9,8.3-17.9,15.1-23.5,19.7
				l-3.7,3.1c-0.5,0.4-1.1,0.8-1.6,1.2c-0.5,0.3-1.1,0.4-1.6,0.4C595.5,231.3,594.8,231,594.3,230.5c-0.2-0.1-0.4-0.3-0.6-0.5
				C593.7,230,593.9,230.2,594.3,230.5z"/>
			
				<rect x="650.2" y="142.3" transform="matrix(0.7676 -0.6409 0.6409 0.7676 53.1724 459.1668)" class="st4" width="19.2" height="28"/>
			
				<rect x="602.2" y="182.4" transform="matrix(0.7676 -0.6409 0.6409 0.7676 16.3036 437.7379)" class="st4" width="19.2" height="28"/>
			
				<rect x="618.2" y="169" transform="matrix(0.7676 -0.6409 0.6409 0.7676 28.589 444.8902)" class="st4" width="19.2" height="28"/>
			
				<rect x="634.3" y="155.6" transform="matrix(0.7676 -0.6409 0.6409 0.7676 40.9312 452.0844)" class="st4" width="19.2" height="28"/>
			<g class="st6">
				<rect x="650.2" y="142.2" transform="matrix(0.7676 -0.6409 0.6409 0.7676 53.1777 459.1606)" width="19.2" height="28"/>
			</g>
			<g class="st8">
				<rect x="602.2" y="182.4" transform="matrix(0.7676 -0.6409 0.6409 0.7676 16.3036 437.7379)" width="19.2" height="28"/>
			</g>
			<g class="st9">
				<rect x="618.2" y="169" transform="matrix(0.7676 -0.6409 0.6409 0.7676 28.589 444.8902)" width="19.2" height="28"/>
			</g>
			<g class="st10">
				<rect x="634.3" y="155.6" transform="matrix(0.7676 -0.6409 0.6409 0.7676 40.9312 452.0844)" width="19.2" height="28"/>
			</g>
			<path class="st7" d="M597.3,229.1c1.5,1.1,3.5,0.7,4.6-0.7l59.3-85.1l0,0c1-1.5,0.6-3.5-0.9-4.5L637.6,123c0,0,0,0-0.1,0
				c-1.5-1-3.5-0.7-4.5,0.8l-59.3,85.1c0,0,0,0,0,0.1c-1,1.5-0.6,3.5,0.9,4.5L597.3,229.1C597.2,229.1,597.3,229.1,597.3,229.1z"/>
			<path class="st5" d="M597.9,229.4c0.7,0.3,1.4,0.3,2.1,0.1c0.5-0.1,1-0.4,1.4-0.7c0.4-0.5,0.8-1,1.1-1.5c0.8-1.1,1.7-2.4,2.7-3.9
				l17.3-25l25.7-37l7.4-10.7l3.8-5.5l1-1.4c0.3-0.4,0.6-0.9,0.9-1.4c0.4-1,0.2-2.1-0.5-3c-0.4-0.4-0.8-0.8-1.3-1l-1.4-1l-2.9-2
				l-5.8-4l-11.9-8.3c-0.9-0.7-2.1-0.8-3.2-0.2c-0.5,0.3-0.9,0.7-1.2,1.1l-1,1.5l-4.2,5.9l-8,11.5c-5.3,7.5-10.3,14.9-15.2,21.8
				l-25.8,36.9c-1.8,2.6-3.6,5.1-5.2,7.5c-0.6,1.2-0.4,2.7,0.6,3.7c1.1,0.8,2.2,1.5,3.3,2.3l10.7,7.5l6.7,4.8l1.7,1.2l0.6,0.4
				c0,0-0.2-0.1-0.6-0.4l-1.8-1.2l-6.8-4.7l-10.7-7.4c-1.1-0.7-2.2-1.4-3.3-2.3c-1.1-1.1-1.4-2.7-0.7-4.1c1.6-2.4,3.4-4.9,5.2-7.5
				l25.7-37l15.1-21.8l8-11.5l4.1-5.9l1-1.5c0.3-0.6,0.8-1,1.4-1.3c1.2-0.6,2.7-0.5,3.8,0.3l11.9,8.3l5.8,4.1l2.9,2l1.4,1
				c0.5,0.3,1,0.7,1.4,1.2c0.8,1,1,2.3,0.6,3.5c-0.3,0.5-0.6,1-0.9,1.5l-1,1.4l-3.8,5.5l-7.4,10.7c-9.7,13.9-18.5,26.4-25.8,36.9
				s-13.3,19-17.4,24.9l-2.7,3.9c-0.3,0.5-0.7,1.1-1.2,1.5c-0.4,0.4-0.9,0.6-1.4,0.7C599.3,229.8,598.5,229.8,597.9,229.4
				c-0.3,0-0.5-0.2-0.7-0.3C597.4,229.2,597.7,229.3,597.9,229.4z"/>
			
				<rect x="630" y="129.1" transform="matrix(0.5764 -0.8171 0.8171 0.5764 153.9799 583.2953)" class="st4" width="19.2" height="28"/>
			
				<rect x="594.5" y="178.6" transform="matrix(0.5775 -0.8164 0.8164 0.5775 97.9134 574.6443)" class="st4" width="19.3" height="28.2"/>
			
				<rect x="606" y="163.2" transform="matrix(0.5764 -0.8171 0.8171 0.5764 115.8955 578.079)" class="st4" width="19.2" height="28"/>
			
				<rect x="618" y="146.1" transform="matrix(0.5764 -0.8171 0.8171 0.5764 134.9993 580.6852)" class="st4" width="19.2" height="28"/>
			<g class="st8">
				<rect x="630" y="129.1" transform="matrix(0.5764 -0.8171 0.8171 0.5764 153.9799 583.2953)" width="19.2" height="28"/>
			</g>
			<g class="st11">
				<rect x="606" y="163.2" transform="matrix(0.5764 -0.8171 0.8171 0.5764 115.8955 578.079)" width="19.2" height="28"/>
			</g>
			<g class="st12">
				<rect x="618" y="146.1" transform="matrix(0.5764 -0.8171 0.8171 0.5764 134.9993 580.6852)" width="19.2" height="28"/>
			</g>
			<path class="st7" d="M601.3,230.4l34.1-103.5l0,0c0.6-1.8-0.4-3.7-2.1-4.2l-26.1-8.6c-1.8-0.6-3.6,0.3-4.3,2.1l-34.1,103.5
				c-0.6,1.8,0.4,3.7,2.1,4.3l26.1,8.6C598.8,233,600.7,232.1,601.3,230.4z"/>
			<path class="st5" d="M597.8,232.5c0.7,0.1,1.5-0.1,2.1-0.5c0.4-0.3,0.8-0.7,1.1-1.2c0.3-0.6,0.5-1.2,0.7-1.9l1.5-4.7l9.8-30
				l14.6-44.4l4.2-12.8c0.7-2.2,1.5-4.4,2.2-6.6l1.1-3.4c0.5-1,0.3-2.2-0.3-3.2c-0.3-0.5-0.7-0.8-1.3-1c-0.5-0.2-1.1-0.4-1.6-0.6
				l-3.5-1.1l-7-2.3l-14.2-4.7c-1.2-0.4-2.4-0.1-3.3,0.8c-0.4,0.4-0.7,1-0.8,1.5l-0.6,1.8c-0.7,2.4-1.6,4.7-2.3,7.1l-4.6,13.9
				l-8.7,26.2c-5.5,16.7-10.5,31.8-14.7,44.4c-1.1,3.2-2.1,6.2-3,9c-0.3,0.7-0.4,1.4-0.4,2.1c0.1,0.7,0.4,1.3,0.8,1.8
				c0.5,0.5,1.1,0.8,1.7,1l1.9,0.6l12.9,4.3l8.2,2.7l2.1,0.7l0.7,0.3l-0.7-0.2l-2.1-0.7l-8.2-2.6l-12.9-4.2l-1.9-0.6
				c-0.7-0.2-1.4-0.5-1.9-1.1s-0.8-1.3-0.9-2c-0.1-0.4-0.1-0.8,0-1.1c0.1-0.4,0.2-0.7,0.3-1.1c0.9-2.9,1.9-5.9,3-9
				c4.1-12.7,9.1-27.7,14.6-44.4l8.7-26.2l4.6-13.9l2.3-7.1l0.6-1.8c0.2-0.7,0.5-1.3,1-1.8c1-1,2.4-1.4,3.8-1l14.3,4.7l7,2.3
				l3.5,1.1c0.6,0.2,1.1,0.3,1.7,0.6c0.6,0.3,1.1,0.7,1.5,1.2s0.6,1.1,0.7,1.8c0,0.6-0.1,1.3-0.3,1.9c-0.4,1.1-0.7,2.2-1.1,3.4
				c-0.7,2.2-1.5,4.4-2.2,6.6c-1.4,4.4-2.9,8.7-4.2,12.8c-5.5,16.7-10.5,31.8-14.7,44.4c-4.2,12.6-7.6,22.8-10,29.9l-1.6,4.7
				c-0.2,0.6-0.4,1.3-0.7,1.9c-0.3,0.5-0.7,0.9-1.1,1.2C599.4,232.5,598.6,232.7,597.8,232.5c-0.2,0.1-0.5,0-0.7-0.1
				C597.3,232.5,597.6,232.5,597.8,232.5z"/>
			<path class="st5" d="M597,233.6c-0.1,0.9-0.2,1.9-0.4,2.8c-0.8,3.4-2.6,6.4-5,8.9c-1.7,1.7-3.7,3.1-5.9,4c-2.5,1.1-5.3,1.6-8,1.6
				c-4.7-0.1-9.3-1.8-12.8-4.9c-1.2-1.1-2.3-2.4-3.3-3.7c-3.6-5.4-4.4-12.2-2-18.2c1-2.6,2.6-4.9,4.6-6.8c4.3-4.1,10.2-6.1,16.1-5.2
				l1.6,0.3c0.4,0.1,0.8,0.2,1.1,0.3s0.6,0.2,0.9,0.4c-0.3,0-0.6-0.1-1-0.1c-0.3,0-0.7-0.2-1.1-0.2l-1.6-0.2
				c-3.3-0.3-6.7,0.2-9.8,1.6c-6.7,2.9-11,9.5-11.1,16.8c-0.2,10.3,8,18.8,18.3,19c5,0.1,9.7-1.8,13.3-5.2c2.4-2.3,4.2-5.2,5.2-8.4
				c0.7-2.3,0.7-3.6,0.8-3.6C597,233,597.1,233.3,597,233.6z"/>
			<path class="st5" d="M591.1,215.9c-0.7,2.2-3.1,3.4-5.3,2.7s-3.4-3.1-2.7-5.3s3.1-3.4,5.3-2.7
				C590.6,211.3,591.8,213.7,591.1,215.9z"/>
			
				<rect x="606" y="116.4" transform="matrix(0.3132 -0.9497 0.9497 0.3132 298.9572 674.1764)" class="st4" width="19.2" height="28"/>
			
				<rect x="599.5" y="136.2" transform="matrix(0.3132 -0.9497 0.9497 0.3132 275.7301 681.6147)" class="st4" width="19.2" height="28"/>
			
				<rect x="593" y="156" transform="matrix(0.3132 -0.9497 0.9497 0.3132 252.4342 689.0589)" class="st4" width="19.2" height="28"/>
			
				<rect x="586.4" y="175.9" transform="matrix(0.3132 -0.9497 0.9497 0.3132 229.0093 696.4245)" class="st4" width="19.2" height="28"/>
			<g class="st6">
				
					<rect x="586.4" y="175.9" transform="matrix(0.3132 -0.9497 0.9497 0.3132 229.0093 696.4245)" class="st1" width="19.2" height="28"/>
			</g>
			<g class="st9">
				
					<rect x="593" y="156" transform="matrix(0.3132 -0.9497 0.9497 0.3132 252.4342 689.0589)" class="st1" width="19.2" height="28"/>
			</g>
			<g class="st12">
				
					<rect x="599.5" y="136.2" transform="matrix(0.3132 -0.9497 0.9497 0.3132 275.7301 681.6147)" class="st1" width="19.2" height="28"/>
			</g>
		</g>
		<g id="freepik--Device--inject-7">
			<path class="st13" d="M433.7,124.4l-64.8-22.2c-0.1,0-0.3-0.1-0.4-0.1c-1.6-0.3-3.2,0.8-3.5,2.4L355,159l65.2,41l15.5-72.1
				C436,126.4,435.1,124.9,433.7,124.4z"/>
			<polygon class="st13" points="308.6,166.7 354.9,158.8 420.2,200 353.8,222.7 			"/>
			<polygon class="st5" points="430.4,128.5 367.7,105.8 357.2,158.1 416.6,195.4 			"/>
			<path class="st5" d="M353.5,161.4h0.1l-26.1,5.2v-0.3l2.5,2.3l44.2,41.6h-0.1l37.8-10.6l-37.7,10.9h-0.1l0,0L329.9,169l-2.5-2.4
				l-0.2-0.2h0.3l26.1-5.2l0,0l0,0l58.3,38.4L353.5,161.4z"/>
			<path class="st5" d="M337,179.3l-3,0.7l-10.7,2.3l0.1-0.2l12.3,14.4h-0.2l0.9-0.2l15.5-4.4v0.3l-9.9-9.4l-2.8-2.7l-1-1
				c0,0,0.4,0.3,1,0.9l2.8,2.6l10.1,9.3l0.2,0.2H352l-15.5,4.4l-0.9,0.2h-0.1v-0.1l-12.2-14.5l-0.1-0.2h0.2l10.8-2.2l3-0.6l1-0.2
				C338.2,179,337.9,179.2,337,179.3z"/>
			<path class="st5" d="M339,186.7c3.5,3.7,6.3,6.9,6.2,7s-3-3-6.5-6.8c-3.5-3.7-6.2-7-6.2-7S335.5,182.9,339,186.7z"/>
			<path class="st1" d="M394.6,173.6c-0.1-0.5-0.3-1-0.5-1.6c-0.5-1.6-1.1-3.6-1.8-6l-5.9-19.7c-2.2-7.6-4.3-14.5-5.8-19.8
				c-0.6-2.4-1.2-4.4-1.6-6c-0.2-0.7-0.3-1.3-0.4-1.6c0-0.2-0.1-0.4-0.1-0.6c1.2,4.1,4.1,13.8,8.3,27.9c2.2,7.6,4.3,14.5,5.8,19.7
				l1.7,6c0.2,0.6,0.3,1.3,0.5,1.6s0.1,0.6,0.1,0.6S394.8,174,394.6,173.6z"/>
			<path class="st1" d="M392.4,148.2c-2.5-8.8-4.4-15.9-4.3-15.9s2.2,7.1,4.6,15.8c2.5,8.8,4.4,15.9,4.3,15.9
				C397,164,394.9,157,392.4,148.2z"/>
		</g>
		<g id="freepik--Pencil--inject-7">
			<polygon class="st4" points="719.7,250.4 639.7,313.1 658.4,339.2 739.9,274.8 758.9,239.4 			"/>
			<g class="st10">
				<path class="st1" d="M758.9,239.5l-18.8,35c-1.5,0.4-3,0.3-4.4-0.1c-4.4-1.3-6.9-6-5.6-10.4c-2.2,0.6-4.5,0.1-6.3-1.3
					c-3.1-2.4-3.6-6.9-1.2-10c-0.2,0-0.4,0.1-0.6,0.1c-1.3,0-2.3-1.1-2.3-2.4L758.9,239.5z"/>
			</g>
			<path class="st4" d="M758.9,239.4l-16.1,4.5c0.8,10.8,8.4,9.7,8.4,9.7L758.9,239.4z"/>
			<path class="st14" d="M729.7,267.2c0.2,2,1,3.8,2.5,5.2c1.2,1.1,2.7,1.9,4.3,2.2c1.2,0.3,2.5,0.2,3.7-0.1l-0.1,0.3l-81.5,64.4
				l-8.6-12.7l80.2-62.4C729.7,265.1,729.6,266.1,729.7,267.2z"/>
			<path class="st14" d="M722,252.8c-1.3-0.1-2.3-1.2-2.3-2.5l-80,62.8l2.4,3.3l80.5-63.7C722.4,252.8,722.2,252.8,722,252.8z"/>
			<path class="st1" d="M738.4,262.8c-0.5,0.1-0.9-0.2-1.1-0.6c-0.2-0.7-0.1-1.4,0.1-2.1c0.1-0.4,0.4-0.8,0.8-1.1
				c0.4-0.3,1-0.4,1.5-0.2c0.5,0.2,0.9,0.7,1.1,1.3c0.2,0.6,0.3,1.2,0.3,1.7c0.1,1.3-0.2,2.6-0.6,3.8c-0.3,0.7-0.8,1.2-1.5,1.5
				c-0.8,0.2-1.6,0-2.1-0.5c-0.6-0.5-1-1.2-1.2-2s-0.3-1.5-0.3-2.3c0-3.1,1.8-5.9,4.5-7.2c0.7-0.3,1.4-0.2,2,0.1
				c0.5,0.3,1,0.8,1.3,1.3c0.5,1,1,2,1.2,3.1c0.4,1.6,0.4,3.2,0.2,4.9c-0.1,0.6-0.3,1.2-0.5,1.7c0-0.2,0.1-0.3,0.1-0.4
				c0.1-0.3,0.2-0.7,0.3-1.3c0.2-1.6,0.1-3.2-0.3-4.8c-0.3-1.1-0.7-2.1-1.3-3.1c-0.3-0.5-0.7-1-1.3-1.3s-1.2-0.4-1.8-0.1
				c-2.6,1.4-4.3,4.1-4.3,7c-0.1,1.5,0.4,3,1.4,4.1c0.5,0.5,1.2,0.7,1.9,0.5c0.6-0.2,1.1-0.7,1.4-1.4c0.5-1.2,0.7-2.5,0.6-3.7
				c0-0.6-0.1-1.1-0.2-1.7c-0.1-0.5-0.5-0.9-0.9-1.2c-0.4-0.2-0.9-0.1-1.3,0.2c-0.3,0.3-0.6,0.6-0.7,1c-0.3,0.6-0.3,1.4-0.1,2
				C737.5,262.6,737.9,262.8,738.4,262.8c0.2-0.1,0.3-0.2,0.4-0.3C738.7,262.7,738.5,262.8,738.4,262.8z"/>
			<path class="st1" d="M736.4,247.4c0.2,1.2,0.1,2.3-0.1,3.5c-0.4,1.7-1.1,3.3-1.9,4.8c-1,1.8-1.8,3.8-2.1,5.8
				c-0.3,2.1,0.1,4.2,1,6.1c0.7,1.5,1.8,2.9,3.2,3.9c0.9,0.7,2,1.2,3.1,1.6c0.4,0.1,0.7,0.2,0.9,0.3l0.3,0.1c-0.4,0-0.8-0.1-1.2-0.3
				c-2.8-0.8-5.1-2.8-6.4-5.4c-0.9-1.9-1.3-4.1-1-6.2c0.4-2.1,1.1-4.1,2.1-5.9c0.8-1.5,1.5-3.1,1.9-4.7c0.3-1.1,0.4-2.3,0.2-3.4
				c-0.1-0.8-0.3-1.2-0.3-1.2C736.2,246.6,736.3,247,736.4,247.4z"/>
			<path class="st1" d="M727.5,248.6c0.5,0.4,0.8,0.9,1,1.5c0.3,0.8,0.4,1.7,0.4,2.6c0.1,1.1,0.1,2.1,0,3.2c-0.1,2-0.4,3.9-1,5.8
				c-0.2,0.7-0.4,1.3-0.5,1.7c-0.1,0.2-0.1,0.4-0.2,0.6c0-0.2,0.1-0.4,0.2-0.6c0.1-0.4,0.3-1,0.5-1.7c0.5-1.9,0.8-3.8,0.9-5.8
				c0.2-1.9,0.1-3.9-0.3-5.8c-0.2-0.8-0.7-1.4-1.4-1.9C727.1,248.3,727.3,248.4,727.5,248.6z"/>
			<path class="st1" d="M723.5,260.9c0.4-1,0.6-2,0.6-3.1c0-1-0.4-2-1.2-2.8c-0.3-0.3-0.7-0.5-1.1-0.6c0.1,0,0.2,0,0.4,0
				c0.3,0.1,0.6,0.2,0.9,0.4c0.9,0.7,1.4,1.8,1.3,2.9c0,1.1-0.2,2.1-0.7,3.1c-0.2,0.4-0.4,0.8-0.6,1.2
				C723.2,261.6,723.4,261.2,723.5,260.9z"/>
			<path class="st1" d="M741,245c-0.2,0.6-0.2,1.3,0.2,1.9c0.4,0.8,1,1.6,1.6,2.5c0.6,1,1.2,2.2,1.6,3.3c0.8,2.1,1.3,4.2,1.7,6.4
				c0.2,0.8,0.3,1.5,0.3,2c0.1,0.2,0.1,0.5,0.1,0.7c-0.1-0.2-0.1-0.5-0.2-0.7c-0.1-0.6-0.2-1.3-0.4-2c-0.4-2.2-1-4.3-1.7-6.4
				c-0.4-1.1-1-2.2-1.6-3.3c-0.6-1-1.2-1.8-1.5-2.6c-0.2-0.3-0.3-0.7-0.3-1.1C740.7,245.5,740.8,245.2,741,245
				c0-0.3,0.1-0.5,0.1-0.6l0.1-0.2C741.2,244.6,741.1,244.8,741,245z"/>
		</g>
		<g id="freepik--light-bulb--inject-7">
			<path class="st4" d="M487.5,144c0.1,5.3,0.4,11.4,0.4,11.4l37.5-0.4c0,0-0.1-5.7-0.1-10.8c14.9-7.2,24.3-22.4,24.1-38.9
				c-0.2-23.6-19.6-42.6-43.2-42.3c-23.6,0.2-42.6,19.6-42.3,43.2C464.1,122.2,473.2,136.8,487.5,144z"/>
			<path class="st5" d="M501.4,154.6c-0.1-0.4-0.1-0.9-0.2-1.5c-0.2-1.4-0.5-3.3-0.9-5.9s-1-5.7-1.9-9.2c-0.9-4-2.3-7.9-4-11.7
				c-1-2.2-2.2-4.3-3.6-6.3c-0.7-1-1.7-1.9-2.8-2.5c-1.2-0.5-2.5-0.5-3.7,0.2c-1.1,0.7-1.5,2.1-1,3.3c0.7,1.2,1.8,2.1,3.1,2.6
				c2.8,0.9,5.9,0.6,8.5-0.7c2.8-1.4,4.8-3.9,5.7-6.9c0.5-1.5,0.6-3.1,0.2-4.6c-0.2-0.7-0.6-1.4-1.2-1.9s-1.4-0.7-2.1-0.7
				c-0.8,0.1-1.4,0.6-1.8,1.3c-0.4,0.7-0.5,1.5-0.3,2.3c0.5,1.6,1.5,2.9,2.9,3.9c2.7,2.2,6.2,3.2,9.6,2.7c3.4-0.6,6.3-2.8,7.8-6
				c0.7-1.5,0.8-3.2,0.2-4.8c-0.3-0.8-0.9-1.3-1.6-1.6c-0.7-0.2-1.5-0.1-2.2,0.2c-1.4,0.9-2.2,2.3-2.2,3.9c-0.1,1.6,0.1,3.2,0.7,4.7
				c1,2.9,3.1,5.4,5.9,6.8c2.6,1.4,5.6,1.8,8.5,1.1c1.4-0.2,2.6-0.9,3.6-1.9c1.1-0.9,1.3-2.5,0.4-3.6c-0.9-1.1-2.5-1.3-3.6-0.4
				c-1.1,0.6-1.9,1.6-2.4,2.8c-1.1,2.3-1.9,4.6-2.8,6.7c-3.4,8.6-5.8,15.7-7.4,20.6l-1.8,5.7l-0.5,1.5c0,0.2-0.1,0.3-0.2,0.5
				l0.1-0.5c0.1-0.4,0.2-0.8,0.4-1.5c0.4-1.3,1-3.2,1.7-5.7c1.6-4.9,4-12.1,7.3-20.7c0.8-2.2,1.7-4.4,2.7-6.8c0.5-1.2,1.4-2.3,2.6-3
				c0.6-0.3,1.3-0.5,2-0.4c0.7,0,1.4,0.4,1.9,0.9c0.9,1.2,0.8,3-0.2,4.1s-2.3,1.8-3.8,2.1c-3,0.7-6.1,0.3-8.9-1.1
				c-2.9-1.5-5.1-4.1-6.1-7.2c-0.6-1.6-0.8-3.2-0.7-4.9c0.1-0.9,0.3-1.7,0.6-2.5c0.4-0.8,1-1.5,1.8-1.9c0.8-0.5,1.7-0.6,2.6-0.3
				c0.9,0.3,1.6,1,1.9,1.9c0.7,1.7,0.6,3.6-0.2,5.2c-1.5,3.3-4.6,5.6-8.2,6.2c-3.6,0.5-7.2-0.5-10-2.8c-1.4-1-2.5-2.5-3.1-4.2
				c-0.2-0.9-0.1-1.8,0.3-2.6c0.4-0.8,1.2-1.4,2.2-1.5c1.8-0.1,3.5,1.1,3.9,2.9c0.4,1.6,0.3,3.3-0.2,4.9c-0.9,3.1-3.1,5.7-6,7.2
				c-2.7,1.4-5.9,1.7-8.9,0.7c-1.4-0.5-2.6-1.5-3.3-2.8c-0.3-0.7-0.4-1.5-0.2-2.2c0.2-0.7,0.7-1.3,1.3-1.6c1.2-0.7,2.8-0.8,4.1-0.2
				c1.2,0.6,2.2,1.5,3,2.6c1.4,2,2.6,4.1,3.6,6.4c1.7,3.8,3.1,7.8,4,11.9c0.8,3.6,1.4,6.6,1.8,9.3c0.4,2.6,0.7,4.5,0.8,5.9
				c0.1,0.7,0.2,1.3,0.2,1.6v0.5C501.5,154.9,501.5,154.8,501.4,154.6z"/>
			<path class="st5" d="M491,162.3c-1.3,0-2.4-1-2.4-2.4l0,0c0-1.3,1.1-2.4,2.4-2.4l32.2-0.3l0,0c1.3,0,2.4,1.1,2.4,2.4l0,0l0,0
				c0,1.3-1,2.4-2.4,2.4L491,162.3L491,162.3z"/>
			<path class="st5" d="M491,164.4c-1.4,0-2.4,1.1-2.4,2.4c0,1.4,1.1,2.4,2.4,2.4h2.4l4.6,8.9c0.6,1,1.6,1.6,2.8,1.6l11.5-0.1
				c1.1,0,2.2-0.6,2.7-1.6l4.6-9h3.5c1.4,0,2.4-1.1,2.4-2.4s-1.1-2.4-2.4-2.4L491,164.4L491,164.4z"/>
			<g class="st15">
				<path class="st1" d="M541.5,88.4c1.8,3.9,2.9,8.1,3.1,12.3c0.2,3.4-0.1,6.9-1.1,10.2c-0.6,2.2-1.5,4.3-2.7,6.3
					c-0.9,1.4-1.6,2-1.9,1.8c-0.7-0.4,0.5-3.6,1-8.8c1.7-13.7-4.7-27.1-16.4-34.4c-4.4-2.9-7.7-4-7.5-4.8c0.1-0.4,1-0.5,2.6-0.4
					c2.3,0.3,4.5,0.9,6.6,1.8c3.2,1.4,6.1,3.3,8.6,5.6"/>
			</g>
			<g class="st15">
				<path class="st1" d="M500.4,71c-0.1-0.7,0.3-1.5,1.3-2.1c1.2-0.7,2.6-1.1,4-1.1s2.8,0.3,4,0.9c1,0.6,1.5,1.3,1.4,2.1
					c-0.3,1.4-2.6,2.2-5.3,2.2"/>
			</g>
			<path class="st13" d="M500.8,177.8c3.6-1.3,7.6-1.2,11.1,0.2c0.7,0.3,1.4,0.6,2.1,1.1c-0.7-0.2-1.5-0.5-2.2-0.8
				c-3.5-1.2-7.3-1.3-10.9-0.2c-0.7,0.3-1.5,0.5-2.2,0.7C499.3,178.4,500,178,500.8,177.8z"/>
			<path class="st13" d="M506.4,169c7.2-0.1,13,0,13,0.1s-5.8,0.3-13,0.4c-7.2,0.1-13,0-13-0.1C493.4,169.2,499.2,169.1,506.4,169z"
				/>
			<path class="st13" d="M498.6,173.1h7.7h7.7c1.1,0,2.1,0,3.2,0.1c-1.1,0.2-2.1,0.3-3.2,0.3c-2,0.1-4.7,0.2-7.7,0.1
				c-3,0-5.7-0.1-7.7-0.2c-1.1,0-2.1-0.1-3.2-0.3C496.5,173.1,497.5,173,498.6,173.1z"/>
			<path class="st5" d="M566.5,69c3.4-1.8,7-3.3,10.7-4.5c-3.3,2-6.8,3.8-10.3,5.3c-3.5,1.8-7.1,3.3-10.8,4.5
				C559.4,72.3,562.9,70.5,566.5,69z"/>
			<path class="st5" d="M536.1,49.5l7.3-11.6l7.2-11.6c1-1.6,2-3.2,3.2-4.7c-0.7,1.8-1.6,3.4-2.6,5.1c-1.7,3-4.2,7.3-7,11.8
				s-5.5,8.5-7.5,11.4c-1,1.6-2.1,3.1-3.4,4.5C534.1,52.7,535,51.1,536.1,49.5z"/>
			<path class="st5" d="M508.1,37.6c0,4.1-0.3,8.2-0.8,12.2c-0.3-4.1-0.3-8.1,0-12.2c0-4.1,0.3-8.2,0.8-12.2
				C508.4,29.4,508.4,33.5,508.1,37.6z"/>
			<path class="st5" d="M473.2,36.4c4.4,9.3,7.7,16.9,7.5,17s-3.9-7.4-8.3-16.7s-7.8-16.9-7.5-17C465.1,19.7,468.8,27.1,473.2,36.4z
				"/>
			<path class="st5" d="M455.8,61.1c3.1,2.3,5.9,4.7,8.6,7.4c-3.2-2-6.3-4.3-9.2-6.7c-3.1-2.3-5.9-4.7-8.6-7.4
				C449.8,56.4,452.9,58.7,455.8,61.1z"/>
		</g>
	</g>
	<g>
		<path class="st4" d="M460.8,428.8l-2.3,0.8c-10.2,3.4-40.4,13.4-49.6,17.2c0,0,16.2,143.3,18.1,156.6c1.9,13.3,2.3,66.6,2.3,66.6
			l169.9-30.6c0,0,2.1-113,2.5-135.3c0.6-28.8,4.2-57.3,4.2-57.3l-30-11.8l-35.2-18.6L460.8,428.8z"/>
		<path class="st5" d="M585.7,504.1c0.1,0.3,0.1,0.7,0.1,1c0,0.8,0.1,1.8,0.2,3c0.1,2.7,0.4,6.5,0.6,11.2c0.5,9.4,1,22.5,1.4,36.9
			c0.5,14.4,0.9,27.3,1.2,36.9c0.1,4.6,0.3,8.4,0.3,11.2c0,1.3,0,2.3,0,3c0,0.4,0,0.7,0,1.1c-0.1-0.3-0.1-0.7-0.1-1.1
			c0-0.8-0.1-1.8-0.2-3c-0.1-2.7-0.4-6.5-0.6-11.2c-0.5-9.4-1-22.5-1.4-36.9c-0.5-14.4-0.9-27.3-1.2-36.9c-0.1-4.6-0.3-8.4-0.3-11.2
			c0-1.2,0-2.2,0-3C585.6,504.8,585.6,504.4,585.7,504.1z"/>
		<path class="st16" d="M589,574.3c-0.2,0.4-0.5,0.7-0.8,1c-1.1,0.7-2.4,0.9-3.6,0.6c-0.9-0.2-1.7-0.5-2.5-0.9
			c-0.9-0.5-1.8-1-2.6-1.6c-0.9-0.7-2-1.3-3-1.7c-1.2-0.5-2.5-0.5-3.7-0.1c-1.3,0.6-2.4,1.6-3,2.8c-0.8,1.4-1.5,2.8-2.1,4.2
			c-0.7,1.6-1.5,3.2-2.5,4.6c-0.6,0.7-1.3,1.3-2.1,1.8c-0.4,0.3-0.9,0.4-1.4,0.5c-0.2,0-0.5,0.1-0.7,0.1h-1c-1,0-2-0.4-2.8-1
			s-1.5-1.3-2.2-2.1c-1.3-1.5-2.3-3.3-3.5-4.9c-1.1-1.7-2.7-2.9-4.6-3.6c-2-0.4-4.1,0-5.7,1.2c-1.7,1.1-3.2,2.7-4.2,4.4
			c-1.1,1.7-2,3.6-3.1,5.4c-1,1.8-2.2,3.4-3.7,4.8c-1.5,1.4-3.3,2.2-5.3,2.5c-1.9,0.2-3.9-0.4-5.4-1.6c-1.3-1.1-2.5-2.4-3.5-3.9
			c-1.9-2.7-3.6-5.4-5.9-6.8c-1.1-0.7-2.3-1.1-3.6-1.1c-1.2,0-2.3,0.3-3.4,0.8c-1.7,0.8-3.2,2-4.2,3.7c-0.6,1-1,2.2-1.1,3.4
			c0,0.4,0,0.8,0,1.3c0,0,0-0.1,0-0.3c-0.1-0.3-0.1-0.6-0.1-0.9c0-1.2,0.4-2.4,1-3.5c1-1.7,2.5-3.1,4.2-3.9c1.1-0.5,2.3-0.8,3.6-0.9
			c1.4,0,2.8,0.4,4,1.1c2.5,1.6,4.2,4.3,6.1,7c0.9,1.4,2.1,2.6,3.3,3.7c1.4,1.1,3.1,1.6,4.8,1.4c1.8-0.3,3.5-1.1,4.9-2.4
			c1.4-1.3,2.6-2.9,3.6-4.6c1-1.7,1.9-3.6,3.1-5.4c1.1-1.9,2.6-3.5,4.5-4.7c1.9-1.3,4.2-1.8,6.4-1.3c2,0.7,3.8,2.1,5,3.8
			c1.3,1.6,2.3,3.4,3.5,4.9c1,1.5,2.6,2.6,4.4,2.8c1.7,0,3.4-0.8,4.3-2.2c1-1.4,1.8-2.9,2.4-4.4c0.6-1.5,1.4-2.9,2.2-4.3
			c0.8-1.3,2-2.4,3.4-3c1.3-0.5,2.8-0.4,4.1,0.2c1.1,0.5,2.2,1.1,3.1,1.9c0.8,0.6,1.7,1.2,2.6,1.7c0.8,0.4,1.6,0.7,2.4,0.9
			c1.2,0.3,2.4,0.2,3.4-0.4C588.4,574.9,588.7,574.6,589,574.3z"/>
		<path class="st16" d="M585.9,520.1c0,0,0,0.1-0.1,0.3c-0.2,0.2-0.4,0.4-0.7,0.6c-1.1,0.4-2.3,0.3-3.3-0.3
			c-1.3-0.6-2.4-2.2-4.2-2.9c-0.9-0.4-2-0.2-2.8,0.5c-0.8,0.9-1.3,1.9-1.5,3.1c-0.3,1.3-0.8,2.6-1.3,3.8c-0.3,0.7-0.8,1.3-1.4,1.7
			c-0.6,0.5-1.4,0.8-2.2,0.8c-3.3,0.3-6.3-1.8-8.4-4.4c-1.1-1.3-2.2-2.5-3.5-3.5c-1.4-1-3-1.6-4.7-1.5c-3.7,0.4-7,2.4-9.1,5.4
			c-2.3,3-3.9,6.5-6,9.5c-1.9,3.1-4.7,5.5-8.2,6.7c-1.6,0.6-3.4,0.7-5,0.3s-3-1.3-4.1-2.4c-2.1-2.2-3.5-4.7-5.6-6
			c-1-0.6-2.1-0.9-3.3-0.8c-1,0.1-2,0.5-2.9,1.1c-1.4,1-2.5,2.3-3.4,3.7c-1.5,2.4-2,3.9-2.1,3.8c0.1-0.4,0.2-0.7,0.4-1.1
			c0.4-1,0.9-2,1.5-2.9c0.9-1.5,2-2.9,3.4-3.9c0.9-0.7,2-1.1,3.1-1.2c1.3-0.1,2.5,0.2,3.6,0.9c2.3,1.4,3.7,3.9,5.8,6
			c1,1.1,2.3,1.9,3.7,2.2c1.5,0.3,3.1,0.2,4.6-0.3c3.2-1.2,5.9-3.5,7.7-6.5c2-3,3.6-6.5,6-9.6c2.3-3.2,5.9-5.3,9.8-5.7
			c1.9-0.1,3.7,0.5,5.2,1.6c1.3,1.1,2.6,2.3,3.7,3.7c1,1.2,2.2,2.3,3.6,3.1c1.2,0.8,2.7,1.1,4.2,1.1c1.3-0.1,2.5-1,3.1-2.2
			s1-2.4,1.3-3.7c0.3-1.2,0.9-2.3,1.7-3.3c0.9-0.8,2.2-1,3.3-0.5c2,0.9,3,2.4,4.2,3c0.9,0.6,2,0.7,3,0.4
			C585.3,520.5,585.6,520.3,585.9,520.1z"/>
		<path class="st16" d="M586.7,463.8c0,0-0.2-0.2-0.8-0.6c-0.9-0.4-1.8-0.5-2.8-0.2c-1.5,0.4-2.7,1.4-3.4,2.7
			c-0.9,1.8-1.6,3.7-2,5.7c-0.4,1.2-0.9,2.3-1.5,3.3c-0.8,1.1-1.9,2-3.3,2.4c-1.4,0.4-2.9,0.3-4.3-0.1c-1.4-0.4-2.8-1.1-4-1.9
			c-2.5-1.6-4.9-3.8-8.2-4.4c-1.6-0.3-3.2,0-4.6,0.7c-1.5,0.8-2.8,1.8-3.9,3.1c-2.3,2.5-3.9,5.6-6.1,8.1c-1,1.3-2.3,2.4-3.6,3.3
			c-1.4,0.9-2.9,1.4-4.5,1.5c-3-0.1-5.8-1.3-8-3.3c-2.1-1.6-3.9-3.4-5.7-4.7c-1.6-1.2-3.5-1.9-5.5-2c-1.5,0-3,0.5-4.2,1.4
			c-0.8,0.6-1.3,1.3-1.6,2.2c-0.2,0.6-0.2,1-0.3,1c0-0.3,0-0.7,0.1-1c0.3-1,0.8-1.8,1.6-2.4c1.3-1,2.8-1.6,4.4-1.6
			c2.1,0.1,4.2,0.8,5.9,2c1.9,1.3,3.7,3,5.8,4.6c2.1,1.9,4.7,2.9,7.5,3.1c3.1-0.4,5.8-2,7.6-4.5c2.1-2.4,3.7-5.5,6.1-8.2
			c1.2-1.3,2.6-2.4,4.1-3.3c1.6-0.8,3.3-1.1,5.1-0.8c3.4,0.7,5.9,3,8.3,4.5c2.4,1.6,5.2,2.7,7.7,2c1.2-0.4,2.2-1.1,2.9-2.1
			s1.2-2,1.5-3.1c0.5-2,1.3-3.9,2.2-5.8c0.4-0.7,1-1.4,1.7-1.9c0.6-0.4,1.3-0.7,2-0.9c1-0.3,2-0.1,2.9,0.4
			C586.2,463.2,586.5,463.5,586.7,463.8z"/>
		<path class="st16" d="M578.3,437.4c0,0.2,0,0.4-0.1,0.6c-0.1,0.6-0.3,1.1-0.6,1.6c-0.4,0.9-1,1.7-1.7,2.3
			c-1.1,0.8-2.7,0.7-3.7-0.2c-1-1.1-1.8-2.4-2.5-3.7c-0.4-0.7-0.9-1.3-1.5-1.7c-0.7-0.4-1.5-0.7-2.3-0.7c-1.8-0.1-3.6,0.6-4.9,1.8
			c-1.4,1.4-2.6,3-3.4,4.8c-0.4,1-1,1.9-1.7,2.7c-0.7,0.9-1.8,1.4-3,1.3c-1.1-0.2-2.1-0.7-2.7-1.6c-0.6-0.8-1.1-1.6-1.4-2.6
			c-0.3-1.6-1-3.1-2.1-4.4c-0.5-0.5-1.1-0.8-1.8-0.9c-0.6-0.1-1.3,0.1-1.7,0.5c-0.8,0.9-1.4,1.9-1.7,3c-0.3,0.9-0.8,1.8-1.4,2.5
			c-0.4,0.5-0.9,0.8-1.5,0.9c-0.2,0.1-0.4,0.1-0.6,0c0.8-0.1,1.5-0.5,1.9-1.1c0.6-0.7,1-1.5,1.2-2.4c0.3-1.2,0.9-2.4,1.7-3.3
			c0.6-0.6,1.4-0.8,2.2-0.7c0.8,0.1,1.6,0.5,2.2,1.1c1.2,1.3,2,2.9,2.3,4.7c0.3,0.8,0.7,1.6,1.2,2.3c0.5,0.7,1.3,1.1,2.2,1.3
			c0.9,0,1.7-0.4,2.3-1.1c0.6-0.8,1.2-1.6,1.6-2.5c0.9-1.9,2.1-3.6,3.6-5s3.4-2.1,5.5-2c0.9,0.1,1.9,0.4,2.6,0.9
			c0.7,0.5,1.3,1.2,1.7,2c0.6,1.3,1.4,2.5,2.3,3.7c0.8,0.8,2.1,0.9,3,0.3c0.7-0.5,1.3-1.2,1.6-2C578,438.2,578.3,437.3,578.3,437.4z
			"/>
		<path class="st16" d="M472,437.5c0.1,0.3,0.1,0.5,0.2,0.8c0.1,0.7,0.2,1.5,0.2,2.2c0.1,1.2-0.1,2.4-0.4,3.6
			c-0.5,1.6-1.6,2.9-3.1,3.7c-0.9,0.5-1.9,0.6-2.9,0.4c-1-0.3-1.9-0.9-2.5-1.8c-0.6-0.8-1.1-1.8-1.6-2.7c-0.5-0.9-1.3-1.6-2.3-2.1
			c-2.2-0.6-4.6,0.4-5.6,2.5c-0.6,1.1-0.9,2.3-1,3.5c-0.1,1.3-0.1,2.6,0,3.9c0.1,1.4,0,2.7-0.3,4s-1.2,2.5-2.3,3.3
			c-1.2,0.7-2.6,0.8-3.9,0.3c-1.2-0.4-2.2-1.1-3.1-2c-1.6-1.7-2.7-3.7-4.1-5.1c-1.3-1.3-3-2.1-4.9-2c-1.5,0.1-3,0.7-4.1,1.7
			c-0.8,0.8-1.4,1.8-1.6,3c-0.2,1-0.3,2-0.2,3c-0.1-0.2-0.2-0.5-0.2-0.8c-0.1-0.8-0.1-1.5,0-2.3c0.6-2.9,3-5,6-5.2
			c2-0.1,4,0.6,5.4,2.1c1.5,1.5,2.6,3.4,4.2,5c0.8,0.8,1.8,1.4,2.8,1.8c1.1,0.4,2.3,0.3,3.3-0.3c1-0.7,1.6-1.7,1.9-2.9
			c0.3-1.2,0.4-2.5,0.2-3.8c-0.4-2.7-0.1-5.4,1.1-7.8s4-3.6,6.6-2.8c1.1,0.5,2,1.3,2.6,2.4c0.6,0.9,1.1,1.9,1.6,2.7
			c0.5,0.8,1.3,1.4,2.1,1.6c0.8,0.2,1.7,0.1,2.4-0.3c1.4-0.6,2.4-1.8,2.9-3.3c0.4-1.1,0.6-2.3,0.6-3.4
			C472.1,438.6,471.9,437.5,472,437.5z"/>
		<g>
			<g>
				<g>
					<path class="st17" d="M626.7,504.7c-12.7-13.4-30.4-39.9-25.5,13c4.6,50.5-25.3,58-27.3,61.1c-0.1,0.1-0.1,0.3,0,0.5
						c-10.7,1.6-38,6.4-56.9,9.9c-0.1-0.1-0.1-0.1-0.1-0.1s-34,4.6-51.2,12.5c-22.9,10.6-38.4,29.2-44.4,37.4
						c-12.5,17.1-31,67.1-17.5,75c5.4,3.1,11.5-5.2,16.7-15.5c-3.5,12.1-4.7,24,2.7,26.7c6.8,2.5,13.5-6.9,18.9-18.5
						c-1.7,9.4-0.9,17.3,5.6,18.5c6.9,1.3,14.8-12.6,20.8-26.4c-2.9,10.7-3.9,20.9,2.3,22.3C486,724.7,505,675,505,675
						c23.3,1.5,39.1-3.7,50.5-10.5c60.3-10.4,88.6-14.3,101.3-26.6c1.3-0.8,2.3-1.9,3.2-3.4C672.6,611.9,648.6,568.2,626.7,504.7z"
						/>
				</g>
			</g>
			<path d="M440,651c-3.2,5.8-6.5,11.7-9.1,17.7c-2.6,6.1-5.1,12.2-7.2,18.5c-5.1,15.4-5.9,25.9-5.8,25.3c2.8-15.1,12-37,14.7-43.1
				c2.6-6.1,5-12.2,7.7-18.3C440.3,651,440.1,650.9,440,651z"/>
			<path d="M462.1,660.2c-3.7,7.6-7.8,15-11.2,22.8c-3.4,7.8-6,15.3-8.8,23.3c-0.2,0.6,0.2,0.5,0.4,0c3.2-7.8,6.7-14.8,10-22.6
				s6.2-15.7,9.8-23.3C462.3,660.2,462.2,660.2,462.1,660.2z"/>
			<path d="M482.5,664.8c-6.3,11.3-10.6,23.8-14.4,36.1c-0.2,0.6,0.3,0.4,0.5-0.2c4.6-12.1,8.2-21.6,14.3-35.7
				C483,664.8,482.6,664.5,482.5,664.8z"/>
		</g>
		<g>
			<path class="st4" d="M577.5,519l-3.8,51.9l71.5-23.2c0,0-15.3-91.5-39.6-101.1l-26.2,44.7L577.5,519z"/>
			<path d="M594,444.5c-1.7,3.9-3.2,7.9-4.5,12c-1,4.2-1.7,8.4-2.1,12.7c-0.2-1.3-0.3-2.5-0.1-3.8c0.2-3.1,0.6-6.1,1.4-9.1
				c0.8-3,1.9-5.8,3.3-8.6C592.5,446.6,593.2,445.5,594,444.5z"/>
			<path class="st16" d="M639.1,518.8c0,0-0.3,0-0.8,0.2c-0.8,0.3-1.4,0.8-1.8,1.5c-0.7,1.1-1.2,2.3-1.5,3.5
				c-0.2,1.7-0.7,3.4-1.4,5.1c-0.4,1-1.2,1.8-2.1,2.4c-1.1,0.6-2.4,0.6-3.5,0.1c-1.1-0.6-2-1.5-2.6-2.5c-0.7-1-1.2-2.1-1.7-3.3
				c-0.5-1.1-1.2-2.2-2.1-3.1c-0.8-1-2-1.4-3.3-1.3c-1.2,0.4-2.1,1.4-2.2,2.7c-0.2,1.4-0.3,2.8-0.2,4.3c0.1,3-1,5.9-3,8.2
				c-2,2.1-5,2.9-7.7,1.8c-2.5-1.1-4-3.3-5.7-4.6c-1.3-1.5-3.4-2.2-5.4-1.9c-1.6,0.5-3,1.5-3.9,2.9c-0.7,1.1-1.2,2.3-1.5,3.5
				c-0.6,2.1-0.7,3.3-0.8,3.3c0-0.3,0-0.6,0-0.9c0.1-0.6,0.2-1.4,0.4-2.4c0.3-1.3,0.8-2.5,1.4-3.7c0.9-1.6,2.4-2.7,4.1-3.3
				c1-0.3,2.1-0.2,3.1,0.1c1.1,0.4,2,1,2.9,1.8c1.7,1.5,3.3,3.5,5.5,4.4c2.4,0.9,5.1,0.2,6.8-1.7c1.8-2.1,2.8-4.8,2.7-7.6
				c-0.1-1.5,0-2.9,0.2-4.4c0.1-0.8,0.4-1.5,0.9-2.1s1.2-1.1,1.9-1.3c1.5-0.2,3,0.3,4,1.5c0.9,0.9,1.7,2.1,2.2,3.3
				c0.5,1.1,1,2.2,1.6,3.3c0.5,1,1.3,1.8,2.3,2.3c0.9,0.5,1.9,0.5,2.8,0c0.8-0.5,1.5-1.2,1.8-2.1c0.7-1.6,1.2-3.2,1.5-4.9
				c0.3-1.3,0.8-2.5,1.6-3.6c0.5-0.7,1.2-1.2,2.1-1.5C638.4,518.9,638.8,518.8,639.1,518.8z"/>
			<path class="st16" d="M629,480.5c-0.1,0.2-0.2,0.4-0.3,0.6c-0.2,0.4-0.6,0.9-1,1.6c-0.6,0.8-1.2,1.6-1.9,2.3
				c-1,1-2.2,1.7-3.5,2.1c-1.6,0.6-3.4,0.4-4.9-0.4c-1.6-1-2.4-2.9-3.9-3.9c-0.7-0.5-1.7-0.6-2.5-0.3c-0.8,0.5-1.5,1.2-1.9,2.1
				s-0.7,1.9-0.8,3c0,1.1,0,2.2,0,3.3c0,1.2-0.2,2.3-0.7,3.4c-0.4,1.1-1.3,2-2.4,2.5c-2,0.8-4.3,0.6-6.3-0.4
				c-1.7-0.9-3.2-1.9-4.7-3.1c-1.2-1-2.6-1.7-4.1-2.2c-1.2-0.4-2.5-0.3-3.7,0.2c-0.9,0.3-1.7,0.9-2.3,1.7c-0.5,0.7-0.7,1.5-0.6,2.4
				c0,0-0.1-0.2-0.2-0.7c-0.1-0.7,0.1-1.3,0.5-1.9c0.6-0.9,1.4-1.6,2.3-2c1.3-0.6,2.7-0.7,4.1-0.3c1.6,0.5,3.1,1.3,4.4,2.3
				c1.4,1.1,3,2.1,4.6,3c1.7,0.9,3.8,1,5.6,0.3c0.9-0.4,1.6-1.2,2-2.1c0.4-1,0.6-2,0.6-3.1s0-2.2,0-3.4c0.1-1.1,0.4-2.2,0.9-3.3
				c0.5-1,1.3-1.9,2.3-2.4c1.1-0.5,2.3-0.3,3.3,0.3c1.7,1.3,2.4,3.1,3.8,4c1.3,0.8,2.9,0.9,4.4,0.5c1.2-0.4,2.3-1,3.3-1.9
				c0.7-0.7,1.4-1.4,2-2.2C627.9,481.9,628.4,481.2,629,480.5z"/>
		</g>
		<g>
			<path d="M444.3,243.2c-5.8,1.2-7.8,1.6-8.8,7.4c-1.4,7.9,5,26.4,12.9,27.8c-7.4,0.9-14.7-6.5-12.2,0.5s13.3,27.7,20.7,28
				s14.6-2.6,21.1-6.2s12.5-8,19.3-11c6.7-3.1,14.5-4.8,21.6-2.7c9.6,2.8,16.3,12,18.7,21.8c2.3,9.8,1.1,20-0.6,29.9
				c-1.7,9.9-3.8,19.9-3,29.9c-0.1,1.2,0.4,2.4,1.3,3.1c1.5,0.8,3.2-0.5,4.3-1.8c12.7-14.5,22.4-31.4,28.6-49.6
				c3.6-10.6,5.7-20.9,1.8-31.4s-16.8-22.1-25.5-18c-0.4-10.2-5.8-15.7-14.6-21.1c-7.2-4.4-12.9-10.7-22-10.1
				c-4.1,0.3-8.1,1.4-12.1,2c-9.5,1.3-18.9-0.7-27.8-3.9c-6.2-2.2-17.2-10.7-23.5-9.6C444.4,229.8,444.9,243.1,444.3,243.2z"/>
			<g>
				<path class="st17" d="M496.3,465.1L496.3,465.1c19.1,2.7,36.8-10.6,39.6-29.6L552.3,322c6-29-5.8-56.7-34.9-62l-2.7-0.3
					c-27.4-3.3-52.7,15-58.2,42.1c-5.1,25.1-10.4,53-11.9,66.6c-3.1,28.3,24.6,36,24.6,36l-2.9,21.2
					C463.8,444.8,477.2,462.4,496.3,465.1z"/>
				<g>
					<g>
						<path d="M484.8,460.4c-9.1-5.1-15.4-14.5-16.9-24.6c-0.1-1.3-0.3-2.5-0.3-3.8l0-1.9c0-0.3,0-0.6,0-1l0.1-0.9
							c0.2-2.5,0.7-5.2,1.1-7.8l1.2-7.9l0.6-4l0.3-2.2c0.1-1.1,0.3-2.2,0.5-3.3c-0.9-0.3-1.9-0.6-2.8-0.9c-0.2-0.1-0.5-0.2-0.7-0.3
							l-0.4-0.2l-0.8-0.3c-1-0.4-2-0.9-2.9-1.5c-1.9-1.1-3.8-2.2-5.5-3.6c-3.4-2.7-6.3-6-8.3-9.8c-2-3.8-3-8-3.2-12.3
							c-0.1-1.1,0-2.2,0-3.2c0.1-1.1,0.2-2.1,0.3-3.3c0.3-2.2,0.6-4.5,1-6.8c1.4-9,3.1-18.1,4.9-27.1c1.7-9,3.6-18.1,5.4-27.1
							c0.5-2.2,0.9-4.6,1.5-6.6l0.4-1.6c0.1-0.5,0.3-1.1,0.5-1.6l1.1-3.1c1.7-4,3.7-8,6.4-11.4l1-1.3l1.1-1.2
							c0.7-0.8,1.4-1.7,2.2-2.5c1.6-1.5,3.1-3.1,4.9-4.4c1.7-1.4,3.5-2.6,5.3-3.8c0.9-0.6,1.9-1,2.9-1.6l1.4-0.8l1.5-0.6
							c4-1.9,8.2-2.9,12.5-3.7l3.3-0.4c1.1-0.1,2.2-0.1,3.3-0.1c2.2-0.2,4.4,0.1,6.6,0.2c8.7,0.7,17.1,4.2,23.5,10.1
							c6.1,5.5,10.4,13.2,12.5,21.4c2.1,8.2,2.3,17,1,25.6c-0.4,2.2-0.7,4.4-1,6.6l-0.9,6.6c-0.6,4.4-1.2,8.8-1.7,13.2
							c-1.2,8.8-2.4,17.5-3.6,26.3l-7.1,53.6c-0.5,3.5-0.9,6.9-1.4,10.4c-0.5,3.4-1.6,6.7-3,9.8c-1.5,3.1-3.5,6-5.8,8.5l-1.8,1.9
							l-2,1.7c-0.6,0.6-1.4,1-2.1,1.5l-1.1,0.7c-0.4,0.2-0.7,0.4-1.1,0.7c-0.8,0.4-1.5,0.9-2.4,1.3l-2.5,1.1
							c-1.7,0.6-3.4,1.2-5.2,1.5c-3.5,0.8-7.1,1.1-10.7,0.7l-1.3-0.1c5.3,0.8,10.8,0.3,16-1.3c6.7-2.1,12.7-6.3,17-11.8
							c2.1-2.8,4-5.8,5.2-9.1c1.2-3.3,2-6.8,2.4-10.2l8.8-56.5l4.8-30.9l2.4-15.4l1.2-7.7c0.5-2.5,1-5.2,1.3-7.9
							c0.6-5.7,0.5-11.5-0.4-17.3c-0.9-5.7-2.7-11.4-5.4-16.6c-2.7-5.2-6.5-9.9-11.2-13.6c-2.3-1.9-4.8-3.5-7.5-4.8
							c-2.6-1.3-5.4-2.4-8.2-3.2l-2.1-0.6l-2.2-0.5c-0.8-0.2-1.5-0.2-2.2-0.3c-0.7-0.1-1.4-0.2-2.2-0.2l-4.4-0.3l-4.4,0.1
							c-5.9,0.3-11.7,1.6-17.2,3.7c-1.4,0.6-2.7,1.1-4.1,1.7l-3.9,2.1c-1.3,0.8-2.5,1.6-3.7,2.4c-0.6,0.4-1.2,0.9-1.8,1.3l-1.7,1.4
							c-4.5,3.8-8.5,8.2-11.7,13.2c-3.2,5-5.5,10.5-6.9,16.2l-0.5,2.1c-0.2,0.7-0.3,1.4-0.4,2.1l-0.8,4.1l-1.6,8.3
							c-2.1,11-4.2,22-6.1,33.1c-0.9,5.5-1.8,11.1-2.5,16.7c-0.3,2.8-0.6,5.8-0.5,8.8c0.1,3,0.6,6,1.5,8.9c1.8,5.8,5.3,11,9.8,15
							c2.2,2,4.7,3.7,7.3,5.1c1.3,0.7,2.6,1.4,4,2l1,0.4l0.5,0.2l0.5,0.2c0.1,0,0.3,0.1,0.4,0.1c0,0.1,0,0.3,0,0.5l-0.3,2.4
							l-0.6,4.7l-1.2,9.5c-0.1,0.8-0.3,2.3-0.4,4.5c0,0.6-0.1,1.1-0.1,1.8c0,0.6,0,1.3,0.1,2c0,1.4,0.2,2.8,0.4,4.4
							c0.9,6.2,4.2,13.5,9.2,18.9c5,5.4,11.3,8.7,16,9.9c1.2,0.3,2.2,0.5,3.1,0.7c0.9,0.1,1.7,0.2,2.2,0.2c1.1,0,1.6-0.1,1.1-0.4
							c-0.3-0.2-1-0.4-2-0.7c-0.5-0.1-1-0.2-1.6-0.5c-0.6-0.2-1.2-0.4-1.8-0.6C488.4,462.3,485.9,461.1,484.8,460.4z"/>
					</g>
				</g>
			</g>
			<path class="st18" d="M470.3,410.3c27.9,5.9,39-13.3,39-13.3c-11.8,5.7-25,7.8-38.1,6L470.3,410.3z"/>
			<path d="M460,317.5c0.4-2.1,2.5-3.6,4.6-3.2c2.2,0.4,3.7,2.5,3.4,4.7v0.1c-0.4,2.1-2.5,3.6-4.6,3.2c-2.2-0.4-3.7-2.5-3.4-4.7
				C459.9,317.5,460,317.5,460,317.5z"/>
			<path d="M503.3,322.4c0.4-2.2,2.4-3.6,4.6-3.3c2.2,0.4,3.7,2.5,3.3,4.8v0.1c-0.4,2.2-2.4,3.6-4.6,3.2
				C504.4,326.8,502.9,324.7,503.3,322.4C503.3,322.5,503.3,322.4,503.3,322.4z"/>
			<path d="M505.2,305.2c5.2-1.2,10.7,0.1,14.8,3.5c1.5,1.4,2.1,2.5,1.7,3c-0.8,1-4.8-0.9-9.8-2.1s-9.4-1.2-9.7-2.4
				C502.1,306.5,503.2,305.7,505.2,305.2z"/>
			<path d="M465.6,301.5c3.8-2.1,8.5-1.7,11.9,1.1c1.2,1.1,1.6,2.1,1.2,2.6c-0.8,0.9-3.8-0.1-7.4-0.5s-6.7,0.3-7.4-0.8
				C463.7,303.3,464.2,302.4,465.6,301.5z"/>
			<g>
				<path class="st17" d="M542.2,370.5c-0.1,0.6,18.7,7.5,21.6-11.7s-16.6-16-17.2-15.8"/>
				<g>
					<g>
						<path d="M548,343.2c2.6,0,5.2,0.3,7.5,1.1c2.3,0.8,4.3,2.2,5.5,4.2c0.6,1,1,2.1,1.3,3.2c0.2,1.2,0.3,2.4,0.4,3.6
							c0,2.5-0.4,5-1.1,7.4c-0.5,1.7-1.3,3.4-2.4,4.9c-1.1,1.4-2.7,2.6-4.4,3.2c-1.8,0.7-3.7,1.1-5.7,1.1c-1.5,0-3.1-0.1-4.6-0.5
							c-0.8-0.2-1.6-0.4-2.3-0.7c0,0-0.1-0.1-0.1-0.1c0.2,0.3,0.5,0.4,0.7,0.5c0.3,0.1,0.5,0.2,0.8,0.3c1.5,0.5,3,0.9,4.5,1.1
							c2.1,0.3,4.3,0.2,6.5-0.4c2.3-0.6,4.6-1.9,6.2-3.8c1.9-2.1,3.1-4.8,3.8-7.5c0.6-2.7,0.9-5.5,0.6-8.4c-0.2-1.4-0.6-2.9-1.3-4.2
							c-0.7-1.3-1.7-2.5-2.9-3.5c-2.4-1.9-5.3-2.7-8.1-2.8c-0.4,0-2.1-0.1-3.7,0.1c-1.6,0.2-3,0.8-2.7,1.2
							C546.8,343.3,547.7,343.2,548,343.2z"/>
					</g>
				</g>
			</g>
			<path d="M548,364.7c0.8,0.8,1.9,1.1,3,1c2.9-0.4,5.4-3.7,6.1-7.5c0.3-1.8,0.2-3.7-0.3-5.5c-0.3-1.6-1.5-3-3-3.5
				c-0.6-0.2-1.3-0.1-1.9,0.2c-0.4,0.2-0.8,0.6-0.9,1.1c-0.3,0.8,0,1.2,0.1,1.2s0-0.4,0.4-0.9c0.5-0.7,1.4-1,2.1-0.6
				c1.1,0.6,1.9,1.7,2.1,3c0.4,1.6,0.5,3.3,0.2,4.9c-0.6,3.5-2.8,6.4-5,6.8c-0.9,0.2-1.7,0-2.5-0.4c-0.5-0.4-0.7-0.6-0.8-0.6
				C547.4,363.7,547.5,364.1,548,364.7z"/>
			<path d="M459.4,275.2c3.4-5.1,8-9.3,13.5-12.2c11.4-6.8,24.8-9.8,38-8.7c13.3,1.3,25.6,7.7,34.2,17.9
				c6.6,8.3,10.6,18.4,11.6,29.1c0.9,10.6-0.4,21.3-3.7,31.4c-1.4,4.5-3.1,9-6.7,11.9c-2.2,1.8-5.8,2.8-7.9,0.8
				c-1.1-1.4-1.6-3-1.6-4.7c-1.9-15.3-3.7-31.8,3.5-45.5c-3-5.4-7-1.9-11.8-5.7c-4.9-3.7-11.1-5.4-17.2-4.5
				c-9,1.6-15.3,1.2-22.8,6.2c-11.1,7.2-24.9,8.6-37.2,3.8"/>
			<g>
				<path class="st19" d="M491.8,341.3l29.9,4.5c2.5,0.4,4.8-1.3,5.2-3.8l3-19.8c0.4-2.5-1.3-4.8-3.8-5.2l-29.9-4.5
					c-2.5-0.4-4.8,1.3-5.2,3.8l-3,19.8C487.6,338.6,489.3,341,491.8,341.3z"/>
				<path class="st19" d="M441.7,334l29.9,4.5c2.5,0.4,4.8-1.3,5.2-3.8l3-19.8c0.4-2.5-1.3-4.8-3.8-5.2l-29.9-4.5
					c-2.5-0.4-4.8,1.3-5.2,3.8l-3,19.8C437.5,331.3,439.2,333.6,441.7,334z"/>
				<line class="st19" x1="556" y1="342.7" x2="528.4" y2="331.9"/>
				<line class="st19" x1="452.7" y1="320.7" x2="439.8" y2="315.8"/>
				<line class="st19" x1="490.4" y1="320.4" x2="479.1" y2="318.7"/>
			</g>
			<path d="M485.9,376.1c-2,0.8-4.2,1.1-6.4,0.7c-2-0.3-4.1-1.4-5.6-2.9c-1.4-1.3-2.5-3.1-2.6-5c0-0.3,0-0.6,0.2-0.8
				s0.4-0.4,0.6-0.5c0.3-0.1,0.6-0.1,0.8,0c0.2,0,0.4,0.2,0.6,0.4c0.2,0.3,0.5,0.5,0.7,0.7c1.8,1.8,3.6,3.2,6.1,3.5
				c1.3,0.2,2.6-0.1,3.8-0.7c1.2-0.6,2.2-1.5,3-2.5l0.1-0.1c0.5-0.7,1-1,1.6-1.1c0.7-0.1,1.3,0.1,1.9,0.5s1,1,1.1,1.7
				c0.1,0.6,0,1.3-0.5,1.9C489.8,373.9,487.9,375.3,485.9,376.1L485.9,376.1z"/>
			<path d="M477.2,344.9c-11.7,2-5.6,22.3,9.4,11.2c1.8-1.4-0.4-4.6-2.3-3.4c-2.1,1.6-6.3,5.1-9.2,2c-2.5-3.5,1-6.8,3.3-8.2
				C479,346.1,478.6,344.7,477.2,344.9z"/>
		</g>
		<g>
			<g>
				<path class="st20" d="M521.3,418.9c0,0-5.9-16.4-16.8-11.4c-10.9,5-2.4,20.2-2.4,20.2L521.3,418.9z"/>
				<g>
					<g>
						<path d="M519.7,419.2c-2.9,1.1-5.7,2.1-8.5,3.3l-4.2,1.7l-4.1,1.7c-0.1,0-0.1,0-0.1-0.1l0,0l0,0l0-0.1l-0.1-0.1l-0.2-0.5
							l-0.4-1c-0.5-1.4-1-2.8-1.3-4.2c-0.6-2.8-0.7-5.7,0.5-8c0.9-1.7,2.5-3.1,4.4-4c1.9-0.9,4.1-1,6.1-0.1c2,0.8,3.8,2.3,5.3,4
							c1.2,1.3,2.1,2.8,3,4.4c0.5,0.8,0.9,1.6,1.2,2.5l0.1,0.2c-0.2-0.7-0.5-1.3-0.7-1.9c-0.7-1.7-1.5-3.3-2.5-4.8
							c-1.4-2.1-3.1-4-5.4-5.3c-1.3-0.7-2.7-1.1-4.2-1.2c-1.5-0.1-2.9,0.2-4.3,0.8c-1.5,0.6-3,1.5-4.2,2.9c-1.2,1.3-1.9,3-2.2,4.7
							c-0.6,3.4,0,6.7,1,9.8c0.3,0.8,0.6,1.5,0.9,2.3l0.2,0.6l0.3,0.7c0.3,0.7,0.7,1.3,1.1,2l0.1,0.1c0,0,0.1,0,0.1,0l0.3-0.1
							l0.5-0.2c0.3-0.1,0.7-0.3,1-0.5l1.3-0.6l2.1-1c2.8-1.3,5.5-2.7,8.3-4.1c0.7-0.4,7-3.5,6.2-4.1
							C521,418.7,520,419.1,519.7,419.2z"/>
					</g>
				</g>
			</g>
			<g>
				
					<rect x="526.1" y="417.2" transform="matrix(0.9105 -0.4134 0.4134 0.9105 -149.8467 264.6943)" class="st21" width="21.1" height="122.8"/>
				<g>
					<g>
						<path d="M504.2,433.5c7.6,17.6,15.4,35.3,23.2,53c3.9,8.8,7.9,17.6,11.8,26.5c4.2,9.2,8.4,18.5,12.5,27.7l21.7-9.9
							c-3-6.5-6-13-9-19.5c-8.2-17.6-16.7-35.2-24.7-52.9l-12.6-27l-6.2-13.4l-7.8,3.6l-10.8,5l-0.7,0.3l8.1-3.6l11-4.8l4.2,9.6
							l12.7,28.8l13.9,31.5c6.1,13.6,12.1,27.3,18.2,40.9l-16.7,7.5l-8.8-19.5l-9.5-20.8c-6.3-13.8-12.7-27.6-19.2-41.4
							c-1.5-3.1-14.2-30.5-14-28.2C501.7,427.9,503.6,432.2,504.2,433.5z"/>
					</g>
				</g>
			</g>
			
				<rect x="499.8" y="422" transform="matrix(0.9105 -0.4134 0.4134 0.9105 -129.6728 249.6701)" class="st22" width="24.6" height="4.9"/>
			
				<rect x="503" y="429.3" transform="matrix(0.9105 -0.4134 0.4134 0.9105 -132.4032 251.643)" class="st22" width="24.6" height="4.9"/>
			<path class="st17" d="M396.7,476.8c-24.5,40-65.4,125.3-49.7,156.7c15.1,30.2,135.5-13.5,160-22.5c10-3.7-2.1-86.6-13.2-84
				c-24.5,5.7-76.3,30.4-77.5,29.6c-1.2-0.8,6.2-36.7,12.1-72.3C436.9,432.5,414.2,448.1,396.7,476.8z"/>
			<path class="st17" d="M567.1,487.6c6.6,7.6-1.3,14.3-1.3,14.3c4.4,0.6,8.4,2.6,11.4,5.9c5,5.9-2.1,16.4-2.1,16.4
				c4.4,1.5,8.3,4.4,11.1,8.2c4.2,6.2-1.4,17.8-1.4,17.8c3.3,3.6,5.1,8.3,5.2,13.3c-0.2,13-17.4,23.5-28.3,30
				c-16.2,9.8-47.9,15.4-54.8,17.7l-43.3-69.3c0,0,40.6-42.8,54.1-49.7C531.5,485.1,560.5,480.1,567.1,487.6z"/>
			<path d="M564.6,501.1c-13.7,2.4-26,8.7-38.6,14.3c-0.1,0.1-0.1,0.2-0.1,0.3c0.1,0.1,0.2,0.1,0.3,0.1c12.5-5.7,25.9-8.9,38.6-14.2
				c0.2-0.1,0.2-0.3,0.1-0.5C564.8,501.2,564.7,501.1,564.6,501.1z"/>
			<path d="M574.3,523.4c-3.1,0.9-6,2.1-8.7,3.7c-3,1.5-6,3.1-8.9,4.7c-5.9,3.3-11.7,6.6-17.5,10.2c-0.3,0.2-0.1,0.6,0.2,0.4
				c5.9-3.3,11.8-6.4,17.9-9.3c3-1.5,6-3,9.1-4.4c2.9-1.2,5.8-2.7,8.4-4.5c0.2-0.2,0.2-0.5,0-0.7
				C574.6,523.5,574.5,523.4,574.3,523.4z"/>
			<path d="M584.5,550.2c-2.7,0.4-5.3,2.4-7.7,3.7c-2.7,1.5-5.3,3-8,4.5c-5.3,3-10.7,6-16.2,8.8c-0.3,0.1,0,0.6,0.2,0.4
				c5.6-2.8,11.2-5.6,16.7-8.5c2.7-1.4,5.4-2.8,8.2-4.3c2.3-1.2,5.3-2.5,7-4.5c0.1-0.1,0.1-0.2,0-0.2
				C584.7,550.2,584.6,550.1,584.5,550.2z"/>
			<path d="M416.3,556.2c-4.1,3.3-7.8,6.9-11.2,10.9c-3.3,3.8-6.4,7.7-9.3,11.8c0,0.1,0.2,0.2,0.3,0.1c3.3-3.9,6.9-7.5,10.4-11.3
				s7.4-7.3,10.6-11.1C417.3,556.3,416.6,556,416.3,556.2z"/>
			<path d="M375.2,644.6c11.4-1,22.7-2.7,33.8-5.2l8.4-1.8l8.3-2c2.8-0.7,5.5-1.4,8.3-2.1c2.8-0.7,5.5-1.4,8.2-2.2
				c11-3,21.9-6.4,32.8-9.9l16.2-5.4l16.1-5.7h0.1l0,0c6.1-1.5,12.3-3,18.4-4.6s12.2-3.3,18.3-5s12-3.9,17.6-6.7
				c5.6-2.9,11-6.2,16.1-10c-4.8,4.2-10,7.9-15.5,11.1c-2.8,1.6-5.6,3-8.6,4.3c-3,1.2-6,2.3-9,3.3c-6,2.1-12.1,3.9-18.2,5.6
				c-6.1,1.8-12.2,3.4-18.4,5h0.2l-16.1,5.9c-5.4,1.8-10.8,3.7-16.3,5.5c-10.9,3.4-21.9,6.8-33,9.6s-22.3,5.3-33.6,7.2
				c-2.8,0.5-5.7,0.9-8.5,1.3c-2.9,0.3-5.7,0.7-8.5,1C386.6,644.3,380.9,644.6,375.2,644.6z"/>
		</g>
		<g>
			<path class="st4" d="M438,437c0,0-27.4-3.8-49.4,35.4c-9.5,17.2-18.1,34.8-25.8,52.9l71.2,20.1l25.8-75.8L438,437z"/>
			<path d="M449.4,485.9c0-0.6,0-1.3,0.1-1.9c0.1-1.4,0.3-3.1,0.5-5.1c0.6-5.6,0.6-11.3,0-16.9c-0.7-5.6-2.7-10.9-5.9-15.5
				c-1.4-1.8-3-3.6-4.7-5.1c0.6,0.3,1.1,0.6,1.6,1c1.3,1.1,2.6,2.3,3.6,3.7c3.4,4.6,5.6,10.1,6.3,15.8c0.6,5.7,0.5,11.4-0.3,17.1
				c-0.3,2.2-0.5,3.9-0.7,5.1C449.7,484.7,449.6,485.3,449.4,485.9z"/>
			<path class="st16" d="M449.6,467.9c0,0-0.2-0.1-0.6-0.3c-0.7-0.2-1.4-0.2-2,0.1c-1,0.4-1.8,1.1-2.5,1.9c-0.5,0.5-1,1-1.5,1.4
				c-0.6,0.5-1.4,0.8-2.3,0.9c-1.9-0.1-3.6-1.4-4.2-3.3c-0.6-2-0.8-4-0.7-6.1c0-1-0.2-2.1-0.6-3.1s-1.1-1.8-2-2.4
				c-0.9-0.5-2.1-0.5-3,0.1c-1,0.6-1.8,1.5-2.4,2.4c-0.7,1-1.4,2-2.1,3s-1.7,1.8-2.8,2.4c-0.3,0.1-0.6,0.2-0.9,0.3
				c-0.3,0.1-0.6,0.1-0.9,0.1c-0.6,0-1.2-0.2-1.8-0.4c-1-0.5-1.9-1.3-2.5-2.3c-1-1.8-1.5-3.9-1.6-5.9c-0.1-1.7-0.5-3.4-1.1-5
				c-0.5-1.3-1.5-2.3-2.8-2.9c-1-0.4-2-0.3-3,0.1c-0.6,0.3-1.1,0.7-1.5,1.3c-0.2,0.4-0.2,0.7-0.3,0.7c0-0.2,0-0.5,0.1-0.7
				c0.3-0.7,0.8-1.2,1.4-1.5c1-0.5,2.2-0.6,3.3-0.3c1.4,0.6,2.6,1.7,3.1,3.1c0.7,1.6,1.1,3.4,1.3,5.2c0.1,2,0.7,3.9,1.7,5.7
				c0.5,0.9,1.3,1.6,2.2,2c0.9,0.5,2,0.5,2.9,0c2-0.9,3.2-3.1,4.6-5.1c0.7-1.1,1.6-2,2.7-2.7c1.2-0.7,2.6-0.7,3.8,0
				c2,1.4,3.1,3.7,2.9,6.1c-0.1,2,0.1,3.9,0.6,5.8c0.5,1.6,1.9,2.7,3.5,2.9c1.4-0.2,2.6-1,3.4-2.1c0.7-0.9,1.7-1.5,2.7-1.9
				c0.7-0.3,1.4-0.3,2.1,0C449.3,467.6,449.5,467.8,449.6,467.9z"/>
			<path class="st16" d="M449.2,496c-0.1,0.3-0.3,0.6-0.5,0.8c-0.6,0.7-1.3,1.3-2.1,1.7c-1.3,0.6-2.8,0.9-4.2,0.7
				c-2-0.2-3.7-1.3-4.7-3c-1.1-1.8-1.5-4.2-3.1-5.9c-1.6-1.7-4.4-1.7-6.8-0.6s-4.4,3.2-7.1,4.7c-1.4,0.8-3,1.2-4.5,1.1
				c-1.7,0-3.4-0.8-4.4-2.2c-0.8-1.4-1.2-3.1-1.1-4.7c0-1.6,0.2-3.1,0.1-4.5c0-1.4-0.4-2.7-1.3-3.8c-0.9-0.9-2.2-1.4-3.5-1.3
				c-2.5,0.3-4.9,1.2-6.9,2.8c-1.8,1.3-3.8,2.5-5.8,3.5c-2.9,1.6-6.4,1.8-9.5,0.3c-0.8-0.4-1.5-1-2-1.8c-0.1-0.2-0.3-0.4-0.4-0.6
				l-0.1-0.2c0.7,1,1.6,1.8,2.6,2.3c3,1.3,6.4,1.1,9.2-0.5c2-1.1,3.9-2.3,5.7-3.6c2.1-1.6,4.6-2.7,7.3-3c1.5-0.1,3,0.5,4.1,1.5
				c1,1.2,1.6,2.7,1.5,4.3c0.1,1.5-0.1,3-0.1,4.6c-0.1,1.5,0.2,2.9,0.9,4.2c0.8,1.2,2.2,1.9,3.6,1.9s2.9-0.3,4.1-1
				c2.5-1.4,4.6-3.5,7.2-4.7c1.3-0.6,2.7-0.9,4.1-0.8s2.6,0.6,3.6,1.6c0.8,0.9,1.4,2,1.8,3.1c0.4,1,0.8,2,1.3,2.9
				c0.9,1.6,2.5,2.6,4.3,2.9C445.1,499.1,447.7,498.1,449.2,496z"/>
			<path class="st16" d="M423.8,521.2c0,0-0.2-0.1-0.4-0.4c-0.5-0.3-1.1-0.5-1.7-0.4c-0.9,0.1-1.8,0.5-2.5,1.1
				c-0.9,0.8-1.6,1.9-2.1,3c-0.6,1.5-1.5,2.8-2.8,3.8c-1.7,1-3.8,0.9-5.5-0.2c-1.8-1.2-3-3-3.4-5.2c-0.3-2.2-0.3-4.5,0-6.7l0.1,0.3
				c-1.4-1.1-3.3-1.2-4.9-0.5c-1.8,0.8-3.3,2-4.4,3.6c-0.9,1.2-1.9,2.3-3,3.3s-2.4,1.8-3.9,2.2c-1.5,0.5-3,0.3-4.3-0.5
				c-1.2-0.8-2-2-2.4-3.4c-0.8-2.6-0.5-5.1-0.8-7.4c-0.1-2.1-1.1-4-2.8-5.2c-1.4-1-3.2-1.4-4.8-1.1c-1.3,0.2-2.5,0.8-3.4,1.7
				c-0.8,0.8-1.4,1.7-1.8,2.7c0,0,0,0,0-0.2c0.1-0.2,0.1-0.4,0.2-0.6c0.3-0.8,0.8-1.5,1.3-2.2c2.3-2.4,6.1-2.8,8.8-0.8
				c0.9,0.6,1.6,1.4,2.2,2.3c0.5,1,0.9,2.1,1,3.3c0.3,2.4,0,4.8,0.8,7.2c0.3,1.2,1.1,2.2,2.1,3c1.1,0.7,2.5,0.8,3.7,0.4
				c1.3-0.4,2.5-1.1,3.5-2c1-1,2-2.1,2.9-3.3c1.2-1.7,2.9-3,4.8-3.8c1.9-0.9,4.1-0.6,5.8,0.6l0.2,0.1v0.2c-0.3,2.1-0.4,4.3-0.1,6.5
				c0.3,1.9,1.4,3.7,3,4.7c1.4,1,3.3,1.1,4.7,0.3c1.2-0.9,2.1-2.2,2.7-3.5c0.5-1.2,1.3-2.3,2.3-3.1c0.8-0.6,1.7-1,2.7-1.1
				c0.6,0,1.2,0.2,1.7,0.6C423.6,520.7,423.7,520.9,423.8,521.2z"/>
			<path d="M449.1,492.1c-1.8,2.8-3.5,5.7-5.3,8.6l0.5-1.1c1.8-4.2,3.6-8.4,5.3-12.7c0-0.1-0.1-0.2-0.2-0.1
				c-6.9,14.5-25.1,51.1-26.8,55.2c-0.3-0.1-3.6-1-4.4-1.4c-0.2-0.1-0.2,0.2-0.1,0.2c0.4,0.1,5.1,2.3,5.2,2.2
				c4.5-6.7,16.6-33.8,19.2-39.7C445,499.8,447.2,496,449.1,492.1L449.1,492.1z"/>
		</g>
	</g>
	<g>
		<path class="st7" d="M682.2,529.2c-31.1-30.5-31.5-77.6-23.2-118.5c1.4-6.8,1.8-14.2,6.1-19.6c4.3-5.5,12.6-8.3,18.2-4.4
			c4.7,3.3,5.9,9.5,8,14.9c2.7,7.2,7.4,13.4,13.5,18.1c4,3,9.2,5.3,13.9,3.6c6.5-2.3,8.5-10.4,9.7-17.2c2.1-12.7,4.1-25.5,6.1-38.2
			c1.1-6.8,2.3-13.8,5.4-19.9c3.2-6.1,8.9-11.3,15.7-12.1c6.8-0.8,14.1,4.3,14.4,11.3c0.1,2.9-1,5.7-1.2,8.5s0.5,6.2,3.1,7.5
			s5.6-0.2,8-1.9c8.2-5.7,14.5-13.8,20.4-21.9c6-8.1,11.8-16.4,19.4-22.8c7.6-6.5,17.5-10.9,27.3-9.8c9.9,1.1,19.3,8.9,20.1,18.9
			c0.9,10-6.4,18.9-13.8,25.6c-11,10-23.4,18.4-36.8,24.9c-2.4,1.2-5,2.4-6.3,4.8c-2.3,4.3,1.3,9.5,5.6,11.8
			c4.8,2.5,10.4,2.9,15.6,4.4c5.2,1.5,10.6,4.8,11.8,10.2c1.6,7.4-5.4,13.8-12,17.6c-13.1,7.7-27.4,13-42.3,15.8
			c-5.3,1-10.9,1.7-15.5,4.6s-8.1,8.6-6.5,13.8c1.7,5.2,7.7,7.8,13.1,7.7c5.4-0.1,10.6-2.2,15.9-3.2c10-2,22,0.7,26.6,9.8
			c3.1,6,2.2,13.4-0.9,19.5c-3.1,6-8,10.8-13.2,15.1c-18,15.1-39.6,26.1-62.6,30s-43.5,2.6-63.8-8.9"/>
		<path class="st23" d="M697.1,505.3c10.6-21.3,22.3-41.9,35.3-61.8c3.4-5.3,6.8-10.5,10.1-15.7s6.6-10.3,10.1-15.1
			c6.8-9.2,14.1-18,21.9-26.4c7.4-8.1,14.6-15.4,21.5-22.3c6.8-6.9,13.4-13.1,19.6-18.6c9.7-8.6,20.1-16.5,31.1-23.5
			c3.9-2.5,6.9-4.3,9-5.5l2.4-1.4c0.3-0.2,0.5-0.3,0.8-0.4c-0.2,0.2-0.5,0.4-0.8,0.5l-2.3,1.5c-2.1,1.3-5.1,3.2-8.9,5.7
			c-10.8,7.2-21.1,15.1-30.7,23.8c-6.1,5.5-12.6,11.8-19.4,18.6s-14,14.3-21.4,22.3c-7.7,8.4-15,17.2-21.7,26.4
			c-3.5,4.8-6.7,9.9-10.1,15l-10.1,15.7c-12.9,19.9-24.7,40.4-35.3,61.6"/>
		<path class="st23" d="M753,412.7c-0.2-1-0.2-2-0.2-3c0-2,0-4.8,0.1-8.3c0.2-7,0.7-16.6,1.4-27.1s1.1-20.2,1.2-27.1
			c0-3.5,0-6.3,0-8.3c-0.1-1,0-2,0.1-3c0.2,1,0.4,2,0.4,3c0.2,1.9,0.3,4.8,0.4,8.2c0.2,7-0.1,16.5-0.8,27.2l-1.8,27.1
			c-0.2,3.3-0.3,6-0.5,8.2C753.3,410.6,753.2,411.6,753,412.7z"/>
		<path class="st23" d="M843.4,411c-1.2,0-2.4,0-3.6-0.2c-2.3-0.2-5.6-0.4-9.7-0.6c-8.2-0.5-19.5-0.7-32-0.5
			c-12.5,0.3-23.8,1-32,1.8c-4.1,0.4-7.4,0.7-9.7,1c-1.2,0.2-2.4,0.3-3.6,0.3c1.1-0.4,2.3-0.6,3.4-0.8c2.3-0.4,5.6-0.9,9.6-1.4
			c8.2-1,19.5-1.9,32.1-2.2c10.7-0.3,21.5,0,32.2,0.9c4.1,0.3,7.4,0.7,9.7,1.1C841.1,410.4,842.3,410.7,843.4,411z"/>
		<path class="st23" d="M698.4,503.8c-0.2-0.4-0.3-0.8-0.4-1.2c-0.3-0.9-0.6-2.1-1-3.5c-0.8-3-1.9-7.3-3.2-12.7
			c-2.6-10.8-5.6-25.7-8.8-42.3s-6.1-31.4-8.3-42.3l-2.8-12.8l-0.7-3.4c-0.1-0.4-0.2-0.8-0.2-1.2c0.2,0.4,0.3,0.8,0.4,1.2l1,3.5
			c0.8,3,1.9,7.3,3.2,12.7c2.6,10.8,5.6,25.7,8.8,42.3c3.2,16.6,6.1,31.5,8.4,42.3l2.8,12.8l0.7,3.4
			C698.4,503.1,698.4,503.5,698.4,503.8z"/>
		<path class="st23" d="M821.3,485.7c-0.4,0.2-0.8,0.2-1.2,0.3l-3.6,0.6l-13.2,2c-11.1,1.7-26.4,4.1-43.4,6.9
			c-16.9,2.7-32.4,5.1-43.4,6.5c-5.6,0.7-10.2,1.2-13.2,1.5l-3.6,0.3c-0.4,0.1-0.8,0.1-1.3,0c0.4-0.1,0.8-0.2,1.2-0.3l3.6-0.6
			l13.2-2c11.1-1.6,26.4-4.1,43.4-6.9c16.9-2.8,32.3-5.1,43.4-6.5c5.6-0.7,10.2-1.2,13.2-1.6l3.5-0.3
			C820.4,485.7,820.9,485.7,821.3,485.7z"/>
	</g>
	<g id="Layer_2_2_">
		<g id="XMLID_166_">
			<g id="XMLID_109_">
				<path id="XMLID_105_" d="M354.7,302.3c0.7,14.3,0.6,20.8-7.2,31.4c-4,5.4,23.1,22.2,17.7,25.9c0,0-44.4-0.7-49,1
					c-7,2.6-14.6,3.8-22.4,3.5c-30.7-1.1-55.7-26.1-56.6-56.9c-1.1-33.4,25.7-60.8,58.9-60.7C327.1,246.6,353.1,271.3,354.7,302.3z"
					/>
				<path id="XMLID_106_" class="st1" d="M296,366.8c-0.8,0-1.6,0-2.3,0c-32.1-1.2-58-27.2-59.1-59.4c-0.5-16.8,5.6-32.7,17.3-44.7
					c11.7-12.1,27.3-18.7,44.1-18.7c0,0,0,0,0.1,0c32.6,0,59.5,25.5,61.2,58.1c0.7,14.3,0.7,21.6-7.6,32.9c0.2,1.9,5.9,7.5,9.1,10.5
					c6.4,6.1,10,9.7,9.7,13.2c-0.1,1.3-0.8,2.4-1.8,3.1l-0.7,0.5h-0.8c-21.5-0.3-45.4-0.1-48.1,0.9
					C310.3,365.6,303.3,366.8,296,366.8z M296,249.1c-15.4,0-29.7,6.1-40.4,17.2c-10.7,11.1-16.4,25.6-15.9,41.1
					c0.9,29.4,24.7,53.4,54.2,54.5c7.4,0.3,14.7-0.9,21.4-3.4c4.4-1.6,36.5-1.4,47.5-1.2c-1.4-2.1-5.2-5.7-7.6-8
					c-7-6.7-13.1-12.5-9.8-17c7.4-10.1,7.4-16.1,6.7-29.8l0,0C350.6,272.5,326,249.2,296,249.1L296,249.1z"/>
			</g>
			<path id="XMLID_164_" class="st1" d="M304.4,328.7c-1.8,0-3.2-1.4-3.2-3.2v-16.8h-24.9v16.8c0,1.8-1.4,3.2-3.2,3.2
				c-1.8,0-3.2-1.4-3.2-3.2v-40c0-1.8,1.4-3.2,3.2-3.2c1.8,0,3.2,1.4,3.2,3.2v16.8h24.9v-16.8c0-1.8,1.4-3.2,3.2-3.2
				c1.8,0,3.2,1.4,3.2,3.2v40C307.5,327.2,306.2,328.7,304.4,328.7z"/>
			<path id="XMLID_167_" class="st1" d="M318.8,328.7c-1.8,0-3.2-1.4-3.2-3.2v-19.9c0-1.8,1.4-3.2,3.2-3.2c1.8,0,3.2,1.4,3.2,3.2
				v19.9C322,327.2,320.6,328.7,318.8,328.7z M318.8,299.3c-2.1,0-3.8-1.7-3.8-3.8c0-2.1,1.7-3.8,3.8-3.8c2.1,0,3.8,1.7,3.8,3.8
				S320.9,299.3,318.8,299.3z"/>
		</g>
	</g>
	<text transform="matrix(1 0 0 1 719.3892 527.9639)" class="st24 st25">&lt;/code&gt;</text>
	<g id="freepik--Plant--inject-5">
		<path class="st5" d="M261.8,596.1c1.7-5.9,5.3-11.5,10.9-14c5.9-2.5,12.6-1.1,18.6,1.1c6,2.2,11.8,5.1,18.2,5.5
			c6.3,0.4,13.5-2.6,15.4-8.7c1.8-5.7-1.7-11.8-6-15.9c-14.9-14.4-38.7-14-53.2,0.9c-3.8,3.9-6.7,8.7-8.5,13.9"/>
		<path class="st13" d="M211.6,621.6c-9.3-8.8-8.8-24.2-4.2-36.2s14.8-21.2,26.1-27.2c22.4-11.7,48.9-12.6,72-2.3
			c-11.3,0.5-21.7,6.6-27.6,16.2c-5.1,8.5-6.2,18.8-10.5,27.7C257.6,620.7,233,630.3,211.6,621.6"/>
		<path class="st13" d="M207.1,568.5c-10.3-12.2-11.7-31.7-10.2-47.6s5.2-31.9,2.7-47.6c-1.5-9.3-5.1-18.2-6.3-27.6s0.5-20,7.8-26
			c8.3-6.9,21.5-5.3,30.2,1.2s13.7,16.8,17.4,27c8.1,22.5,11,47.3,4.4,70.2c-6.6,22.9-22.2,43.4-44.9,50.3"/>
		<path class="st5" d="M202.2,668.3c0-0.1,0-0.2,0-0.4v-1c0-0.9,0-2.3,0.1-4c0.1-3.5,0.5-8.5,1.2-14.7c0.9-7.3,2.3-14.5,4-21.6
			c2.1-8.7,5.5-17.1,9.9-25c4.4-7.8,9.8-15.1,16.1-21.5c5.1-5.3,10.7-10,16.8-14.1c2.6-1.8,5.1-3.1,7.2-4.4c2.1-1.2,4.1-2.1,5.7-2.9
			l3.7-1.5l1-0.4l0.3-0.1l-0.3,0.2l-0.9,0.5l-3.6,1.7c-1.5,0.8-3.4,1.8-5.6,3c-2.2,1.2-4.5,2.7-7.1,4.5c-6,4.1-11.6,8.8-16.6,14.1
			c-6.2,6.4-11.5,13.6-15.9,21.4c-4.4,7.7-7.7,16-9.9,24.6c-1.8,7.1-3.1,14.2-4.1,21.5c-0.9,6.2-1.3,11.2-1.5,14.7
			c-0.1,1.7-0.2,3-0.2,4c0,0.4,0,0.8-0.1,1.1C202.2,668,202.2,668.1,202.2,668.3z"/>
		<path class="st5" d="M113.3,520.5c-19.1,11.5-19,22-15.8,31.9s14.9,16.8,24.6,13.1c5.5-2.1,9.5-6.9,12.9-11.7s6.6-9.9,11.3-13.4
			c4.8-3.4,11.6-4.8,16.4-1.3"/>
		<path class="st13" d="M99,533.1c5-6.9,17.3-8.9,25.1-5.5s13.5,10.3,18.6,17.1c5,6.8,10.1,14,17.1,18.7c7.1,4.7,16.9,6.5,24,1.7
			c4.5-3.4,7.5-8.5,8.1-14.1s0.2-11.2-1.1-16.6c-1.7-8-4.4-16.3-10.8-21.4c-7.1-5.7-17-5.9-26.1-5.6c-10.5,0.3-21.1,1.1-30.8,4.7
			C113.2,515.6,103.2,523.5,99,533.1"/>
		<path class="st5" d="M186.3,653v-0.4c0-0.3,0-0.7,0-1.2c0-1.1-0.1-2.7-0.2-4.7c-0.1-4.2-0.3-10.1-0.5-17.4s-0.5-16.1-1.1-25.8
			c-0.5-9.7-1.3-20.4-2.7-31.5c-0.6-5.4-1.7-10.8-3.2-16c-1.5-4.8-3.5-9.5-5.8-14c-2.1-4.1-4.6-7.9-7.4-11.6
			c-2.4-3.2-5.1-6.1-8.1-8.8c-4.3-3.9-9.1-7.2-14.3-9.7c-0.9-0.4-1.7-0.8-2.5-1.1l-1.9-0.7l-1.1-0.5c-0.3-0.1-0.4-0.2-0.4-0.2
			c0.1,0,0.3,0.1,0.4,0.1l1.2,0.4l1.9,0.6c0.7,0.3,1.5,0.7,2.5,1.1c5.3,2.4,10.2,5.7,14.5,9.6c3,2.7,5.7,5.7,8.2,8.9
			c2.8,3.7,5.3,7.6,7.5,11.6c2.4,4.5,4.4,9.2,6,14.1c1.4,5.3,2.4,10.6,3,16c1.5,11.1,2.2,21.8,2.7,31.6s0.7,18.5,0.9,25.8
			c0.2,7.4,0.2,13.3,0.2,17.4c0,2,0,3.6,0,4.7c0,0.5,0,0.9,0,1.2C186.3,652.7,186.3,652.9,186.3,653z"/>
		<path class="st5" d="M193.2,661.6c-0.1-0.2-0.1-0.3-0.2-0.5c-0.1-0.4-0.3-0.9-0.5-1.5c-0.6-2-1.1-4-1.5-6.1
			c-1.3-7.6-1.6-15.3-0.9-23c1.2-11.4,3.7-22.6,7.4-33.4c3.9-12.3,9.2-25.4,13.8-39.5c2.2-6.9,4.1-13.8,5.5-20.9
			c1.3-6.6,2.2-13.2,2.7-19.9c0.9-11.3,1.1-22.7,0.6-34.1c-0.3-9.7-0.9-17.6-1.2-23c-0.2-2.7-0.3-4.8-0.4-6.3c0-0.7,0-1.2-0.1-1.6
			s0-0.6,0-0.6c0.1,0.2,0.1,0.4,0.1,0.6c0,0.4,0.1,0.9,0.2,1.6c0.1,1.5,0.3,3.6,0.5,6.2c0.4,5.4,1,13.3,1.5,23
			c0.5,11.4,0.4,22.8-0.4,34.2c-0.5,6.7-1.4,13.4-2.7,20c-1.4,7.1-3.2,14.2-5.5,21.1c-4.5,14.1-9.9,27.3-13.8,39.5
			c-3.7,10.8-6.2,21.9-7.4,33.2c-0.8,7.6-0.7,15.3,0.5,22.8c0.5,2.7,0.9,4.7,1.3,6.1c0.2,0.7,0.3,1.2,0.4,1.6
			C193.1,661.2,193.2,661.4,193.2,661.6z"/>
		<polygon class="st5" points="240.4,670.2 150.9,670.2 148.9,653 240.4,653 		"/>
		<polygon class="st5" points="160.5,668.3 171.7,720 220.4,720 230.8,668.3 		"/>
		<path class="st13" d="M240.4,670.2c0,0.2-19.7,0.3-44,0.3c-24.3-0.1-44-0.3-44-0.5s19.7-0.3,44-0.3S240.4,670,240.4,670.2z"/>
		<path class="st13" d="M225.1,695.7c-2.4-1.8-5.1-3.3-7.9-4.5c-3.1-1.2-6.3-1.9-9.6-1.9c-4,0-8,0.7-11.8,2.2
			c-4.1,1.4-7.9,3-11.6,3.9c-3.3,0.7-6.7,0.8-10,0.3c-2.2-0.3-4.4-1-6.4-2c-0.5-0.3-1-0.6-1.5-1c-0.2-0.1-0.3-0.2-0.5-0.4
			c0,0,0.8,0.5,2.2,1.1c2,0.9,4.2,1.5,6.4,1.8c3.3,0.4,6.6,0.3,9.8-0.5c3.6-0.9,7.4-2.5,11.5-3.9c3.8-1.4,7.9-2.2,12-2.1
			c3.4,0.1,6.7,0.8,9.8,2.1c2.1,0.9,4,2,5.8,3.4c0.5,0.4,0.9,0.8,1.4,1.2C225,695.6,225.1,695.7,225.1,695.7z"/>
		<path class="st1" d="M224.4,699.2c-2.3-1.8-4.8-3.3-7.5-4.5c-2.9-1.2-6.1-1.9-9.2-1.9c-3.9,0-7.8,0.7-11.4,2
			c-4,1.3-7.7,2.8-11.2,3.8c-3.1,0.9-6.4,1.3-9.6,1.1c-2.2-0.1-4.3-0.7-6.3-1.7c-0.5-0.3-1-0.6-1.5-0.9c-0.2-0.1-0.3-0.3-0.5-0.4
			c0-0.1,0.7,0.4,2.1,1.1c2,0.9,4.1,1.3,6.2,1.4c3.2,0.1,6.4-0.3,9.4-1.2c3.5-1,7.1-2.5,11.1-3.8c3.7-1.4,7.7-2.1,11.7-2
			c5.5,0.2,10.8,2.1,15,5.5c0.5,0.4,0.9,0.8,1.3,1.2C224.3,699,224.4,699.2,224.4,699.2z"/>
		<path class="st1" d="M226,692.3c0,0-0.7-0.6-2.1-1.5c-1.9-1.3-3.9-2.4-6-3.3c-3.1-1.4-6.4-2.2-9.8-2.4c-4.2-0.1-8.3,0.6-12.2,2.1
			s-7.9,2.9-12,3.9c-3.4,0.6-6.9,0.6-10.3,0c-2.3-0.4-4.6-1.1-6.6-2.1c-0.6-0.3-1.1-0.6-1.6-1c-0.4-0.3-0.5-0.4-0.5-0.4
			s0.8,0.5,2.3,1.2c2.1,0.9,4.3,1.5,6.6,1.8c3.4,0.5,6.8,0.4,10.1-0.2c4-1.1,8-2.4,11.9-4c4-1.5,8.2-2.3,12.5-2.1
			c3.5,0.3,6.9,1.1,10,2.6c2.1,1,4.2,2.2,6,3.6c0.5,0.4,1,0.8,1.5,1.2C225.8,692.1,226,692.3,226,692.3z"/>
	</g>
</g>
</svg>
