<?xml version="1.0" encoding="utf-8"?>
<!-- Generator: Adobe Illustrator 25.0.1, SVG Export Plug-In . SVG Version: 6.00 Build 0)  -->
<svg version="1.1" id="Layer_1" xmlns="http://www.w3.org/2000/svg" xmlns:xlink="http://www.w3.org/1999/xlink" x="0px" y="0px"
	 viewBox="0 0 500 500" style="enable-background:new 0 0 500 500;" xml:space="preserve">
<style type="text/css">
	.st0{fill:#E0E0E0;}
	.st1{fill:#F5F5F5;}
	.st2{fill:#EBEBEB;}
	.st3{fill:#FAFAFA;}
	.st4{fill:#FF725E;}
	.st5{fill:#263238;}
	.st6{opacity:0.3;}
	.st7{fill:#455A64;}
	.st8{fill:#FFBE9D;}
	.st9{fill:#EB996E;}
	.st10{fill:none;stroke:#000000;stroke-width:2;stroke-miterlimit:10;}
	.st11{fill:#FFFFFF;}
</style>
<g id="freepik--background-complete--inject-2">
	<rect x="69.1" y="287" class="st0" width="96.4" height="182.3"/>
	<rect x="40.5" y="287" class="st1" width="96.4" height="182.3"/>
	<path class="st0" d="M129.8,324.5H47.1v-28.9h82.8V324.5z M48.1,323.5h80.7v-26.9H48.1V323.5z"/>
	<path class="st2" d="M73.3,296.1h31.4l0,0v0.8c0,2.7-2.2,5-4.9,5h0H78.2c-2.7,0-4.9-2.2-4.9-5l0,0V296.1L73.3,296.1z"/>
	<path class="st0" d="M129.8,361.2H47.1v-28.9h82.8V361.2z M48.1,360.2h80.7v-26.9H48.1V360.2z"/>
	<path class="st2" d="M73.3,332.8h31.4l0,0v0.8c0,2.7-2.2,5-4.9,5h0H78.2c-2.7,0-4.9-2.2-4.9-5l0,0V332.8L73.3,332.8z"/>
	<path class="st0" d="M129.8,397.9H47.1V369h82.8V397.9z M48.1,396.9h80.7V370H48.1V396.9z"/>
	<path class="st2" d="M73.3,369.5h31.4l0,0v0.8c0,2.7-2.2,5-4.9,5h0H78.2c-2.7,0-4.9-2.2-4.9-5l0,0V369.5L73.3,369.5z"/>
	<path class="st0" d="M129.8,434.6H47.1v-28.9h82.8V434.6z M48.1,433.6h80.7v-26.9H48.1V433.6z"/>
	<path class="st2" d="M73.3,406.2h31.4l0,0v0.8c0,2.7-2.2,5-4.9,5c0,0,0,0-0.1,0H78.2c-2.7,0-5-2.2-5-4.9c0,0,0,0,0-0.1V406.2
		L73.3,406.2z"/>
	<rect x="36.2" y="280.2" class="st2" width="104.7" height="9.1"/>
	<rect x="141" y="280.2" class="st0" width="31.5" height="9.1"/>
	<rect x="40.5" y="469.2" class="st0" width="5.1" height="9.3"/>
	<rect x="71.8" y="469.2" class="st0" width="5.1" height="9.3"/>
	<rect x="129" y="469.2" class="st0" width="5.1" height="9.3"/>
	<rect x="157.6" y="469.2" class="st0" width="5.1" height="9.3"/>
	<polygon class="st0" points="129.8,255.9 139.5,280.9 133.5,280.9 128.6,265.5 	"/>
	<polygon class="st2" points="96.4,232.9 93.1,280.7 127.7,281.4 131.6,232.9 	"/>
	<polygon class="st3" points="99.9,236.7 97.1,276.5 122.9,277.7 126.5,236.5 	"/>
	<polygon class="st0" points="105.6,242.3 103.5,270.3 117.7,270.3 120.2,242.3 	"/>
	<rect x="320.6" y="47.2" class="st2" width="129.3" height="232.2"/>
	<rect x="325.8" y="54" class="st3" width="117.6" height="218.6"/>
	<polygon class="st0" points="455.4,281.6 449.9,279.5 449.9,43.3 455.4,43.3 	"/>
	<rect x="325.8" y="116.9" class="st0" width="120.2" height="2.3"/>
	<rect x="325.8" y="168.9" class="st0" width="120.2" height="2.3"/>
	<rect x="325.8" y="221" class="st0" width="120.2" height="2.3"/>
	<rect x="381.7" y="118" class="st0" width="5.9" height="160.7"/>
	<rect x="348.5" y="54" class="st0" width="2.7" height="64.1"/>
	<rect x="371.7" y="54" class="st0" width="2.7" height="64.1"/>
	<rect x="394.9" y="54" class="st0" width="2.7" height="64.1"/>
	<rect x="418.1" y="54" class="st0" width="2.7" height="64.1"/>
	<rect x="315.2" y="43.3" class="st0" width="5.5" height="237.6"/>
	<rect x="315.2" y="40.9" class="st0" width="140.2" height="6.3"/>
	<rect x="311.3" y="282.4" class="st0" width="147.8" height="5.9"/>
	<polygon class="st0" points="449.9,279.5 459.1,282.4 311.3,282.4 320.6,279.5 	"/>
	<rect x="46.1" y="137.9" class="st0" width="81.9" height="85.3"/>
	<rect x="40.5" y="137.9" class="st2" width="81.9" height="85.3"/>
	<rect x="51.5" y="149.4" class="st3" width="59.9" height="62.4"/>
	<path class="st0" d="M51.5,212.2c-0.4,0.6-0.9,1.2-1.5,1.7c-1,1-2.3,2.4-3.8,3.8s-2.9,2.8-3.9,3.8c-0.5,0.5-1.1,1-1.7,1.5
		c0.4-0.6,0.9-1.2,1.5-1.7c1-1,2.3-2.4,3.8-3.9s2.9-2.8,3.9-3.8C50.3,213.1,50.9,212.7,51.5,212.2z"/>
	<path class="st0" d="M111.4,212.1c0.6,0.4,1.2,0.9,1.7,1.5c1,1,2.4,2.3,3.8,3.8s2.8,2.9,3.8,3.9c0.5,0.5,1,1.1,1.5,1.7
		c-0.6-0.4-1.2-0.9-1.7-1.5c-1-1-2.4-2.3-3.9-3.8s-2.8-2.9-3.8-3.9C112.3,213.3,111.8,212.7,111.4,212.1z"/>
	<path class="st0" d="M111.2,149.6c0.4-0.6,0.9-1.2,1.5-1.7c1-1,2.3-2.4,3.8-3.9s2.9-2.8,3.9-3.8c0.5-0.5,1.1-1,1.7-1.5
		c-0.4,0.6-0.9,1.2-1.5,1.7c-1,1-2.3,2.4-3.8,3.9s-2.9,2.8-3.9,3.8C112.4,148.7,111.8,149.2,111.2,149.6z"/>
	<path class="st0" d="M51.4,149.7c-0.6-0.4-1.2-0.9-1.7-1.5c-1-1-2.4-2.3-3.8-3.8s-2.8-2.9-3.8-3.9c-0.5-0.5-1-1.1-1.5-1.7
		c0.6,0.4,1.2,0.9,1.7,1.5c1,1,2.4,2.3,3.9,3.8s2.8,2.9,3.8,3.9C50.4,148.5,50.9,149.1,51.4,149.7z"/>
	<path class="st0" d="M111.2,211.8c0,0,0-0.1,0-0.3s0-0.5,0-0.9c0-0.8,0-1.9,0-3.4c0-2.9,0-7.2,0-12.7c0-10.9-0.1-26.5-0.1-45.2
		l0.2,0.2H51.6l0,0l0.2-0.2c0,22.9,0,44.3,0,62.4l-0.2-0.2l43.2,0.1l12.1,0.1h3.2h1.1h-0.3h-0.8h-3.2H95l-43.4,0.1h-0.2v-0.2
		c0-18.1,0-39.5,0-62.4V149h0.2h59.7h0.2v0.2c0,18.7-0.1,34.3-0.1,45.3c0,5.4,0,9.7,0,12.7c0,1.4,0,2.6,0,3.3c0,0.4,0,0.6,0,0.9
		S111.2,211.8,111.2,211.8z"/>
	<path class="st2" d="M67.3,175.5c0,0-1.3,15.4,15.4,15.4C82.8,182.7,76,176.2,67.3,175.5z"/>
	<path class="st2" d="M97.9,175.5c0,0-15.4-1.3-15.4,15.5C90.7,191,97.2,184.1,97.9,175.5z"/>
	<path class="st0" d="M82,167c0,0-12.6,11.3,0.7,23.9C88.9,184.4,88.4,174.1,82,167z"/>
</g>
<g id="freepik--Plant--inject-2">
	<path class="st4" d="M385.7,417.7c-17-9.2-36.2-26-43.6-45C360.5,382.2,376,398.2,385.7,417.7"/>
	<path class="st4" d="M384.6,389.1c-17-9.2-36.2-26-43.6-45C359.4,353.6,374.9,369.6,384.6,389.1"/>
	<path class="st4" d="M382.1,361.2c-17-9.2-36.2-26-43.6-45C356.9,325.7,372.4,341.7,382.1,361.2"/>
	<path class="st4" d="M378.4,331.9c-15.8-11.5-32.8-30.8-38-50.8C357.5,293.1,371,311.2,378.4,331.9"/>
	<path class="st4" d="M373.5,309.2c-10.7-17.1-19.8-41.9-17.7-62.5C367.7,265.4,373.9,287.1,373.5,309.2"/>
	<path class="st4" d="M376,320c4.5-21.4,15.5-47.7,31.2-62.5C402.6,280.7,391.8,302.3,376,320"/>
	<path class="st4" d="M379.5,344.2c6.4-21.9,20-48.3,37.7-62.4C410.5,305.6,397.4,327.1,379.5,344.2"/>
	<path class="st4" d="M383.4,373.6c6.5-21.8,20-48.3,37.7-62.4C414.3,335,401.3,356.5,383.4,373.6"/>
	<path class="st4" d="M385.3,409.4c6.5-21.9,20-48.3,37.7-62.4C416.3,370.8,403.3,392.4,385.3,409.4"/>
	<path class="st5" d="M373.1,304.9c0,0,0,0.1,0.1,0.3s0.1,0.6,0.2,1l0.9,4c0.8,3.4,1.7,8.5,2.9,14.6s2.3,13.6,3.5,21.9
		s2.2,17.4,3.1,26.9s1.5,18.7,1.9,27.1s0.5,15.8,0.6,22.1s0,11.4-0.1,14.9c0,1.7-0.1,3.1-0.1,4.1c0,0.4,0,0.8,0,1c0,0.1,0,0.2,0,0.4
		c0-0.1,0-0.2,0-0.4c0-0.3,0-0.6,0-1.1v-4c0-3.5,0-8.6-0.1-14.9s-0.3-13.8-0.7-22.1s-1-17.5-1.9-27s-2-18.7-3.1-26.9
		s-2.3-15.7-3.3-21.9s-2-11.2-2.6-14.7c-0.3-1.7-0.6-3-0.7-4l-0.2-1C373.2,305.2,373.2,305.1,373.1,304.9z"/>
	<g class="st6">
		<path d="M385.7,417.7c-17-9.2-36.2-26-43.6-45C360.5,382.2,376,398.2,385.7,417.7"/>
	</g>
	<g class="st6">
		<path d="M384.6,389.1c-17-9.2-36.2-26-43.6-45C359.4,353.6,374.9,369.6,384.6,389.1"/>
	</g>
	<g class="st6">
		<path d="M382.1,361.2c-17-9.2-36.2-26-43.6-45C356.9,325.7,372.4,341.7,382.1,361.2"/>
	</g>
	<g class="st6">
		<path d="M378.4,331.9c-15.8-11.5-32.8-30.8-38-50.8C357.5,293.1,371,311.2,378.4,331.9"/>
	</g>
	<g class="st6">
		<path d="M373.5,309.2c-10.7-17.1-19.8-41.9-17.7-62.5C367.7,265.4,373.9,287.1,373.5,309.2"/>
	</g>
	<g class="st6">
		<path d="M376,320c4.5-21.4,15.5-47.7,31.2-62.5C402.6,280.7,391.8,302.3,376,320"/>
	</g>
	<g class="st6">
		<path d="M379.5,344.2c6.4-21.9,20-48.3,37.7-62.4C410.5,305.6,397.4,327.1,379.5,344.2"/>
	</g>
	<g class="st6">
		<path d="M383.4,373.6c6.5-21.8,20-48.3,37.7-62.4C414.3,335,401.3,356.5,383.4,373.6"/>
	</g>
	<g class="st6">
		<path d="M385.3,409.4c6.5-21.9,20-48.3,37.7-62.4C416.3,370.8,403.3,392.4,385.3,409.4"/>
	</g>
	<path class="st4" d="M390,423.5c-10.4-13.7-20-34-19.9-51.3C381.6,386.9,388.6,404.8,390,423.5"/>
	<path class="st4" d="M398.1,401.3c-10.4-13.7-20-34-19.9-51.3C389.7,364.8,396.6,382.6,398.1,401.3"/>
	<path class="st4" d="M404.8,379.1c-10.4-13.7-20-34-19.9-51.3C396.4,342.6,403.3,360.4,404.8,379.1"/>
	<path class="st4" d="M411,355.4c-8.7-15-15.9-36.3-13.7-53.5C407,318,411.7,336.6,411,355.4"/>
	<path class="st4" d="M414.3,336.3c-3-17.2-2.4-39.6,5.7-54.5C423.5,300.2,421.5,319.1,414.3,336.3"/>
	<path class="st4" d="M412.8,345.4c10.2-14.4,26.8-30.2,43.7-35.2C445.8,326,430.6,338.3,412.8,345.4"/>
	<path class="st4" d="M408.1,365.1c11.8-14.1,30.6-28.8,48.7-32.6C444.1,348,427.2,359.3,408.1,365.1"/>
	<path class="st4" d="M401.9,389c11.8-14.1,30.6-28.9,48.7-32.6C438,371.8,421,383.2,401.9,389"/>
	<path class="st4" d="M392.3,417c11.8-14.1,30.6-28.9,48.7-32.6C428.3,399.8,411.4,411.2,392.3,417"/>
	<path class="st5" d="M415.3,332.9c0,0,0,0.1,0,0.3s-0.1,0.5-0.1,0.9c-0.1,0.8-0.3,1.9-0.5,3.3c-0.5,2.9-1.3,7-2.3,12.1
		c-2.1,10.2-5.4,24.3-10,39.5c-2.3,7.6-4.7,14.8-7,21.4s-4.5,12.3-6.5,17.1s-3.6,8.7-4.8,11.4l-1.4,3.1l-0.4,0.8
		c-0.1,0.2-0.1,0.3-0.1,0.3c0-0.1,0-0.2,0.1-0.3c0.1-0.2,0.2-0.5,0.3-0.8c0.3-0.8,0.7-1.8,1.3-3.1c1.1-2.7,2.7-6.6,4.6-11.5
		s4-10.7,6.4-17.2s4.6-13.7,6.9-21.3c4.6-15.2,8-29.2,10.2-39.4c1.1-5.1,2-9.2,2.5-12.1c0.3-1.4,0.5-2.5,0.7-3.3
		c0.1-0.3,0.1-0.6,0.2-0.9C415.2,333.1,415.3,333,415.3,332.9z"/>
	<polygon class="st7" points="406.3,479.2 369.9,479.2 363.1,429 413.3,429 	"/>
	<rect x="358.6" y="428.5" class="st7" width="59.3" height="7.8"/>
	<path class="st5" d="M417.8,436.4c0,0.1-13.1,0.3-29.3,0.3s-29.3-0.1-29.3-0.3s13.1-0.3,29.3-0.3S417.8,436.3,417.8,436.4z"/>
</g>
<g id="freepik--Character--inject-2">
	<g>
		<path d="M199.3,114.8c-1.7,0.9-2.3,1.3-2.1,3.3c0.3,2.8,4.2,8.4,6.8,8.2c-2.3,1-5.3-0.8-3.8,1.3c1.5,2.1,6.9,8.1,9.3,7.5
			s4.4-2.2,6.1-4c1.7-1.8,3.2-3.8,5-5.5c1.8-1.7,4.1-3,6.6-2.9c3.3,0.1,6.3,2.5,8.1,5.6c1.7,3.1,2.3,6.6,2.7,10.1
			c0.4,3.5,0.7,7,2,10.3c0.1,0.4,0.4,0.8,0.7,0.9c0.6,0.1,1-0.5,1.2-1c2.6-6,4-12.6,4.2-19.3c0.1-3.9-0.2-7.6-2.5-10.7
			c-2.3-3.2-7.5-5.9-9.8-3.7c-1.1-3.4-3.4-4.8-6.7-5.8c-2.7-0.8-5.1-2.4-8-1.4c-1.3,0.5-2.4,1.2-3.6,1.8c-2.9,1.3-6,1.5-9.2,1.2
			c-2.2-0.2-6.5-2-8.4-1.1C198,110.3,199.5,114.7,199.3,114.8z"/>
		<g>
			<path class="st8" d="M237.5,184.7L237.5,184.7c6.3-0.8,10.6-7,9.6-13.6l-5.9-39.7c-0.9-10.3-7.4-18.6-17.1-17.7l-0.9,0.1
				c-9,1.4-15.2,9.9-14.3,19.5c0.8,8.9,1.9,18.8,2.8,23.5c1.8,9.8,11.3,9.9,11.3,9.9l1.2,7.4C225.2,180.9,231.2,185.5,237.5,184.7z"
				/>
			<g>
				<g>
					<path d="M233.4,184.2c-3.4-0.9-6.3-3.5-7.8-6.7c-0.2-0.4-0.3-0.8-0.5-1.3l-0.2-0.6c0-0.1-0.1-0.2-0.1-0.3l-0.1-0.3
						c-0.2-0.9-0.3-1.8-0.4-2.7l-0.4-2.8l-0.2-1.4l-0.1-0.8c-0.1-0.4-0.1-0.8-0.2-1.2c-0.3,0-0.7,0-1,0c-0.1,0-0.2,0-0.3,0l-0.1,0
						l-0.3,0c-0.4,0-0.7-0.1-1.1-0.2c-0.7-0.2-1.4-0.4-2.1-0.7c-1.3-0.6-2.6-1.4-3.6-2.5c-1-1.1-1.7-2.4-2.2-3.8
						c-0.1-0.4-0.2-0.7-0.3-1.1c-0.1-0.4-0.1-0.7-0.2-1.1c-0.1-0.8-0.3-1.6-0.3-2.4c-0.4-3.2-0.8-6.4-1.1-9.6
						c-0.3-3.2-0.6-6.4-0.9-9.6c-0.1-0.8-0.2-1.6-0.2-2.4l0-0.6c0-0.2,0-0.4,0-0.6l0-1.1c0.1-1.5,0.4-3,0.9-4.4l0.2-0.5l0.2-0.5
						c0.1-0.3,0.3-0.7,0.5-1c0.4-0.7,0.7-1.3,1.1-1.9c0.4-0.6,0.9-1.2,1.3-1.8c0.2-0.3,0.5-0.5,0.8-0.8l0.4-0.4l0.4-0.3
						c1.1-1,2.3-1.7,3.6-2.4l1-0.4c0.3-0.1,0.7-0.2,1-0.3c0.7-0.3,1.4-0.4,2.1-0.5c2.8-0.6,5.8-0.2,8.4,1.2c2.5,1.3,4.6,3.5,6.1,6.1
						c1.5,2.6,2.4,5.5,2.8,8.5c0.1,0.8,0.2,1.5,0.3,2.3l0.4,2.3c0.2,1.5,0.5,3.1,0.8,4.6c0.5,3.1,1,6.1,1.4,9.2l3,18.7
						c0.2,1.2,0.4,2.4,0.6,3.6c0.2,1.2,0.1,2.4,0,3.6c-0.2,1.2-0.5,2.3-1,3.4l-0.4,0.8l-0.5,0.8c-0.1,0.3-0.3,0.5-0.5,0.7l-0.3,0.3
						c-0.1,0.1-0.2,0.2-0.3,0.3c-0.2,0.2-0.4,0.4-0.6,0.7l-0.7,0.6c-0.5,0.4-1,0.7-1.5,1c-1,0.6-2.1,1-3.3,1.2l-0.4,0.1
						c1.8-0.2,3.4-0.9,4.9-1.9c1.9-1.3,3.4-3.3,4.2-5.5c0.4-1.1,0.7-2.3,0.8-3.5c0.1-1.2,0-2.5-0.2-3.7l-2.7-19.8l-1.5-10.8
						l-0.7-5.4l-0.4-2.7c-0.1-0.9-0.2-1.8-0.4-2.8c-0.4-2-1-3.9-1.8-5.8c-0.8-1.8-2-3.6-3.3-5.1c-1.4-1.5-3-2.7-4.9-3.5
						c-0.9-0.4-1.9-0.7-2.8-0.9c-0.9-0.2-1.9-0.3-2.9-0.3l-0.7,0l-0.7,0c-0.3,0-0.5,0.1-0.7,0.1c-0.2,0-0.5,0.1-0.7,0.1l-1.4,0.3
						l-1.4,0.4c-1.8,0.6-3.5,1.6-5.1,2.8c-0.4,0.3-0.7,0.6-1.1,0.9l-1,1.1c-0.3,0.4-0.6,0.8-0.9,1.1c-0.2,0.2-0.3,0.4-0.4,0.6
						l-0.4,0.6c-1.1,1.7-1.9,3.5-2.4,5.5c-0.5,2-0.7,4-0.6,6.1l0,0.8c0,0.3,0,0.5,0.1,0.7l0.1,1.5l0.3,2.9c0.4,3.9,0.8,7.8,1.3,11.7
						c0.3,1.9,0.5,3.9,0.8,5.9c0.2,1,0.4,2,0.7,3c0.3,1,0.8,2,1.3,2.9c1.1,1.8,2.8,3.2,4.6,4.1c0.9,0.5,1.8,0.8,2.8,1
						c0.5,0.1,1,0.2,1.5,0.3l0.4,0l0.2,0l0.2,0c0,0,0.1,0,0.1,0c0,0,0,0.1,0,0.2l0.1,0.8l0.3,1.6l0.6,3.3c0,0.3,0.1,0.8,0.3,1.6
						c0.1,0.2,0.1,0.4,0.1,0.6c0.1,0.2,0.1,0.4,0.2,0.7c0.1,0.5,0.3,0.9,0.6,1.4c0.9,2,2.7,4.2,4.8,5.5s4.4,1.9,6,1.9
						c0.4,0,0.7,0,1,0c0.3,0,0.6-0.1,0.7-0.1c0.3-0.1,0.5-0.2,0.3-0.2c-0.1,0-0.4,0-0.7-0.1c-0.2,0-0.3,0-0.6,0c-0.2,0-0.4,0-0.6,0
						C234.7,184.5,233.8,184.3,233.4,184.2z"/>
				</g>
			</g>
		</g>
		<path class="st9" d="M223.9,168.6c9.4-0.6,11-8.1,11-8.1c-3.2,3-7.1,4.9-11.5,5.5L223.9,168.6z"/>
		<path d="M213.2,143.8c-0.1-0.7,0.4-1.4,1.1-1.5c0.7-0.1,1.4,0.5,1.5,1.3l0,0c0.1,0.7-0.4,1.4-1.1,1.5
			C214,145.1,213.3,144.6,213.2,143.8C213.2,143.8,213.2,143.8,213.2,143.8z"/>
		<path d="M224.2,141.8c-0.1-0.8,0.4-1.4,1.1-1.5c0.7-0.1,1.4,0.5,1.5,1.3l0,0c0.1,0.8-0.4,1.4-1.1,1.5
			C225,143.2,224.3,142.6,224.2,141.8C224.3,141.8,224.2,141.8,224.2,141.8z"/>
		<path d="M224.6,130.1c1.5-0.9,3.4-1,5-0.2c0.6,0.3,0.9,0.6,0.8,0.9c-0.2,0.4-1.6,0.1-3.3,0.2c-1.7,0.1-3.1,0.5-3.3,0.1
			C223.8,130.8,224.1,130.4,224.6,130.1z"/>
		<path d="M211.8,132.5c1-1.1,2.5-1.4,3.9-0.7c0.5,0.3,0.7,0.6,0.6,0.8c-0.2,0.4-1.2,0.3-2.4,0.5c-1.2,0.2-2.1,0.7-2.4,0.4
			C211.3,133.2,211.4,132.9,211.8,132.5z"/>
		<g>
			<path class="st8" d="M242.7,148.6c0,0.2,6.7,0.8,5.7-5.9c-1-6.7-6.8-3.9-7-3.7"/>
			<g>
				<g>
					<path d="M241.9,138.9c0.8-0.2,1.7-0.4,2.5-0.3c0.8,0.1,1.6,0.3,2.2,0.9c0.3,0.3,0.5,0.6,0.7,1c0.2,0.4,0.3,0.8,0.5,1.2
						c0.2,0.8,0.4,1.7,0.4,2.6c0,0.6-0.1,1.3-0.3,1.9c-0.2,0.6-0.6,1.1-1.1,1.5c-0.5,0.4-1.1,0.7-1.7,0.9c-0.5,0.1-1,0.3-1.5,0.3
						c-0.3,0-0.5,0-0.8,0l0,0c0.1,0.1,0.2,0.1,0.3,0.1c0.1,0,0.2,0,0.3,0c0.5,0,1,0,1.5,0c0.7-0.1,1.4-0.3,2-0.7
						c0.7-0.4,1.3-1.1,1.6-1.8c0.4-0.9,0.5-1.9,0.5-2.9c-0.1-1-0.3-1.9-0.6-2.9c-0.2-0.5-0.5-0.9-0.8-1.3c-0.3-0.4-0.8-0.7-1.3-0.9
						c-0.9-0.4-1.9-0.4-2.8-0.2c-0.1,0-0.7,0.2-1.2,0.4c-0.5,0.2-0.9,0.5-0.7,0.7C241.5,139.1,241.8,138.9,241.9,138.9z"/>
				</g>
			</g>
		</g>
		<path d="M244,146.1c0.3,0.2,0.7,0.2,1,0.1c0.9-0.4,1.3-1.7,1.2-3.1c-0.1-0.6-0.3-1.3-0.6-1.8c-0.3-0.5-0.8-0.9-1.3-0.9
			c-0.2,0-0.4,0.1-0.6,0.2c-0.1,0.1-0.2,0.3-0.2,0.5c0,0.3,0.1,0.4,0.1,0.4c0,0,0-0.1,0-0.3c0.1-0.3,0.3-0.5,0.6-0.4
			c0.4,0.1,0.8,0.4,1,0.8c0.3,0.5,0.5,1.1,0.5,1.6c0.2,1.2-0.3,2.4-0.9,2.7c-0.3,0.2-0.5,0.2-0.8,0.1c-0.2-0.1-0.3-0.1-0.3-0.1
			C243.7,145.9,243.8,146,244,146.1z"/>
		<path d="M207.2,124.2c0.6-2,1.6-3.9,3.1-5.3c2.9-3.3,6.9-5.6,11.2-6.4c4.3-0.8,8.9,0.2,12.6,2.9c2.9,2.2,5.2,5.2,6.5,8.7
			c1.3,3.5,2,7.2,1.9,10.9c0,1.6-0.1,3.3-1,4.6c-0.5,0.8-1.6,1.5-2.4,1c-0.5-0.4-0.8-0.9-1-1.4c-2.1-5-4.3-10.4-3.3-15.6
			c-1.5-1.5-2.4,0-4.3-0.8c-1.9-0.8-4-0.8-5.9,0.1c-2.7,1.4-4.7,1.8-6.6,4.2c-2.8,3.4-7,5.2-11.4,4.7"/>
		<g>
			<path class="st10" d="M224.2,144.7l9.9-1.2c0.8-0.1,1.4-0.9,1.3-1.8l-1-6.9c-0.1-0.9-0.9-1.5-1.7-1.4l-9.9,1.2
				c-0.8,0.1-1.4,0.9-1.3,1.8l1,6.9C222.6,144.2,223.4,144.8,224.2,144.7z"/>
			<path class="st10" d="M207.7,146.8l9.9-1.2c0.8-0.1,1.4-0.9,1.3-1.8l-1-6.9c-0.1-0.9-0.9-1.5-1.7-1.4l-9.9,1.2
				c-0.8,0.1-1.4,0.9-1.3,1.8l1,6.9C206.1,146.3,206.8,146.9,207.7,146.8z"/>
			<line class="st10" x1="244.7" y1="139.3" x2="234.9" y2="138.2"/>
			<line class="st10" x1="209.8" y1="141.4" x2="205.3" y2="140.9"/>
			<line class="st10" x1="221.7" y1="137.8" x2="218" y2="138.3"/>
		</g>
		<path d="M225.5,155.7c-0.6,0.5-1.2,0.8-2,0.8c-0.7,0.1-1.4-0.1-2.1-0.5c-0.6-0.3-1.1-0.8-1.3-1.4c0-0.1-0.1-0.2,0-0.3
			c0-0.1,0.1-0.2,0.1-0.2c0.1-0.1,0.2-0.1,0.3-0.1c0.1,0,0.1,0,0.2,0.1c0.1,0.1,0.2,0.1,0.3,0.2c0.7,0.4,1.5,0.7,2.3,0.6
			c0.4-0.1,0.8-0.3,1.1-0.6c0.3-0.3,0.5-0.7,0.7-1.1l0,0c0.1-0.3,0.2-0.4,0.4-0.5c0.2-0.1,0.4-0.1,0.7,0s0.4,0.2,0.5,0.5
			c0.1,0.2,0.1,0.4,0,0.7C226.5,154.6,226,155.2,225.5,155.7L225.5,155.7z"/>
		<path d="M219.7,146c-3.5,1.7,0.4,8,4.1,2.9c0.4-0.6-0.6-1.5-1.1-0.9c-0.5,0.7-1.5,2.3-2.7,1.5c-1.1-0.9-0.3-2.4,0.2-3.1
			C220.4,146.2,220.1,145.8,219.7,146z"/>
	</g>
	<path class="st4" d="M266.3,447.2l-2,32.4l-40.4-2.4c0.5-3.8,21.8-10.4,21.8-10.4l0.5-20.9L266.3,447.2z"/>
	<path class="st0" d="M258.4,466c-0.8-0.3-1.8,0.1-2.1,0.9c-0.2,0.9,0.3,1.7,1.1,2c0.8,0.2,1.7-0.2,1.9-1c0.2-0.8-0.2-1.7-1-1.9"/>
	<path class="st5" d="M223.9,477.2c-0.1-1.3,1.7-1.9,1.7-1.9l38.7,1l-0.1,3.3L223.9,477.2z"/>
	<path class="st5" d="M247.4,467.2c1.1,0.8,1.4,2,1.2,2s-0.6-0.8-1.6-1.5c-1-0.7-2-0.9-2-1.1C245,466.5,246.3,466.3,247.4,467.2z"/>
	<path class="st5" d="M242.7,469.2c0.8,1.1,0.6,2.2,0.4,2.2s-0.3-0.9-0.9-1.8c-0.6-0.9-1.4-1.3-1.4-1.4
		C240.7,468,241.9,468.1,242.7,469.2z"/>
	<path class="st5" d="M237.5,471.3c-0.4-0.9-0.9-1.5-0.8-1.7c0.1-0.2,1,0.4,1.4,1.4c0.4,1.1,0.1,2.1-0.1,2
		C237.8,473,237.8,472.2,237.5,471.3z"/>
	<path class="st5" d="M247.9,461.3c1.3,0.2,2,0.9,2,1.1s-1-0.2-2.1-0.4c-1.1-0.1-2,0.1-2.1-0.1C245.6,461.7,246.6,461.1,247.9,461.3
		z"/>
	<path class="st4" d="M285.6,423l20.6,25.2l-31.2,25.8c-2.3-3.1,8.9-22.4,8.9-22.4l-13.8-15.6L285.6,423z"/>
	<path class="st0" d="M292.6,442.1c-0.8,0.3-1.3,1.2-1,2.1c0.4,0.8,1.4,1.1,2.2,0.8c0.7-0.4,1.1-1.3,0.7-2.1c-0.4-0.7-1.3-1-2.1-0.7
		"/>
	<path class="st5" d="M275.1,473.9c-1-0.8-0.1-2.6-0.1-2.6l29-25.6l2.2,2.5L275.1,473.9z"/>
	<path class="st5" d="M285.3,450.5c1.4-0.2,2.3,0.5,2.3,0.7c-0.1,0.2-1-0.1-2.2,0c-1.1,0.1-2,0.7-2.1,0.5
		C283.2,451.6,283.9,450.7,285.3,450.5z"/>
	<path class="st5" d="M283.3,455.2c1.3,0.2,1.9,1.2,1.8,1.3s-0.9-0.4-1.9-0.6s-1.9,0.1-2-0.1C281.1,455.6,282,454.9,283.3,455.2z"/>
	<path class="st5" d="M280.9,460.3c-0.9-0.4-1.7-0.5-1.7-0.7s0.9-0.4,2,0.1c1.1,0.5,1.5,1.4,1.3,1.5
		C282.4,461.3,281.8,460.7,280.9,460.3z"/>
	<path class="st5" d="M281.8,445.9c1.1-0.8,2.1-0.8,2.2-0.6s-0.9,0.5-1.8,1.1c-0.9,0.7-1.4,1.4-1.6,1.4
		C280.4,447.8,280.7,446.7,281.8,445.9z"/>
	<path class="st8" d="M189.1,220.5c0,0,7.5,13.1,13.5,19.7c6,6.6,8.3,4.7,8.3,4.7l5-9.6l0.4-4.6L199,218.1L189.1,220.5z"/>
	<path class="st5" d="M169.9,192.9l25.7,24l9.4-1.9l1.2-1.1l-24.1-22.4c-0.6-0.5-1.3-0.8-2.1-0.7l-8.7,0.8c-0.5,0-1,0.4-1.2,0.8
		L169.9,192.9z"/>
	<path class="st7" d="M171.6,192.6l4.6-0.5l3.2-0.3c0.7-0.1,1.3,0.1,1.8,0.5l1.4,1.3l6.2,5.7c4.4,4.1,8.3,7.8,11.2,10.5l3.3,3.2
		c0.4,0.4,0.8,0.8,1.2,1.2c-0.5-0.3-0.9-0.7-1.3-1.1c-0.9-0.8-2-1.8-3.5-3.1c-2.9-2.6-6.9-6.3-11.2-10.3l-6.2-5.7l-1.4-1.3
		c-0.4-0.4-1-0.5-1.5-0.4l-3.2,0.3l-4.6,0.4c-0.6,0.1-1.1,0.1-1.7,0.1C170.5,192.7,171,192.6,171.6,192.6z"/>
	<path class="st8" d="M178.4,200.9c0,0.3,3.7,10.1,3.7,11.2c0.1,1.8,0.4,3.6,1,5.3c0.7,1.3,3.1,0.3,3.1,0.3c0,0.7,0.2,1.4,0.6,2
		c0.5,0.7,2.2,0.8,2.2,0.8c0.2,0.7,0.5,1.4,0.9,2c0.5,0.8,3.6,0.3,3.6,0.3l4.9-4c0,0,3.6-5.2,3.8-6.5c0.2-1.3-1.1-1-1.1-1l-3.8,3.7
		l-3.6,1.2c0,0,3.9-6,4.2-7.6c0.4-1.6-2.3-1.7-2.3-1.7l-6.5,5.3l1.7-4.3c0,0,3.4-1.5,4.1-2.3s-0.7-1.6-0.7-1.6l-5.7,0.6l-3.9,3.4
		c0,0-3.1-6.3-4.1-8.5s-1.8-1.8-1.8-1.8C177.1,197.4,178.4,200.6,178.4,200.9z"/>
	<path class="st9" d="M194.7,221.2c1.5-0.9,2.9-1.9,4.1-3.1c0.1,0-0.2,0.6-0.8,1.3c-1.7,1.9-4.1,3.1-6.6,3.3
		c-0.5,0.1-1.1,0.1-1.6-0.1C189.8,222.5,192.2,222.5,194.7,221.2z"/>
	<path class="st9" d="M192,218.2c0.8-1.1,1.5-2,1.7-1.9c0.1,0.1-0.4,1.1-1.2,2.2s-1.7,1.9-1.8,1.8
		C190.5,220.2,191.1,219.3,192,218.2z"/>
	<path class="st9" d="M187.8,214.1c0.7-1.1,1.4-2,1.5-1.9c0.1,0.1-0.3,1.1-1,2.3s-1.6,1.9-1.7,1.8
		C186.4,216.1,187.1,215.2,187.8,214.1z"/>
	<path class="st9" d="M183.1,210.4c0.6-1.4,1.6-2.3,1.7-2.2c-0.3,0.9-0.7,1.7-1.1,2.5c-0.3,0.9-0.7,1.7-1.1,2.5
		C182.4,212.2,182.6,211.2,183.1,210.4z"/>
	<path class="st5" d="M231.1,268.6c0,0,8.9,80.6,8.9,81.8c0,1.2,4.4,110.2,4.4,110.2l23.3,1.9c0,0,5.2-73.2,4.8-78.4
		c-0.4-5.2-0.7-29.2-0.7-29.2l4.4-25.3l0.3-5.2l4.3-23.7l-3.5-29L231.1,268.6z"/>
	<path class="st5" d="M251.4,269.9l-0.7,93.1l46.8,68.6l-20,14.3c0,0-58.8-63.1-60.7-68.8c-2-5.7,1.5-103.3,1.5-103.3L251.4,269.9z"
		/>
	<path class="st7" d="M238.3,355.2c2.5,30.5,4.5,55.3,4.3,55.3s-2.3-24.7-4.8-55.2s-4.4-55.3-4.3-55.3
		C233.6,299.9,235.8,324.7,238.3,355.2z"/>
	<path class="st7" d="M271.6,355.1c0,0.2,0.1,0.4,0.1,0.7c0,0.7,0.1,1.6,0.2,2.7c0.2,2.3,0.3,5.8,0.4,10c0.2,8.5,0.2,20.2-0.4,33
		c-0.6,12.9-1.5,24.5-2.2,32.9c-0.3,4.2-0.6,7.6-0.8,10c-0.1,1.1-0.2,2-0.2,2.7c0,0.3,0,0.5,0,0.7c0,0.1,0,0.2,0,0.2
		c0-0.1,0-0.2,0-0.2c0-0.2,0-0.4,0-0.7c0-0.7,0.1-1.6,0.1-2.7c0.2-2.4,0.4-5.8,0.6-10c0.6-8.5,1.4-20.1,2-32.9
		c0.6-12.8,0.7-24.5,0.5-32.9c-0.1-4.2-0.2-7.7-0.3-10c0-1.2-0.1-2.1-0.1-2.7C271.7,355.5,271.7,355.3,271.6,355.1
		c0.1-0.1,0.1-0.2,0.1-0.3C271.7,355,271.7,355.1,271.6,355.1z"/>
	<path class="st7" d="M259.9,303.5c5.2,2.9,9.3,5.3,9.3,5.4c-0.1,0.1-4.3-2.1-9.5-4.9c-5.2-2.8-9.3-5.3-9.3-5.4
		C250.4,298.4,254.7,300.6,259.9,303.5z"/>
	<path class="st4" d="M216.7,226.4c0,0,6.1,34.9,0.6,30.3s-23-25.4-23-25.4l12.1-10.1L216.7,226.4z"/>
	<path class="st4" d="M242.5,163.9l-17.6,13.9l-1.7-6.4c0,0-6.1,21.4-6.6,29.1c-0.5,7.8,1.3,59.4,1.3,59.4l-2.4,28.5
		c2.5,8.3,8.1,7.3,8.1,7.3l3.7-15l3.4,13.1c2-1.4,31.7-8.5,37.5-8.1s13,11.5,13,11.5l-3.1-57.7l-6-64.7l-18.7-7.8l-4.6-6.9
		L242.5,163.9z"/>
	<path class="st4" d="M257,199.7l6,41.3l-8.2,41.6l15.8,6.4c0,0,12.8-26.1,16.2-35.3c3.3-9.2-1.4-34.2-4.5-57.3
		c-3.1-23.1-15.5-23.6-15.5-23.6C257.1,174,257,199.7,257,199.7z"/>
	<path class="st8" d="M244,303.1c0,0,3.1,2.2,4.1,0.3c0.8-1.7,1.4-3.5,1.8-5.4l16.3,9.6c0,0,1-5,1.7-9.7c0.5-3.2,0.6-6.5,0.5-9.8
		l-12.5-5.1c-0.6-0.2-8.6,8.4-8.6,8.4L244,303.1z"/>
	<path class="st5" d="M257.2,200.5c0.1,0.5,0.2,1.2,0.3,2.2c0.3,1.9,0.7,4.7,1.2,8.2c1.1,7.2,2.6,17.5,4.4,30.1l0,0.1
		c-2.3,11.8-5.1,26-8.2,41.6l-0.1-0.3l15.8,6.4l-0.3,0.1c1.8-3.8,3.7-7.7,5.6-11.6c3.4-7.2,6.6-14.1,9.5-20.9c0.4-0.9,0.7-1.7,1-2.6
		c0.2-0.4,0.3-0.9,0.4-1.3c0.1-0.4,0.2-0.9,0.3-1.3c0.2-0.9,0.3-1.8,0.3-2.7c0-0.9,0.1-1.8,0.1-2.7c0-3.5-0.1-7-0.5-10.4
		c-0.6-6.8-1.7-13.2-2.4-19.2c-0.8-6-1.6-11.6-2.3-16.7c-0.3-2.6-0.7-5-1.1-7.3c-0.3-1.1-0.5-2.2-0.8-3.3c-0.3-1.1-0.7-2-1-3
		c-1.1-3.3-2.9-6.4-5.3-8.9c-1.5-1.6-3.4-2.9-5.4-3.7c-0.5-0.2-1.1-0.4-1.7-0.5l-0.6-0.1l0.1,0l0.4,0c0.6,0.1,1.1,0.2,1.7,0.4
		c2.1,0.8,4,2,5.5,3.6c2.4,2.6,4.3,5.6,5.4,9c0.3,1,0.7,2,1,3c0.3,1.1,0.5,2.2,0.8,3.3c0.4,2.3,0.8,4.7,1.2,7.3
		c0.7,5.1,1.6,10.7,2.4,16.7s1.8,12.4,2.4,19.2c0.3,3.5,0.5,7,0.5,10.5c0,0.9-0.1,1.8-0.1,2.7c-0.1,0.9-0.2,1.8-0.3,2.7
		c-0.1,0.5-0.2,0.9-0.3,1.4c-0.1,0.4-0.2,0.9-0.4,1.3c-0.3,0.9-0.6,1.7-1,2.6c-2.9,6.9-6.1,13.8-9.5,20.9l-5.6,11.6l-0.1,0.2
		l-0.2-0.1l-15.8-6.4l-0.2-0.1l0-0.2c3.1-15.5,5.9-29.7,8.3-41.6l0,0.1c-1.8-12.7-3.3-23-4.3-30.1c-0.5-3.6-0.9-6.4-1.1-8.3
		c-0.1-0.9-0.2-1.7-0.3-2.2c-0.1-0.5-0.1-0.7-0.1-0.7S257.1,200,257.2,200.5z"/>
	<path class="st5" d="M225.3,178.5l1.2,2.3c1,2,2.4,4.9,4,8.2l-0.4,0c1.6-2,3.3-4.2,5.3-6.4c3.3-3.7,6.9-7.1,10.6-10.3
		c1.4-1.2,2.6-2.2,3.5-2.8c0.4-0.4,0.9-0.7,1.3-0.9c-0.4,0.4-0.8,0.8-1.2,1.1c-0.8,0.7-2,1.7-3.4,2.9c-3.7,3.3-7.2,6.7-10.5,10.4
		c-2,2.2-3.8,4.3-5.3,6.3l-0.2,0.3l-0.1-0.3l-3.9-8.3l-1.1-2.4c-0.1-0.3-0.3-0.6-0.3-0.9C225,178,225.1,178.3,225.3,178.5z"/>
	<path class="st5" d="M220.3,182.9c-0.2,1.6-0.1,3.2,0,4.7l-0.4-0.1c0.2-0.3,0.4-0.6,0.5-1c0.9-1.9,1.6-3.8,2.2-5.1
		c0.3-0.7,0.7-1.4,1.2-2c0.1,0-0.3,0.9-0.9,2.1c-0.6,1.3-1.1,3.2-2.1,5.2c-0.2,0.4-0.4,0.7-0.6,1l-0.4,0.6l-0.1-0.7
		c-0.4-3.9,0.5-6.8,0.7-6.7C220.5,181,220.3,181.7,220.3,182.9z"/>
	<path class="st5" d="M223.9,181.3c0,0.2,0,0.4,0,0.8c0,0.7,0,1.7,0,2.9c0,2.5,0,6.2,0.1,10.7c0.2,9,0.9,21.5,1.4,35.3
		s1.1,26.2,1.5,35.3c0.2,4.5,0.3,8.1,0.4,10.7c0,1.2,0.1,2.2,0.1,2.9c0,0.3,0,0.5,0,0.7c0,0.1,0,0.2,0,0.3c0-0.1,0-0.2,0-0.3
		c-0.1-0.2-0.1-0.4-0.1-0.8c0-0.7-0.1-1.7-0.2-2.9c-0.2-2.6-0.4-6.2-0.6-10.7c-0.4-9.1-1-21.5-1.6-35.3c-0.6-13.8-1.2-26.3-1.3-35.3
		c-0.1-4.5-0.1-8.2,0-10.7c0.1-1.3,0.1-2.2,0.1-2.9C223.8,181.7,223.8,181.5,223.9,181.3c-0.1-0.1-0.1-0.2-0.1-0.3
		C223.9,181.1,223.9,181.2,223.9,181.3z"/>
	<path class="st5" d="M217.2,231.6c0.4,15.7,0.5,28.5,0.5,28.5s-0.6-12.8-0.9-28.5c-0.4-15.7-0.6-28.5-0.5-28.5
		C216.4,203.1,216.8,215.9,217.2,231.6z"/>
	<path class="st5" d="M254.3,188.4c0-0.7,0.2-1.5,0.3-2.2c1.2-4.9,5-8.7,9.9-9.9c0.7-0.2,1.4-0.3,2.2-0.4c0.3,0,0.5,0,0.8,0
		c0,0.1-1.1,0.1-2.9,0.7c-4.6,1.4-8.3,5-9.6,9.7c-0.5,1.8-0.6,2.9-0.7,2.9C254.3,189,254.3,188.7,254.3,188.4z"/>
	<g class="st6">
		<path d="M217.2,256.4c-0.2-10-0.4-20-0.6-30c-2.7,9.8-2.5,20.2,0.6,29.9"/>
	</g>
	<g class="st6">
		<path d="M250.6,288.2l4.1-5.6l8.2-40.2c0.3,2.8-2.2-17.6-5.4-39C259.1,230.5,255.1,261.2,250.6,288.2z"/>
	</g>
	<path class="st11" d="M261.2,223.7c0.6-0.3,1.5-0.7,2.5-1.1c5.7-2.3,11.7-3.7,17.8-4.2c1.2-0.1,2.1-0.1,2.8-0.1c0.3,0,0.7,0,1,0
		c0,0.1-1.4,0.2-3.8,0.4c-3,0.3-6,0.8-9,1.5c-3,0.7-5.9,1.6-8.7,2.7c-2.2,0.8-3.6,1.4-3.6,1.3C260.3,224.2,260.6,224,261.2,223.7z"
		/>
	<path class="st11" d="M267,286.8l0.3-0.8c0.3-0.7,0.7-1.7,1.2-3c1-2.6,2.6-6.4,4.4-11.1c2.1-5.5,3.8-11.2,5.2-16.9
		c0.8-3.4,1.3-6.8,1.7-10.3c0.3-3.7,0.4-7.5,0.1-11.2c-0.6-7.2-1.6-14.4-3.1-21.5c-1.3-6.6-2.5-12.5-3.6-17.4
		c-1.1-4.9-2.1-8.9-2.7-11.7c-0.3-1.3-0.6-2.4-0.8-3.2l-0.2-0.8c0-0.1,0-0.2,0-0.3c0,0.1,0.1,0.2,0.1,0.3l0.2,0.8
		c0.2,0.8,0.5,1.8,0.9,3.1c0.7,2.7,1.7,6.7,2.9,11.6c1.2,4.9,2.4,10.8,3.7,17.4c1.5,7.1,2.6,14.3,3.1,21.6c0.2,3.8,0.2,7.5-0.1,11.3
		c-0.3,3.5-0.9,7-1.7,10.4c-1.4,5.8-3.1,11.4-5.3,17c-1.8,4.7-3.4,8.5-4.5,11.1l-1.3,2.9L267,286.8c0,0.1,0,0.2-0.1,0.3
		C266.9,287,267,286.9,267,286.8z"/>
	<path class="st11" d="M263.7,257.8c1.9,0.7,4.6,1.5,7.6,2.2c3,0.7,5.8,1.2,7.8,1.5c1.1,0.1,2.2,0.3,3.3,0.5c-0.3,0.1-0.6,0.1-0.9,0
		c-0.6,0-1.4-0.1-2.4-0.1c-2.7-0.3-5.3-0.7-7.9-1.3c-2.6-0.6-5.1-1.4-7.6-2.4c-0.9-0.4-1.7-0.7-2.2-1s-0.8-0.4-0.8-0.4
		C261.7,257,262.7,257.4,263.7,257.8z"/>
	<path class="st11" d="M255.2,192.2c0.2-0.3,0.5-0.7,0.7-1c0.3-0.4,0.7-0.8,1.1-1.2c1-1,2.1-1.9,3.2-2.8c1.4-1,3-1.8,4.6-2.5
		c1.6-0.7,3.3-1.2,5-1.5c1.4-0.2,2.8-0.4,4.2-0.4c0.5,0,1.1,0,1.6,0.1c0.4,0,0.8,0.1,1.2,0.1c0.3,0,0.7,0.1,1,0.2
		c0,0.1-1.5-0.1-3.9-0.1c-1.4,0-2.8,0.2-4.2,0.5c-1.7,0.3-3.3,0.8-4.9,1.5c-1.6,0.7-3.1,1.5-4.5,2.4c-1.2,0.8-2.2,1.7-3.2,2.6
		c-1.7,1.7-2.6,2.9-2.7,2.8C254.8,192.8,255,192.5,255.2,192.2z"/>
	<path class="st11" d="M242.2,289.3c0-0.2,0-0.5,0-0.9c0-0.9,0-2.1,0-3.6c0-3.2,0.1-7.7,0.2-13.4c0.2-11.3,0.5-26.9,0.8-44.1
		c0.2-8.6,0.4-16.8,1-24.3c0.3-3.7,0.7-7.2,1.2-10.5c0.4-3.1,1-6.1,1.9-9.1c0.7-2.5,1.9-4.8,3.4-6.9c1.1-1.6,2.5-3,4.1-4.1
		c1-0.7,2.1-1.3,3.2-1.7c0.4-0.2,0.8-0.3,1.2-0.4c0,0-0.4,0.1-1.2,0.5c-1.1,0.5-2.2,1.1-3.1,1.8c-1.5,1.1-2.9,2.5-3.9,4.1
		c-1.4,2.1-2.5,4.4-3.3,6.8c-0.9,2.9-1.5,6-1.9,9c-0.5,3.3-0.8,6.8-1.1,10.5c-0.6,7.4-0.8,15.6-1,24.3c-0.4,17.2-0.7,32.8-1,44.1
		c-0.2,5.6-0.2,10.2-0.4,13.4c-0.1,1.5-0.1,2.8-0.1,3.6L242.2,289.3c0,0.1,0,0.2,0,0.3C242.2,289.5,242.2,289.4,242.2,289.3z"/>
	<path class="st11" d="M228.2,267.4l3.4-0.6l11.3-1.8l11.2-1.9l3.4-0.6c0.4-0.1,0.8-0.1,1.3-0.1c-0.4,0.2-0.8,0.3-1.2,0.3
		c-0.8,0.2-1.9,0.4-3.4,0.7c-2.9,0.6-6.8,1.3-11.2,2c-4.4,0.7-8.4,1.3-11.3,1.7c-1.4,0.2-2.6,0.3-3.4,0.4c-0.4,0.1-0.8,0.1-1.3,0.1
		C227.3,267.6,227.7,267.5,228.2,267.4z"/>
	<path class="st11" d="M243.6,230.9c10-0.3,18-0.5,18-0.4c0,0.1-8,0.5-17.9,0.9c-10,0.3-18,0.5-18,0.4
		C225.6,231.6,233.6,231.2,243.6,230.9z"/>
	<path class="st11" d="M225.6,200.2l3.5,0.2c3,0.2,7.1,0.4,11.6,0.6s8.6,0.2,11.6,0.2l3.5,0c0.4,0,0.9,0,1.3,0.1
		c-0.4,0.1-0.9,0.1-1.3,0.1c-0.8,0-2,0.1-3.5,0.1c-3,0.1-7.1,0.1-11.7-0.1s-8.6-0.4-11.6-0.7c-1.5-0.1-2.7-0.3-3.5-0.4
		c-0.4,0-0.9-0.1-1.3-0.2C224.7,200.1,225.2,200.1,225.6,200.2z"/>
	<path class="st11" d="M249.1,171.8c3.9,0.8,7.7,2.2,11.2,4.1c0.7,0.4,1.4,0.8,2,1.4c-0.8-0.3-1.5-0.7-2.2-1.1
		c-1.4-0.7-3.3-1.5-5.4-2.3c-1.8-0.7-3.7-1.2-5.6-1.7c-0.8-0.1-1.6-0.4-2.4-0.7C247.6,171.5,248.4,171.6,249.1,171.8z"/>
	<path class="st11" d="M227.1,181.2c0.6-0.5,1.3-1.3,2.4-2.3c2-1.9,4.9-4.4,8.2-7.1c3.3-2.7,6.4-5,8.7-6.6c1.1-0.8,2.1-1.5,2.7-1.9
		c0.3-0.2,0.7-0.4,1-0.6c-0.3,0.3-0.6,0.6-0.9,0.8l-2.6,2c-2.2,1.6-5.3,4-8.6,6.7c-3.3,2.7-6.2,5.2-8.3,7l-2.5,2.2
		c-0.3,0.3-0.6,0.5-1,0.7C226.5,181.7,226.8,181.4,227.1,181.2z"/>
	<path class="st11" d="M236.6,175c1.1,1.2,2,2.5,2.8,3.8c-1.2-1.1-2.3-2.2-3.3-3.5c-1.1-1.2-2-2.5-2.8-3.8
		C234.5,172.5,235.6,173.7,236.6,175z"/>
	<path class="st11" d="M220,199.9c1.2-0.1,2.5,0.1,3.7,0.4c-1.2,0.1-2.5,0.2-3.7,0.1c-1.2,0.1-2.5,0.1-3.7,0
		C217.6,200,218.8,199.8,220,199.9z"/>
	<path class="st11" d="M221.1,233.6c1.3-0.1,2.5,0,3.7,0.3c-1.2,0.2-2.5,0.3-3.7,0.2c-1.3,0.1-2.5,0-3.7-0.3
		C218.6,233.6,219.9,233.5,221.1,233.6z"/>
	<path class="st11" d="M219.9,188.7l0,0.8c0,0.7,0,1.8-0.1,3.1c0,1.3-0.1,3-0.1,4.9c0,1.9-0.1,4.1,0,6.4c0,9.6,0.3,22.8,0.8,37.3
		c0.4,14.6,0.7,27.8,0.6,37.4c0,2.4,0,4.6-0.1,6.5c-0.1,1.9-0.1,3.6-0.2,4.9c-0.1,1.3-0.1,2.3-0.2,3.1c0,0.3,0,0.6,0,0.8
		c0,0.1,0,0.2,0,0.3c0-0.1,0-0.2,0-0.3c0-0.2,0-0.5,0-0.8c0-0.7,0-1.8,0.1-3.1s0-3,0.1-4.9s0.1-4.1,0-6.5c0-9.6-0.3-22.8-0.8-37.3
		c-0.4-14.6-0.7-27.8-0.6-37.4c0-2.4,0-4.6,0.1-6.5c0.1-1.9,0.1-3.6,0.2-4.9s0.1-2.3,0.1-3.1L219.9,188.7c-0.1-0.1-0.1-0.2,0-0.3
		C219.9,188.5,219.9,188.5,219.9,188.7z"/>
	<path class="st11" d="M222,268c1.6,0.3,3.2,0.7,4.7,1.3c-1.6-0.1-3.2-0.4-4.8-0.8c-1.6-0.3-3.2-0.7-4.7-1.3
		C218.9,267.3,220.5,267.6,222,268z"/>
	<path class="st11" d="M202.8,228.5c1.7,1,3.9,2.5,6.2,4.3c2.4,1.8,4.4,3.5,5.8,4.8c0.8,0.7,1.5,1.4,2.2,2.2c-0.9-0.6-1.7-1.3-2.4-2
		c-1.5-1.2-3.5-2.9-5.9-4.7c-2.4-1.8-4.5-3.3-6.1-4.4c-0.9-0.5-1.7-1.2-2.5-1.8C201,227.4,201.9,227.9,202.8,228.5z"/>
	<path class="st11" d="M203.8,238.1c0.8-1.5,2-3.4,3.4-5.5c1.4-2.1,2.8-3.9,3.9-5.2c0.5-0.7,1.1-1.4,1.8-1.9c-0.4,0.8-1,1.5-1.5,2.2
		c-1,1.4-2.4,3.2-3.8,5.2s-2.6,4-3.5,5.4c-0.4,0.8-0.9,1.5-1.5,2.2C202.9,239.7,203.3,238.8,203.8,238.1z"/>
	<path class="st7" d="M177.7,196.4l-1.4,0.1c-0.7,0-1.7-0.3-2.2-0.8l-1-1c-0.5-0.5-0.3-0.9,0.4-0.9l1.4-0.1c0.7,0,1.7,0.3,2.2,0.8
		l1,1C178.5,196,178.4,196.4,177.7,196.4z"/>
	<g>
		
			<ellipse transform="matrix(0.3413 -0.9399 0.9399 0.3413 -68.1563 291.9051)" class="st5" cx="174.2" cy="194.6" rx="0.4" ry="0.9"/>
		
			<ellipse transform="matrix(0.3413 -0.9399 0.9399 0.3413 -68.4052 293.6357)" class="st5" cx="175.3" cy="195.6" rx="0.4" ry="0.9"/>
		
			<ellipse transform="matrix(0.3413 -0.9399 0.9399 0.3413 -67.3471 295.0372)" class="st5" cx="176.8" cy="195.6" rx="0.4" ry="0.9"/>
		
			<ellipse transform="matrix(0.3413 -0.9399 0.9399 0.3413 -67.0982 293.3067)" class="st5" cx="175.7" cy="194.5" rx="0.4" ry="0.9"/>
	</g>
</g>
</svg>
