<?xml version="1.0" encoding="utf-8"?>
<!-- Generator: Adobe Illustrator 25.0.0, SVG Export Plug-In . SVG Version: 6.00 Build 0)  -->
<svg version="1.1" id="Layer_1" xmlns="http://www.w3.org/2000/svg" xmlns:xlink="http://www.w3.org/1999/xlink" x="0px" y="0px"
	 viewBox="0 0 400 400" style="enable-background:new 0 0 400 400;" xml:space="preserve">
<style type="text/css">
	.st0{fill:#353535;}
	.st1{fill:#0ACF83;}
	.st2{fill:#A259FF;}
	.st3{fill:#F24E1E;}
	.st4{fill:#FF7262;}
	.st5{fill:#1ABCFE;}
	.st6{fill:#261300;}
	.st7{fill:#FF7C00;}
	.st8{fill:#FFFFFF;}
	.st9{fill:#E44D26;}
	.st10{fill:#F16529;}
	.st11{fill:#EBEBEB;}
	.st12{fill:#0170BA;}
	.st13{fill:#29A9DF;}
	.st14{fill:#CFCFCF;}
	.st15{fill:#EAEBEC;}
	.st16{fill:#F0BE25;}
	.st17{fill:#E4A126;}
	.st18{fill:#563D7C;}
	.st19{enable-background:new    ;}
	.st20{fill:#152347;}
	.st21{fill:#31C5F0;}
	.st22{fill:#1E2E3B;}
	.st23{fill:#0868AC;}
	.st24{fill:#FDB300;}
	.st25{fill:#EA6C00;}
	.st26{fill:#FDAD00;}
	.st27{fill:#FDD231;}
	.st28{fill:#FEEEB7;}
	.st29{fill:#2489CA;}
	.st30{fill:#1070B3;}
	.st31{fill:#0877B9;}
	.st32{fill:#3C99D4;}
	.st33{fill-rule:evenodd;clip-rule:evenodd;fill:url(#SVGID_1_);}
	.st34{fill:#DC395F;}
	.st35{fill-rule:evenodd;clip-rule:evenodd;fill:#FDBD39;}
	.st36{fill-rule:evenodd;clip-rule:evenodd;fill:#F69833;}
	.st37{fill-rule:evenodd;clip-rule:evenodd;fill:#FECF33;}
	.st38{fill-rule:evenodd;clip-rule:evenodd;fill:#EE6723;}
	.st39{fill:#4D4D4E;}
	.st40{fill:#F89820;}
	.st41{fill:url(#SVGID_2_);}
	.st42{fill:url(#SVGID_3_);}
	.st43{fill:url(#SVGID_4_);stroke:#FFFFFF;}
	.st44{fill:#E94F32;}
	.st45{fill:#CF6296;}
	.st46{fill:none;stroke:#000000;stroke-miterlimit:10;}
	.st47{fill:#8ED6FB;}
	.st48{fill:#1C78C0;}
	.st49{fill:#41B883;}
	.st50{fill:#34495E;}
	.st51{fill-rule:evenodd;clip-rule:evenodd;fill:url(#SVGID_5_);}
	.st52{fill:#D34A47;}
	.st53{fill:#EB494A;}
</style>
<g>
	<g>
		<path class="st22" d="M123.9,327.9L123.9,327.9l-2.8,10L123.9,327.9L123.9,327.9z"/>
		<path class="st22" d="M139.4,363.5l3.3-12.5L139.4,363.5L139.4,363.5L139.4,363.5z"/>
		<path class="st22" d="M208.4,306.1l-6.1,28.6C202.2,334.7,208.4,306.1,208.4,306.1z"/>
		<path class="st22" d="M192.7,306.1l-4.7,21.3L192.7,306.1L192.7,306.1z"/>
		<path class="st22" d="M207.3,304.8h-13c-0.7,0-1.4,0.6-1.6,1.3l-4.7,21.3l-4.7,21.3c-0.1,0.7-0.8,1.3-1.6,1.3h-7.9h-1.3
			c-9.1,0-8-6.3-6.2-14.9c0-0.1,0-0.1,0-0.2l0.2-1c0-0.1,0-0.1,0-0.2l0.5-2.2l0.5-2.3c0.1-0.7,0.3-1.7,0.5-2.4l2.1-10.2l2.1-10.2
			c0.1-0.7-0.3-1.3-1-1.3h-13.4c-0.7,0-1.4,0.6-1.6,1.3l-2.9,13.6l-2.6,13.6l0,0l-0.2,1.3c-3.3,15.1-2.4,29.5,15.5,29.9
			c0.3,0,0.5,0,0.5,0h28.2c0.7,0,1.4-0.6,1.6-1.3l6.1-28.6l6.1-28.6C208.5,305.4,208,304.8,207.3,304.8L207.3,304.8z"/>
		<path class="st22" d="M259.1,350.2c0.7,0,1.2,0.6,1,1.3l-1.3,6.2"/>
		<path class="st22" d="M257.7,363.9l1.3-6.2L257.7,363.9L257.7,363.9L257.7,363.9z"/>
		<path class="st22" d="M224.5,342.3c0-0.7,0.8-1.9,1.5-1.9h-1.6C223.5,347.8,224.5,342.3,224.5,342.3L224.5,342.3z"/>
		<path class="st22" d="M259.1,350.2c0.7,0,1.2,0.6,1,1.3l-1.3,6.2l-0.2,1"/>
		<path class="st22" d="M43.9,342.4l2-9l-2.3,10.2l-2.2,10.5l2-9.2C43.4,344.3,43.7,343.1,43.9,342.4L43.9,342.4z"/>
		<path class="st22" d="M68,304.7H53.8c-0.7,0-1.4,0.6-1.6,1.3l-1.4,5.9l-1.4,5.9c-0.1,0.7,0.3,1.3,1,1.3h14.4
			c0.7,0,1.4-0.6,1.6-1.3l1.3-5.9L69,306l0,0C69.3,305.3,68.8,304.7,68,304.7L68,304.7z"/>
		<path class="st22" d="M65,324.6L65,324.6l-4.2,19.3L65,324.6z"/>
		<path class="st22" d="M47.9,324.6l-2,9L47.9,324.6z"/>
		<path class="st22" d="M63.9,323.3H49.5c-0.7,0-1.4,0.6-1.6,1.3l-2,9l-2,9c-0.1,0.7-0.5,1.9-0.6,2.6l-2,9.2l-2,9.2
			c-0.1,0.7-0.5,1.9-0.7,2.6c0,0-2.7,8-7.2,7.9c-0.2,0-0.3,0-0.6,0c-2.2,0-4-0.1-4-0.1l0,0c-0.7,0-1.4,0.6-1.6,1.3l-1.5,6.3
			l-1.5,6.3c-0.1,0.7,0.2,1.3,1,1.3c2.6,0,8.3,0.1,11.8,0.1c11.3,0,17.2-6.3,21.1-24.2l4.4-20.6l4.2-19.3
			C65.1,323.9,64.6,323.3,63.9,323.3L63.9,323.3z"/>
		<path class="st22" d="M268.3,364.5c-0.7,0-1.2-0.6-1-1.3l10.8-50.8"/>
		<path class="st22" d="M283.4,363.3l4.4-21.7L283.4,363.3z"/>
		<path class="st22" d="M267.5,364c-0.1-0.3,0-1.2,0.1-2l5.1-24.1l-5.5,25.4c-0.1,0.7,0.3,1.3,1,1.3h1.3
			C268.9,364.5,267.5,364.3,267.5,364L267.5,364z"/>
		<path class="st22" d="M285.6,352.4l2-9.5l0,0L285.6,352.4L285.6,352.4z"/>
		<path class="st22" d="M328.3,316l0.6,2.4c0.1,0.7-0.3,1.3-1,1.3"/>
		<path class="st22" d="M283.7,362l2-9.5L283.7,362z"/>
		<path class="st22" d="M327.7,313.4l0.6,2.6L327.7,313.4z"/>
		<path class="st22" d="M287.5,342.9c0.1-0.7,0.3-1.9,0.6-2.6l2.1-9.7l-2.3,10.9L287.5,342.9L287.5,342.9z"/>
		<path class="st22" d="M278.4,311.7c-0.1,0.7-0.3,1.5-0.5,2.1l-5.1,24.1l5.5-25.4L278.4,311.7L278.4,311.7z"/>
		<path class="st22" d="M328.9,318.4l-0.6-2.4l-0.6-2.6l-0.3-1.3c-1.2-4.5-4.7-7.2-12.1-7.2h-11.6h-10.7H292H281
			c-0.7,0-1.4,0.6-1.6,1.3l0,0l-0.6,2.6l-0.6,2.9l-0.2,0.8l-5.5,25.4l-5.1,24.1c-0.1,0.7-0.2,1.6-0.1,2s1.5,0.7,2.2,0.7h10.8
			c0.7,0,1.6-0.1,2-0.2c0.3-0.1,0.9-1.6,1.2-2.3l2-9.5l2-9.5l0,0l0.2-1.3l2.3-10.9l2.1-9.7c0.1-0.7,0.8-1.3,1.6-1.3h34.1
			C328.6,319.7,329.1,319.1,328.9,318.4L328.9,318.4z"/>
		<path class="st22" d="M372.9,296.2c-0.7,0-1.9,0-2.7,0h-10.9c-0.7,0-1.6,0.5-2.1,1l-24.1,35.4c-0.5,0.6-0.9,0.5-1-0.2l-1.7-7.8
			c-0.1-0.7-0.9-1.3-1.6-1.3h-15.5c-0.7,0-1.2,0.6-0.9,1.3l7,24.3c0.2,0.7,0.2,1.9,0,2.6l-3,11.8c-0.2,0.7,0.2,1.3,0.9,1.3h15.4
			c0.7,0,1.5-0.6,1.6-1.3l3-11.8c0.2-0.7,0.7-1.7,1.2-2.3l39.2-52c0.5-0.6,0.2-1-0.5-1L372.9,296.2L372.9,296.2z"/>
		<path class="st22" d="M249.5,326.7L249.5,326.7c-0.1,0.8-0.8,1.4-1.5,1.4h-19.7c-0.7,0-1-0.5-0.9-1l0,0l0,0c0,0,0,0,0-0.1
			c0,0,0-0.1,0.1-0.3c1.9-5,5.7-8.3,12.9-8.3C248.4,318.3,250.1,322.3,249.5,326.7L249.5,326.7z M243.7,304
			c-25.3,0-31.3,15.4-34.6,30.8c-3.4,15.8-3,30.5,23,30.5h0.9c0.1,0,0.1,0,0.2,0h0.7h0.2h0.7c0.1,0,0.2,0,0.3,0c0.2,0,0.6,0,0.8,0
			h0.2c1,0,2.1,0,3.1,0l0,0c6.9,0,13.9-0.1,16.6-0.1c0.7,0,1.4-0.6,1.5-1.3l1-5.1l0.2-1l1.3-6.2c0.1-0.7-0.3-1.3-1-1.3h-23.5
			c-9.3,0-12.1-2.4-11.1-9.8h37.6l0,0l0,0c0.6,0,1.2-0.5,1.4-0.9c0-0.1,0.1-0.2,0.1-0.3l0,0C269.3,318.1,267.6,304,243.7,304
			L243.7,304z"/>
		<path class="st22" d="M124.2,326.6l-0.3,1.3l0,0l-2.8,10l-2.8,10c-0.2,0.7-0.9,1.3-1.6,1.3h-15c-11.4,0-14.2-9-11.4-22
			c2.8-13.4,8.3-21.8,19.4-22.7C124.9,303.4,127.9,314.1,124.2,326.6L124.2,326.6z M134.6,348.5c0,0,7.1-17.2,8.7-27.1
			c2.2-13.3-4.4-32.6-30.2-32.6c-25.6,0-36.7,18.4-40.9,38.4c-4.2,20.1,1.3,37.8,26.8,37.7l20-0.1l18.7-0.1c0.7,0,1.5-0.6,1.6-1.3
			l3.3-12.5c0.2-0.7-0.2-1.3-0.9-1.3h-3.1h-3.1c-0.6,0-0.9-0.3-0.9-0.9C134.5,348.7,134.6,348.6,134.6,348.5L134.6,348.5z"/>
		<path class="st22" d="M261.1,337c0,0.5-0.3,0.8-0.8,0.8s-0.8-0.3-0.8-0.8c0-0.5,0.3-0.8,0.8-0.8
			C260.8,336.1,261.1,336.5,261.1,337z"/>
	</g>
	<g>
		<path class="st23" d="M90.7,68.7c-22.6,32.5-19.8,74.9-2.6,109.3c0.5,0.8,0.8,1.6,1.3,2.4c0.2,0.5,0.6,1,0.8,1.5
			c0.1,0.3,0.3,0.6,0.5,0.9c0.3,0.6,0.6,1,0.9,1.6c0.6,0.9,1,1.9,1.6,2.8c0.3,0.5,0.6,1,0.9,1.5c0.6,1,1.3,2,1.9,3
			c0.2,0.5,0.6,0.8,0.8,1.3c0.9,1.4,1.9,2.7,2.8,4c0,0,0,0.1,0.1,0.1c0.1,0.2,0.3,0.5,0.5,0.6c0.8,1.2,1.6,2.2,2.6,3.4
			c0.3,0.3,0.6,0.8,0.9,1.2c0.8,0.9,1.5,1.9,2.3,2.9c0.3,0.3,0.6,0.7,0.9,1c1,1.3,2.1,2.4,3.3,3.7c0,0,0,0,0.1,0.1l0.1,0.1
			c1,1.2,2.2,2.3,3.3,3.5c0.3,0.3,0.7,0.7,1,1c0.8,0.9,1.7,1.7,2.7,2.6c0.3,0.3,0.7,0.7,1,1c1.2,1.2,2.4,2.2,3.6,3.3l0,0
			c0.2,0.2,0.5,0.3,0.6,0.6c1,0.9,2.2,1.9,3.3,2.8c0.5,0.3,0.9,0.7,1.4,1c0.9,0.7,1.9,1.4,2.8,2.1c0.5,0.3,0.9,0.7,1.5,1.2
			c1,0.7,2.1,1.5,3,2.2c0.3,0.2,0.7,0.6,1.2,0.8c0.1,0.1,0.2,0.1,0.3,0.2c0.9,0.7,2,1.3,3,2c0.5,0.2,0.8,0.6,1.3,0.8
			c1.5,0.9,3.1,2,4.7,2.9c0.5,0.2,0.8,0.5,1.3,0.7c1.2,0.7,2.3,1.3,3.5,2c0.6,0.3,1.3,0.7,2,1c0.8,0.5,1.6,0.9,2.6,1.3
			c0.2,0.1,0.3,0.2,0.6,0.2c0.3,0.1,0.7,0.3,1,0.5c1.3,0.6,2.7,1.3,4,1.9c0.2,0.1,0.6,0.2,0.8,0.3c1.5,0.7,3,1.3,4.7,2
			c0.3,0.1,0.7,0.3,1.2,0.5c1.4,0.6,2.9,1.2,4.4,1.6c0.2,0.1,0.3,0.1,0.6,0.2c1.6,0.6,3.3,1,4.9,1.6c0.3,0.1,0.8,0.2,1.2,0.3
			c1.6,0.5,3.4,1.2,5,1.4C292.2,273.9,324,188.2,324,188.2c-26.7,34.8-74,43.9-119,33.8c-1.7-0.3-3.4-0.9-5-1.4
			c-0.5-0.1-0.8-0.2-1.3-0.3c-1.6-0.5-3.3-1-4.8-1.5c-0.2-0.1-0.5-0.1-0.7-0.2c-1.4-0.5-2.8-1-4.3-1.6c-0.3-0.1-0.8-0.3-1.2-0.5
			c-1.5-0.6-3-1.3-4.5-1.9c-0.3-0.1-0.6-0.2-0.9-0.3c-1.3-0.6-2.6-1.2-3.8-1.7c-0.3-0.2-0.7-0.3-1.2-0.6c-1-0.5-2-1-3-1.5
			c-0.7-0.3-1.4-0.7-2-1c-1.2-0.7-2.4-1.3-3.6-2c-0.3-0.2-0.8-0.5-1.2-0.7c-1.6-0.9-3.1-1.9-4.7-2.9c-0.5-0.2-0.8-0.6-1.3-0.8
			c-1.2-0.7-2.2-1.5-3.4-2.2c-0.3-0.2-0.7-0.5-1-0.7c-1-0.7-2.1-1.5-3.1-2.3c-0.5-0.3-0.9-0.7-1.4-1c-0.9-0.7-1.9-1.5-2.8-2.2
			c-0.5-0.3-0.8-0.7-1.3-1c-1.2-0.9-2.3-2-3.5-3c-0.1-0.1-0.2-0.2-0.3-0.3c-1.3-1.2-2.4-2.2-3.7-3.4c-0.3-0.3-0.7-0.7-1-1
			c-0.9-0.8-1.7-1.7-2.7-2.6c-0.3-0.3-0.7-0.7-1-1c-1.2-1.2-2.2-2.3-3.3-3.5c0-0.1-0.1-0.1-0.1-0.1c-1.2-1.3-2.2-2.6-3.4-3.7
			c-0.3-0.3-0.6-0.7-0.8-1c-0.8-0.9-1.6-2-2.4-2.9c-0.3-0.3-0.6-0.7-0.9-1c-0.9-1.2-1.9-2.4-2.8-3.7c-24.9-34-33.9-80.9-14-119.4"/>
		<path class="st23" d="M161,41.3c-16.4,23.5-15.5,55.1-2.7,80c2.1,4.2,4.5,8.3,7.2,12.1c2.4,3.5,5.1,7.7,8.4,10.5
			c1.2,1.3,2.4,2.6,3.7,3.8c0.3,0.3,0.7,0.6,0.9,0.9c1.3,1.2,2.4,2.3,3.7,3.5l0.1,0.1l0,0c1.4,1.3,2.9,2.4,4.4,3.6
			c0.3,0.2,0.7,0.5,1,0.8c1.5,1.2,3,2.3,4.5,3.4l0.1,0.1c0.7,0.5,1.4,0.9,2.1,1.4c0.3,0.2,0.7,0.5,1,0.7c1.2,0.7,2.2,1.4,3.4,2.1
			c0.1,0.1,0.3,0.2,0.5,0.2c1,0.6,2,1.2,3,1.6c0.3,0.2,0.7,0.3,1,0.6c0.7,0.3,1.4,0.7,2.1,1c0.1,0,0.2,0.1,0.3,0.1
			c1.4,0.7,2.9,1.4,4.4,2.1c0.3,0.1,0.7,0.2,0.9,0.3c1.2,0.5,2.3,1,3.6,1.5c0.5,0.2,1,0.3,1.5,0.6c1,0.3,2.2,0.8,3.3,1.2
			c0.5,0.1,1,0.3,1.5,0.5c1.6,0.5,3.1,1.2,4.8,1.4c84.5,14,104-51,104-51c-17.6,25.3-51.6,37.4-87.9,27.9c-1.6-0.5-3.3-0.9-4.8-1.4
			c-0.5-0.1-0.9-0.3-1.4-0.5c-1.2-0.3-2.2-0.7-3.4-1.2c-0.5-0.2-1-0.3-1.5-0.6c-1.2-0.5-2.4-0.9-3.6-1.4c-0.3-0.1-0.7-0.2-0.9-0.5
			c-1.5-0.7-2.9-1.3-4.4-2.1c-0.7-0.3-1.5-0.7-2.2-1.2c-0.5-0.2-0.8-0.5-1.3-0.7c-0.9-0.5-1.9-1-2.8-1.6c-0.2-0.1-0.5-0.2-0.7-0.3
			c-1.2-0.7-2.2-1.4-3.4-2.1c-0.3-0.2-0.7-0.5-1-0.7c-0.7-0.5-1.5-0.9-2.2-1.4c-1.5-1-3-2.2-4.5-3.4c-0.3-0.2-0.7-0.6-1-0.8
			c-15.9-12.6-28.5-29.7-34.5-49.1c-6.3-20.1-4.9-42.8,5.9-61.2"/>
		<path class="st23" d="M220,20.9c-9.7,14.2-10.6,31.8-3.8,47.5c7.1,16.6,21.5,29.7,38.4,35.9c0.7,0.2,1.4,0.5,2.1,0.7
			c0.3,0.1,0.6,0.2,0.9,0.3c1,0.3,2,0.7,3,0.8c46.7,9,59.3-24,62.6-28.8c-11.1,15.9-29.7,19.8-52.5,14.2c-1.9-0.5-3.8-1-5.5-1.7
			c-2.2-0.8-4.4-1.7-6.5-2.7c-4.1-2-7.9-4.3-11.5-7c-20.5-15.5-33.2-45.2-19.8-69.3"/>
	</g>
</g>
</svg>
