<?xml version="1.0" encoding="utf-8"?>
<!-- Generator: Adobe Illustrator 24.3.0, SVG Export Plug-In . SVG Version: 6.00 Build 0)  -->
<svg version="1.1" id="Layer_1" xmlns="http://www.w3.org/2000/svg" xmlns:xlink="http://www.w3.org/1999/xlink" x="0px" y="0px"
	 viewBox="0 0 400 400" style="enable-background:new 0 0 400 400;" xml:space="preserve">
<style type="text/css">
	.st0{fill:#261300;}
	.st1{fill:#FF7C00;}
	.st2{fill:#353535;}
	.st3{fill:#0ACF83;}
	.st4{fill:#A259FF;}
	.st5{fill:#F24E1E;}
	.st6{fill:#FF7262;}
	.st7{fill:#1ABCFE;}
	.st8{fill:#E44D26;}
	.st9{fill:#F16529;}
	.st10{fill:#EBEBEB;}
	.st11{fill:#FFFFFF;}
	.st12{fill:#0170BA;}
	.st13{fill:#EAEBEC;}
	.st14{fill:#F0BE25;}
	.st15{fill:#E4A126;}
	.st16{fill:#0E0E0F;}
	.st17{fill:#29A9DF;}
	.st18{fill:#CFCFCF;}
</style>
<g>
	<path class="st0" d="M62.1,8.5h275.9c29.6,0,53.6,24,53.6,53.6v275.9c0,29.6-24,53.6-53.6,53.6H62.1c-29.6,0-53.6-24-53.6-53.6
		V62.1C8.5,32.5,32.5,8.5,62.1,8.5z"/>
	<path class="st1" d="M128.1,244.5l-13.7,52.3c-0.4,1.4-0.9,1.8-2.6,1.8H86.1c-1.8,0-2.1-0.5-1.8-2.6l49.5-173.3
		c0.9-3.1,1.4-5.9,1.8-14.5c0-1.3,0.5-1.8,1.4-1.8h36.6c1.3,0,1.8,0.4,2.1,1.8l55.4,188.1c0.4,1.4,0,2.3-1.4,2.3h-29
		c-1.4,0-2.3-0.4-2.6-1.6l-14.5-52.5L128.1,244.5L128.1,244.5z M176.6,216.1c-4.9-19.4-16.4-61.6-20.8-82h-0.4
		c-3.7,20.4-12.9,54.9-20.2,82H176.6z M255,119.3c0-11.2,7.8-17.8,17.8-17.8c10.6,0,17.8,7.2,17.8,17.8c0,11.5-7.5,17.8-18.1,17.8
		C262.4,137.1,255,130.8,255,119.3L255,119.3z M257.1,158.8c0-1.4,0.5-2.1,2.1-2.1h27.3c1.4,0,2.1,0.5,2.1,2.1v137.5
		c0,1.4-0.4,2.1-2.1,2.1h-27c-1.8,0-2.3-0.9-2.3-2.3L257.1,158.8L257.1,158.8z"/>
</g>
</svg>
