<?xml version="1.0" encoding="utf-8"?>
<!-- Generator: Adobe Illustrator 25.0.1, SVG Export Plug-In . SVG Version: 6.00 Build 0)  -->
<svg version="1.1" id="Layer_1" xmlns="http://www.w3.org/2000/svg" xmlns:xlink="http://www.w3.org/1999/xlink" x="0px" y="0px"
	 viewBox="0 0 400 400" style="enable-background:new 0 0 400 400;" xml:space="preserve">
<style type="text/css">
	.st0{fill:#353535;}
	.st1{fill:#0ACF83;}
	.st2{fill:#A259FF;}
	.st3{fill:#F24E1E;}
	.st4{fill:#FF7262;}
	.st5{fill:#1ABCFE;}
	.st6{fill:#261300;}
	.st7{fill:#FF7C00;}
	.st8{fill:#FFFFFF;}
	.st9{fill:#E44D26;}
	.st10{fill:#F16529;}
	.st11{fill:#EBEBEB;}
	.st12{fill:#0170BA;}
	.st13{fill:#29A9DF;}
	.st14{fill:#CFCFCF;}
	.st15{fill:#EAEBEC;}
	.st16{fill:#F0BE25;}
	.st17{fill:#E4A126;}
	.st18{fill:#563D7C;}
	.st19{enable-background:new    ;}
	.st20{fill:#152347;}
	.st21{fill:#31C5F0;}
	.st22{fill:#1E2E3B;}
	.st23{fill:#0868AC;}
	.st24{fill:#FDB300;}
	.st25{fill:#EA6C00;}
	.st26{fill:#FDAD00;}
	.st27{fill:#FDD231;}
	.st28{fill:#FEEEB7;}
	.st29{fill:#2489CA;}
	.st30{fill:#1070B3;}
	.st31{fill:#0877B9;}
	.st32{fill:#3C99D4;}
	.st33{fill-rule:evenodd;clip-rule:evenodd;fill:url(#SVGID_1_);}
	.st34{fill:#DC395F;}
	.st35{fill-rule:evenodd;clip-rule:evenodd;fill:#FDBD39;}
	.st36{fill-rule:evenodd;clip-rule:evenodd;fill:#F69833;}
	.st37{fill-rule:evenodd;clip-rule:evenodd;fill:#FECF33;}
	.st38{fill-rule:evenodd;clip-rule:evenodd;fill:#EE6723;}
	.st39{fill:#4D4D4E;}
	.st40{fill:#F89820;}
	.st41{fill:url(#SVGID_2_);}
	.st42{fill:url(#SVGID_3_);}
	.st43{fill:url(#SVGID_4_);stroke:#FFFFFF;}
	.st44{fill:#F32735;}
	.st45{fill:#CF6296;}
	.st46{fill:none;stroke:#AAAAAA;stroke-miterlimit:10;}
	.st47{fill:#8ED6FB;}
	.st48{fill:#1C78C0;}
	.st49{fill:#41B883;}
	.st50{fill:#34495E;}
	.st51{fill-rule:evenodd;clip-rule:evenodd;fill:url(#SVGID_5_);}
</style>
<g>
	
		<linearGradient id="SVGID_1_" gradientUnits="userSpaceOnUse" x1="40.2757" y1="-1065.808" x2="389.8077" y2="-1343.2665" gradientTransform="matrix(1 0 0 -1 0 -992.6086)">
		<stop  offset="0" style="stop-color:#9013FE"/>
		<stop  offset="1" style="stop-color:#6610F2"/>
	</linearGradient>
	<path style="fill:url(#SVGID_1_);" d="M44.1,82.3c-0.8-21.7,16.1-41.7,39-41.7h233.9c22.8,0,39.7,20,39,41.7
		c-0.7,20.8,0.2,47.8,7,69.8c6.8,22.1,18.3,36,37.1,37.8v20.3c-18.8,1.8-30.3,15.7-37.1,37.8c-6.8,22-7.7,49-7,69.8
		c0.8,21.7-16.1,41.7-39,41.7H83.1c-22.8,0-39.7-20-39-41.7c0.7-20.8-0.2-47.8-7-69.8c-6.8-22.1-18.3-36-37.1-37.8v-20.3
		c18.8-1.8,30.3-15.7,37.1-37.8C43.9,130.1,44.9,103.1,44.1,82.3z"/>
	
		<linearGradient id="SVGID_2_" gradientUnits="userSpaceOnUse" x1="147.7711" y1="-1120.9825" x2="225.9008" y2="-1253.1169" gradientTransform="matrix(1 0 0 -1 0 -992.6086)">
		<stop  offset="0" style="stop-color:#FFFFFF"/>
		<stop  offset="1" style="stop-color:#F1E5FC"/>
	</linearGradient>
	<path style="fill:url(#SVGID_2_);stroke:#FFFFFF;" d="M208.7,284.7c37,0,59.2-18.1,59.2-47.9c0-22.6-15.9-38.9-39.5-41.5v-0.9
		c17.3-2.8,30.9-18.9,30.9-36.9c0-25.6-20.2-42.3-51-42.3H139v169.5H208.7z M165.9,136.7h35.9c19.5,0,30.6,8.7,30.6,24.4
		c0,16.8-12.9,26.2-36.2,26.2h-30.2C165.9,187.3,165.9,136.7,165.9,136.7z M165.9,263.2v-55.8h35.6c25.5,0,38.8,9.4,38.8,27.7
		c0,18.3-12.9,28.1-37.2,28.1H165.9z"/>
</g>
</svg>
