<?xml version="1.0" encoding="utf-8"?>
<!-- Generator: Adobe Illustrator 25.0.1, SVG Export Plug-In . SVG Version: 6.00 Build 0)  -->
<svg version="1.1" id="Layer_1" xmlns="http://www.w3.org/2000/svg" xmlns:xlink="http://www.w3.org/1999/xlink" x="0px" y="0px"
	 viewBox="0 0 400 400" style="enable-background:new 0 0 400 400;" xml:space="preserve">
<style type="text/css">
	.st0{fill:#353535;}
	.st1{fill:#0ACF83;}
	.st2{fill:#A259FF;}
	.st3{fill:#F24E1E;}
	.st4{fill:#FF7262;}
	.st5{fill:#1ABCFE;}
	.st6{fill:#261300;}
	.st7{fill:#FF7C00;}
	.st8{fill:#FFFFFF;}
	.st9{fill:#E44D26;}
	.st10{fill:#F16529;}
	.st11{fill:#EBEBEB;}
	.st12{fill:#0170BA;}
	.st13{fill:#29A9DF;}
	.st14{fill:#CFCFCF;}
	.st15{fill:#EAEBEC;}
	.st16{fill:#F0BE25;}
	.st17{fill:#E4A126;}
	.st18{fill:#563D7C;}
	.st19{enable-background:new    ;}
	.st20{fill:#152347;}
	.st21{fill:#31C5F0;}
	.st22{fill:#1E2E3B;}
	.st23{fill:#0868AC;}
	.st24{fill:#FDB300;}
	.st25{fill:#EA6C00;}
	.st26{fill:#FDAD00;}
	.st27{fill:#FDD231;}
	.st28{fill:#FEEEB7;}
	.st29{fill:#2489CA;}
	.st30{fill:#1070B3;}
	.st31{fill:#0877B9;}
	.st32{fill:#3C99D4;}
	.st33{fill-rule:evenodd;clip-rule:evenodd;fill:url(#SVGID_1_);}
	.st34{fill:#DC395F;}
	.st35{fill-rule:evenodd;clip-rule:evenodd;fill:#FDBD39;}
	.st36{fill-rule:evenodd;clip-rule:evenodd;fill:#F69833;}
	.st37{fill-rule:evenodd;clip-rule:evenodd;fill:#FECF33;}
	.st38{fill-rule:evenodd;clip-rule:evenodd;fill:#EE6723;}
	.st39{fill:#4D4D4E;}
	.st40{fill:#F89820;}
	.st41{fill:url(#SVGID_2_);}
	.st42{fill:url(#SVGID_3_);}
	.st43{fill:url(#SVGID_4_);stroke:#FFFFFF;}
	.st44{fill:#E94F32;}
	.st45{fill:#CF6296;}
	.st46{fill:none;stroke:#AAAAAA;stroke-miterlimit:10;}
	.st47{fill:#8ED6FB;}
	.st48{fill:#1C78C0;}
	.st49{fill:#41B883;}
	.st50{fill:#34495E;}
	.st51{fill-rule:evenodd;clip-rule:evenodd;fill:url(#SVGID_5_);}
</style>
<g>
	<path class="st44" d="M379,183.4L216.6,21c-9.3-9.4-24.5-9.4-33.9,0L149,54.8l42.8,42.8c9.9-3.4,21.3-1.1,29.3,6.8
		c8,8,10.2,19.5,6.8,29.4L269,175c10-3.4,21.5-1.2,29.4,6.8c11.1,11.1,11.1,29.2,0,40.3c-11.1,11.1-29.2,11.1-40.3,0
		c-8.4-8.4-10.4-20.7-6.2-31l-38.5-38.4v101.2c2.7,1.3,5.3,3.1,7.5,5.4c11.1,11.1,11.1,29.2,0,40.3c-11.1,11.1-29.2,11.1-40.3,0
		c-11.1-11.1-11.1-29.2,0-40.3c2.8-2.7,5.9-4.8,9.3-6.2V150.9c-3.4-1.4-6.6-3.5-9.3-6.2c-8.4-8.4-10.5-20.8-6.1-31.2l-42.2-42.2
		L21,182.7c-9.4,9.4-9.4,24.5,0,33.9L183.4,379c9.3,9.4,24.5,9.4,33.9,0L379,217.3C388.3,208,388.3,192.8,379,183.4z"/>
</g>
</svg>
