<?xml version="1.0" encoding="utf-8"?>
<!-- Generator: Adobe Illustrator 25.0.1, SVG Export Plug-In . SVG Version: 6.00 Build 0)  -->
<svg version="1.1" id="Layer_1" xmlns="http://www.w3.org/2000/svg" xmlns:xlink="http://www.w3.org/1999/xlink" x="0px" y="0px"
	 viewBox="0 0 400 400" style="enable-background:new 0 0 400 400;" xml:space="preserve">
<style type="text/css">
	.st0{fill:#353535;}
	.st1{fill:#0ACF83;}
	.st2{fill:#A259FF;}
	.st3{fill:#F24E1E;}
	.st4{fill:#FF7262;}
	.st5{fill:#1ABCFE;}
	.st6{fill:#261300;}
	.st7{fill:#FF7C00;}
	.st8{fill:#FFFFFF;}
	.st9{fill:#E44D26;}
	.st10{fill:#F16529;}
	.st11{fill:#EBEBEB;}
	.st12{fill:#0170BA;}
	.st13{fill:#29A9DF;}
	.st14{fill:#CFCFCF;}
	.st15{fill:#EAEBEC;}
	.st16{fill:#F0BE25;}
	.st17{fill:#E4A126;}
	.st18{fill:#563D7C;}
	.st19{enable-background:new    ;}
	.st20{fill:#152347;}
	.st21{fill:#31C5F0;}
	.st22{fill:#1E2E3B;}
	.st23{fill:#0868AC;}
	.st24{fill:#FDB300;}
	.st25{fill:#EA6C00;}
	.st26{fill:#FDAD00;}
	.st27{fill:#FDD231;}
	.st28{fill:#FEEEB7;}
	.st29{fill:#2489CA;}
	.st30{fill:#1070B3;}
	.st31{fill:#0877B9;}
	.st32{fill:#3C99D4;}
	.st33{fill-rule:evenodd;clip-rule:evenodd;fill:url(#SVGID_1_);}
	.st34{fill:#DC395F;}
	.st35{fill-rule:evenodd;clip-rule:evenodd;fill:#FDBD39;}
	.st36{fill-rule:evenodd;clip-rule:evenodd;fill:#F69833;}
	.st37{fill-rule:evenodd;clip-rule:evenodd;fill:#FECF33;}
	.st38{fill-rule:evenodd;clip-rule:evenodd;fill:#EE6723;}
	.st39{fill:#4D4D4E;}
	.st40{fill:#F89820;}
	.st41{fill:url(#SVGID_2_);}
</style>
<g>
	<path class="st35" d="M62.3,260.3l-20.8,7.6l-1.1,62l72.1-26.3C87.7,295.2,69.7,280.6,62.3,260.3"/>
	<path class="st36" d="M73.2,194.8L0.9,221.2l40.5,46.7l20.8-7.6C55,240,59.5,217.2,73.2,194.8"/>
	<path class="st37" d="M194.8,105.4c-92,33.6-151.3,103-132.5,154.9l333.2-121.7C376.7,86.6,286.8,71.8,194.8,105.4"/>
	<path class="st38" d="M263,293.5c92-33.6,151.5-102.7,132.5-154.9L62.3,260.3C81.3,312.6,171,327.1,263,293.5"/>
	<path class="st36" d="M395.5,138.6L62.3,260.3c6.5,18,31.4,26.9,66.3,26.9c34,0,77.6-8.4,123-25
		C343.7,228.5,408.4,174.1,395.5,138.6"/>
	<path class="st35" d="M329.2,111.7c-34,0-77.6,8.4-123,25c-92,33.6-156.8,88-143.9,123.6l333.2-121.7
		C389,120.6,364.1,111.7,329.2,111.7"/>
	<path class="st38" d="M310.8,333.1L310.8,333.1c-9.8,0-24.3-8.9-43-26.3c-22.1-20.7-47.5-50.9-71.4-85.2
		c-23.9-34.3-43.6-68.6-55.3-96.5c-12.8-30.5-14.7-49.2-5.4-55.7c2-1.4,4.5-2.1,7.2-2.1c7.5,0,22.1,5.6,49.1,32.2l0.6,0.6l-0.1,0.8
		c-0.2,1.9-0.4,3.8-0.5,5.7l-0.3,3.8l-2.7-2.7c-29.1-29.3-41.9-32.5-46.1-32.5c-1.2,0-2.1,0.2-2.8,0.7c-4,2.8-4.3,16.6,8.2,46.1
		c11.6,27.5,30.9,61.2,54.5,95.1c23.6,33.8,48.6,63.7,70.4,84c23.5,21.9,34,24.2,37.5,24.2c1.2,0,2.2-0.3,2.9-0.8
		c4.2-3,4.2-17.7-9.6-49.5l-0.6-1.5l1.4-0.8c1.4-0.8,2.7-1.5,4-2.2l1.7-0.9l0.8,1.8c9.8,22.5,19,51.2,7,59.6
		C316.1,332.4,313.6,333.1,310.8,333.1z M310.8,329.7L310.8,329.7l0,1.7C310.8,331.4,310.8,329.7,310.8,329.7z"/>
	<path class="st38" d="M265.3,292.5l-0.1,1.7c-2.3,28.8-8.5,63.4-24.4,64.8c-0.3,0-0.7,0-1,0c-10.8,0-21.1-15.5-30.5-46.2
		c-8.9-29-15.8-67.9-19.4-109.7c-3.6-41.7-3.6-81.3,0.2-111.4c4.1-32.8,11.8-50,23-50.9c0.3,0,0.7,0,1,0c7.9,0,19.7,8.9,31.9,50.4
		l-7.9,1.5c-4.1-13.9-8.5-25.2-12.9-32.9c-4.1-7.2-8-11.1-11.1-11.1c-0.1,0-0.2,0-0.3,0c-4.9,0.4-11.9,12.2-15.9,44
		c-3.7,29.6-3.7,68.5-0.1,109.7c3.6,41.2,10.4,79.5,19.1,108c3.9,12.8,8.2,23.3,12.4,30.4c3.9,6.6,7.6,10.2,10.6,10.2
		c0.1,0,0.2,0,0.3,0c4.6-0.4,13.4-12.7,17.1-55.8L265.3,292.5"/>
</g>
</svg>
