<?xml version="1.0" encoding="utf-8"?>
<!-- Generator: Adobe Illustrator 24.3.0, SVG Export Plug-In . SVG Version: 6.00 Build 0)  -->
<svg version="1.1" id="Layer_1" xmlns="http://www.w3.org/2000/svg" xmlns:xlink="http://www.w3.org/1999/xlink" x="0px" y="0px"
	 viewBox="0 0 400 400" style="enable-background:new 0 0 400 400;" xml:space="preserve">
<style type="text/css">
	.st0{fill:#353535;}
	.st1{fill:#0ACF83;}
	.st2{fill:#A259FF;}
	.st3{fill:#F24E1E;}
	.st4{fill:#FF7262;}
	.st5{fill:#1ABCFE;}
	.st6{fill:#261300;}
	.st7{fill:#FF7C00;}
	.st8{fill:#FFFFFF;}
	.st9{fill:#E44D26;}
	.st10{fill:#F16529;}
	.st11{fill:#EBEBEB;}
	.st12{fill:#0170BA;}
	.st13{fill:#29A9DF;}
	.st14{fill:#CFCFCF;}
	.st15{fill:#EAEBEC;}
	.st16{fill:#F0BE25;}
	.st17{fill:#E4A126;}
	.st18{fill:#563D7C;}
	.st19{enable-background:new    ;}
	.st20{fill:#152347;}
	.st21{fill:#31C5F0;}
	.st22{fill:#1E2E3B;}
	.st23{fill:#0868AC;}
	.st24{fill:#FDB300;}
	.st25{fill:#EA6C00;}
	.st26{fill:#FDAD00;}
	.st27{fill:#FDD231;}
	.st28{fill:#FEEEB7;}
	.st29{fill:#2489CA;}
	.st30{fill:#1070B3;}
	.st31{fill:#0877B9;}
	.st32{fill:#3C99D4;}
	.st33{fill-rule:evenodd;clip-rule:evenodd;fill:url(#SVGID_1_);}
</style>
<linearGradient id="SVGID_1_" gradientUnits="userSpaceOnUse" x1="-5462.0352" y1="620.7962" x2="-5462.0352" y2="620.7001" gradientTransform="matrix(1800.3628 0 0 -2465.7146 9833845 1530717)">
	<stop  offset="0" style="stop-color:#D378E5"/>
	<stop  offset="1" style="stop-color:#7526C2"/>
</linearGradient>
<path class="st33" d="M61.8,330.7V148.9c0-76.3,61.9-138.2,138.2-138.2s138.2,61.9,138.2,138.2c0,75.3-60.2,136.6-135.2,138.2v0
	c-21.6,0-39.1-17.5-39.1-39.1c0-21.4,17.2-38.7,38.5-39V209c32.1-1.3,57.7-27.7,57.7-60c0-33.2-26.9-60.1-60.1-60.1
	s-60.1,26.9-60.1,60.1v201.3c0,21.6-17.5,39.1-39.1,39.1c-8,0-15.9-2.5-22.4-7.1c11.2-3.3,19.4-13.7,19.4-26c0-14.9-12.1-27-27-27
	C67.7,329.2,64.6,329.7,61.8,330.7z M203,275.1c14.9,0,27-12.1,27-27s-12.1-27-27-27s-27,12.1-27,27S188.1,275.1,203,275.1z"/>
</svg>
