<?xml version="1.0" encoding="utf-8"?>
<!-- Generator: Adobe Illustrator 25.0.1, SVG Export Plug-In . SVG Version: 6.00 Build 0)  -->
<svg version="1.1" id="Layer_1" xmlns="http://www.w3.org/2000/svg" xmlns:xlink="http://www.w3.org/1999/xlink" x="0px" y="0px"
	 viewBox="0 0 400 400" style="enable-background:new 0 0 400 400;" xml:space="preserve">
<style type="text/css">
	.st0{fill:#353535;}
	.st1{fill:#0ACF83;}
	.st2{fill:#A259FF;}
	.st3{fill:#F24E1E;}
	.st4{fill:#FF7262;}
	.st5{fill:#1ABCFE;}
	.st6{fill:#261300;}
	.st7{fill:#FF7C00;}
	.st8{fill:#FFFFFF;}
	.st9{fill:#E44D26;}
	.st10{fill:#F16529;}
	.st11{fill:#EBEBEB;}
	.st12{fill:#0170BA;}
	.st13{fill:#29A9DF;}
	.st14{fill:#CFCFCF;}
	.st15{fill:#EAEBEC;}
	.st16{fill:#F0BE25;}
	.st17{fill:#E4A126;}
	.st18{fill:#563D7C;}
	.st19{enable-background:new    ;}
	.st20{fill:#152347;}
	.st21{fill:#31C5F0;}
	.st22{fill:#1E2E3B;}
	.st23{fill:#0868AC;}
	.st24{fill:#FDB300;}
	.st25{fill:#EA6C00;}
	.st26{fill:#FDAD00;}
	.st27{fill:#FDD231;}
	.st28{fill:#FEEEB7;}
	.st29{fill:#2489CA;}
	.st30{fill:#1070B3;}
	.st31{fill:#0877B9;}
	.st32{fill:#3C99D4;}
	.st33{fill-rule:evenodd;clip-rule:evenodd;fill:url(#SVGID_1_);}
	.st34{fill:#DC395F;}
	.st35{fill-rule:evenodd;clip-rule:evenodd;fill:#FDBD39;}
	.st36{fill-rule:evenodd;clip-rule:evenodd;fill:#F69833;}
	.st37{fill-rule:evenodd;clip-rule:evenodd;fill:#FECF33;}
	.st38{fill-rule:evenodd;clip-rule:evenodd;fill:#EE6723;}
	.st39{fill:#4D4D4E;}
	.st40{fill:#F89820;}
	.st41{fill:url(#SVGID_2_);}
	.st42{fill:url(#SVGID_3_);}
	.st43{fill:url(#SVGID_4_);stroke:#FFFFFF;}
	.st44{fill:#F32735;}
	.st45{fill:#CF6296;}
	.st46{fill:none;stroke:#AAAAAA;stroke-miterlimit:10;}
	.st47{fill:#8ED6FB;}
	.st48{fill:#1C78C0;}
	.st49{fill:#41B883;}
	.st50{fill:#34495E;}
	.st51{fill-rule:evenodd;clip-rule:evenodd;fill:url(#SVGID_5_);}
</style>
<path class="st45" d="M339.1,221.6c-13.5,0.1-25.2,3.3-34.9,8.1c-3.6-7.1-7.2-13.4-7.8-18.1c-0.7-5.5-1.5-8.7-0.7-15.2
	c0.9-6.5,4.6-15.7,4.6-16.4c-0.1-0.7-0.8-4-8.6-4.1c-7.8-0.1-14.4,1.5-15.2,3.5c-0.8,2.1-2.3,6.7-3.2,11.5
	c-1.4,7.1-15.5,32.2-23.6,45.4c-2.6-5.1-4.9-9.7-5.3-13.2c-0.7-5.5-1.5-8.7-0.7-15.2c0.9-6.5,4.6-15.7,4.6-16.4
	c-0.1-0.7-0.8-4-8.6-4.1c-7.8-0.1-14.4,1.5-15.2,3.5c-0.8,2.1-1.6,6.9-3.2,11.5c-1.6,4.6-20.4,46.6-25.4,57.5
	c-2.5,5.5-4.7,10-6.2,13c0,0,0,0,0,0s-0.1,0.2-0.3,0.5c-1.3,2.6-2.1,4-2.1,4s0,0,0,0.1c-1,1.9-2.2,3.7-2.7,3.7
	c-0.4,0-1.2-5.1,0.2-12c2.8-14.6,9.5-37.2,9.5-38c0-0.4,1.3-4.4-4.4-6.4c-5.5-2-7.4,1.3-7.9,1.4c-0.5,0-0.8,1.2-0.8,1.2
	s6.1-25.5-11.7-25.5c-11.1,0-26.5,12.2-34.1,23.2c-4.8,2.6-15,8.2-25.9,14.2c-4.2,2.3-8.4,4.6-12.5,6.9c-0.3-0.3-0.5-0.6-0.8-0.9
	c-21.6-23-61.4-39.3-59.7-70.2c0.6-11.2,4.5-40.8,76.6-76.7c59-29.4,106.3-21.3,114.4-3.4c11.7,25.6-25.2,73.2-86.5,80.1
	c-23.3,2.6-35.6-6.4-38.7-9.8c-3.2-3.5-3.7-3.7-4.9-3c-2,1.1-0.7,4.2,0,6.1c1.8,4.8,9.3,13.2,22.1,17.4c11.3,3.7,38.7,5.7,71.8-7.1
	c37.1-14.4,66.1-54.3,57.6-87.7c-8.7-34-65-45.1-118.3-26.2c-31.7,11.3-66.1,29-90.8,52.1C10.3,144.1,5.6,168,7.5,178
	c6.9,35.5,55.8,58.6,75.4,75.7c-1,0.5-1.9,1-2.7,1.5c-9.8,4.9-47.1,24.4-56.4,45c-10.6,23.4,1.7,40.2,9.8,42.4
	c25.2,7,51-5.6,64.8-26.3c13.9-20.7,12.2-47.6,5.8-59.9c-0.1-0.2-0.2-0.3-0.2-0.5c2.5-1.5,5.1-3,7.7-4.5c5-2.9,9.9-5.7,14.2-8
	c-2.4,6.5-4.1,14.4-5,25.6c-1.1,13.3,4.4,30.4,11.5,37.2c3.1,3,6.9,3,9.3,3c8.3,0,12.1-6.9,16.2-15c5.1-10,9.6-21.6,9.6-21.6
	s-5.7,31.4,9.8,31.4c5.6,0,11.3-7.3,13.8-11c0,0,0,0.1,0,0.1s0.1-0.2,0.4-0.7c0.6-0.9,0.9-1.5,0.9-1.5s0-0.1,0-0.2
	c2.3-3.9,7.3-12.9,14.8-27.7c9.7-19.1,19.1-43.1,19.1-43.1s0.9,5.9,3.7,15.5c1.7,5.7,5.2,12,8,18c-2.3,3.1-3.7,4.9-3.7,4.9
	s0,0,0,0.1c-1.8,2.4-3.8,5-6,7.5c-7.7,9.2-16.9,19.6-18.1,22.6c-1.4,3.6-1.1,6.2,1.7,8.3c2,1.5,5.7,1.8,9.5,1.5
	c6.9-0.5,11.8-2.2,14.2-3.2c3.7-1.3,8.1-3.4,12.2-6.4c7.5-5.5,12.1-13.5,11.7-24c-0.2-5.8-2.1-11.5-4.4-17c0.7-1,1.4-2,2.1-3
	c11.9-17.4,21.1-36.5,21.1-36.5s0.9,5.9,3.7,15.5c1.4,4.9,4.3,10.3,6.8,15.5c-11.2,9.1-18.1,19.7-20.5,26.6
	c-4.5,12.8-1,18.6,5.6,19.9c3,0.6,7.2-0.8,10.3-2.1c3.9-1.3,8.6-3.5,13-6.7c7.5-5.5,14.8-13.3,14.4-23.8c-0.2-4.8-1.5-9.5-3.3-14.1
	c9.5-4,21.8-6.1,37.4-4.3c33.5,3.9,40.1,24.9,38.9,33.6c-1.3,8.8-8.3,13.6-10.6,15c-2.4,1.5-3.1,2-2.9,3c0.3,1.6,1.4,1.5,3.4,1.2
	c2.8-0.5,17.6-7.1,18.3-23.3C393.7,244,374,221.4,339.1,221.6z M80.5,308.8c-11.1,12.1-26.6,16.7-33.3,12.8
	c-7.2-4.2-4.3-22,9.3-34.9c8.3-7.8,19-15.1,26.2-19.5c1.6-1,4-2.4,6.9-4.1c0.5-0.3,0.7-0.4,0.7-0.4l0,0c0.6-0.3,1.1-0.7,1.7-1
	C97,280,92.2,296.1,80.5,308.8z M161.5,253.8c-3.9,9.4-12,33.6-16.9,32.3c-4.2-1.1-6.8-19.5-0.8-37.5c3-9.1,9.4-20,13.2-24.2
	c6.1-6.8,12.7-9,14.4-6.3C173.3,221.6,163.9,247.8,161.5,253.8z M228.4,285.7c-1.6,0.9-3.1,1.4-3.8,1c-0.5-0.3,0.7-1.4,0.7-1.4
	s8.4-9,11.7-13.1c1.9-2.4,4.1-5.2,6.6-8.4c0,0.3,0,0.6,0,0.9C243.4,275.5,233,282.7,228.4,285.7z M279.9,273.9
	c-1.2-0.9-1-3.7,3-12.5c1.6-3.4,5.2-9.2,11.5-14.8c0.7,2.3,1.2,4.5,1.2,6.5C295.4,266.8,285.7,271.8,279.9,273.9z"/>
</svg>
