<?xml version="1.0" encoding="utf-8"?>
<!-- Generator: Adobe Illustrator 24.3.0, SVG Export Plug-In . SVG Version: 6.00 Build 0)  -->
<svg version="1.1" id="Layer_1" xmlns="http://www.w3.org/2000/svg" xmlns:xlink="http://www.w3.org/1999/xlink" x="0px" y="0px"
	 viewBox="0 0 400 400" style="enable-background:new 0 0 400 400;" xml:space="preserve">
<style type="text/css">
	.st0{fill:#353535;}
	.st1{fill:#0ACF83;}
	.st2{fill:#A259FF;}
	.st3{fill:#F24E1E;}
	.st4{fill:#FF7262;}
	.st5{fill:#1ABCFE;}
	.st6{fill:#261300;}
	.st7{fill:#FF7C00;}
	.st8{fill:#FFFFFF;}
	.st9{fill:#E44D26;}
	.st10{fill:#F16529;}
	.st11{fill:#EBEBEB;}
	.st12{fill:#0170BA;}
	.st13{fill:#29A9DF;}
	.st14{fill:#CFCFCF;}
	.st15{fill:#EAEBEC;}
	.st16{fill:#F0BE25;}
	.st17{fill:#E4A126;}
	.st18{fill:#563D7C;}
	.st19{enable-background:new    ;}
	.st20{fill:#152347;}
	.st21{fill:#31C5F0;}
	.st22{fill:#1E2E3B;}
	.st23{fill:#0868AC;}
	.st24{fill:#FDB300;}
	.st25{fill:#EA6C00;}
	.st26{fill:#FDAD00;}
	.st27{fill:#FDD231;}
	.st28{fill:#FEEEB7;}
	.st29{fill:#2489CA;}
	.st30{fill:#1070B3;}
	.st31{fill:#0877B9;}
	.st32{fill:#3C99D4;}
	.st33{fill-rule:evenodd;clip-rule:evenodd;fill:url(#SVGID_1_);}
</style>
<g id="Page-1">
	<g id="sketch-symbol">
		<polygon id="Path" class="st24" points="89.2,38.8 200,27.1 310.8,38.8 396.6,154 200,382.9 3.4,154 		"/>
		<g id="Group" transform="translate(0.000000, 126.881084)">
			<polygon id="Path_1_" class="st25" points="83,27.1 200,256 3.4,27.1 			"/>
			<polygon id="Path_2_" class="st25" points="317,27.1 200,256 396.6,27.1 			"/>
			<polygon id="Path_3_" class="st26" points="83,27.1 317,27.1 200,256 			"/>
		</g>
		<g id="Group_1_">
			<polygon id="Path_4_" class="st27" points="200,27.1 89.2,38.8 83,154 			"/>
			<polygon id="Path_5_" class="st27" points="200,27.1 310.8,38.8 317,154 			"/>
			<polygon id="Path_6_" class="st26" points="396.6,154 310.8,38.8 317,154 			"/>
			<polygon id="Path_7_" class="st26" points="3.4,154 89.2,38.8 83,154 			"/>
			<polygon id="Path_8_" class="st28" points="200,27.1 83,154 317,154 			"/>
		</g>
	</g>
</g>
</svg>
