<?xml version="1.0" encoding="utf-8"?>
<!-- Generator: Adobe Illustrator 24.3.0, SVG Export Plug-In . SVG Version: 6.00 Build 0)  -->
<svg version="1.1" id="Layer_1" xmlns="http://www.w3.org/2000/svg" xmlns:xlink="http://www.w3.org/1999/xlink" x="0px" y="0px"
	 viewBox="0 0 400 400" style="enable-background:new 0 0 400 400;" xml:space="preserve">
<style type="text/css">
	.st0{fill:#353535;}
	.st1{fill:#0ACF83;}
	.st2{fill:#A259FF;}
	.st3{fill:#F24E1E;}
	.st4{fill:#FF7262;}
	.st5{fill:#1ABCFE;}
	.st6{fill:#261300;}
	.st7{fill:#FF7C00;}
	.st8{fill:#FFFFFF;}
	.st9{fill:#E44D26;}
	.st10{fill:#F16529;}
	.st11{fill:#EBEBEB;}
	.st12{fill:#0170BA;}
	.st13{fill:#29A9DF;}
	.st14{fill:#CFCFCF;}
	.st15{fill:#EAEBEC;}
	.st16{fill:#F0BE25;}
	.st17{fill:#E4A126;}
	.st18{fill:#563D7C;}
	.st19{enable-background:new    ;}
	.st20{fill:#152347;}
	.st21{fill:#31C5F0;}
	.st22{fill:#1E2E3B;}
	.st23{fill:#0868AC;}
	.st24{fill:#FDB300;}
	.st25{fill:#EA6C00;}
	.st26{fill:#FDAD00;}
	.st27{fill:#FDD231;}
	.st28{fill:#FEEEB7;}
	.st29{fill:#2489CA;}
	.st30{fill:#1070B3;}
	.st31{fill:#0877B9;}
	.st32{fill:#3C99D4;}
	.st33{fill-rule:evenodd;clip-rule:evenodd;fill:url(#SVGID_1_);}
</style>
<g>
	<path class="st29" d="M6.1,140.8c0,0-9.6-6.9,1.9-16.2l26.9-24.1c0,0,7.7-8.1,15.9-1l248.5,188.1v90.2c0,0-0.1,14.2-18.3,12.6
		L6.1,140.8z"/>
	<path class="st30" d="M70.1,199l-64,58.2c0,0-6.6,4.9,0,13.6l29.7,27c0,0,7.1,7.6,17.5-1l67.9-51.5L70.1,199z"/>
	<path class="st31" d="M182.5,199.4L300,109.8L299.2,20c0,0-5-19.6-21.7-9.4L121.2,152.9L182.5,199.4z"/>
	<path class="st32" d="M280.9,390.5c6.8,7,15.1,4.7,15.1,4.7l91.5-45.1c11.7-8,10.1-17.9,10.1-17.9V62.9c0-11.8-12.1-15.9-12.1-15.9
		L306.2,8.7c-17.3-10.7-28.7,1.9-28.7,1.9s14.6-10.5,21.7,9.4v356.1c0,2.4-0.5,4.9-1.6,7c-2.1,4.2-6.6,8.1-17.5,6.5L280.9,390.5z"/>
</g>
</svg>
