<?xml version="1.0" encoding="utf-8"?>
<!-- Generator: Adobe Illustrator 25.0.1, SVG Export Plug-In . SVG Version: 6.00 Build 0)  -->
<svg version="1.1" id="Layer_1" xmlns="http://www.w3.org/2000/svg" xmlns:xlink="http://www.w3.org/1999/xlink" x="0px" y="0px"
	 viewBox="0 0 400 400" style="enable-background:new 0 0 400 400;" xml:space="preserve">
<style type="text/css">
	.st0{fill:#353535;}
	.st1{fill:#0ACF83;}
	.st2{fill:#A259FF;}
	.st3{fill:#F24E1E;}
	.st4{fill:#FF7262;}
	.st5{fill:#1ABCFE;}
	.st6{fill:#261300;}
	.st7{fill:#FF7C00;}
	.st8{fill:#FFFFFF;}
	.st9{fill:#E44D26;}
	.st10{fill:#F16529;}
	.st11{fill:#EBEBEB;}
	.st12{fill:#0170BA;}
	.st13{fill:#29A9DF;}
	.st14{fill:#CFCFCF;}
	.st15{fill:#EAEBEC;}
	.st16{fill:#F0BE25;}
	.st17{fill:#E4A126;}
	.st18{fill:#563D7C;}
	.st19{enable-background:new    ;}
	.st20{fill:#152347;}
	.st21{fill:#31C5F0;}
	.st22{fill:#1E2E3B;}
	.st23{fill:#0868AC;}
	.st24{fill:#FDB300;}
	.st25{fill:#EA6C00;}
	.st26{fill:#FDAD00;}
	.st27{fill:#FDD231;}
	.st28{fill:#FEEEB7;}
	.st29{fill:#2489CA;}
	.st30{fill:#1070B3;}
	.st31{fill:#0877B9;}
	.st32{fill:#3C99D4;}
	.st33{fill-rule:evenodd;clip-rule:evenodd;fill:url(#SVGID_1_);}
	.st34{fill:#DC395F;}
	.st35{fill:#4D4D4E;}
	.st36{fill:#F89820;}
	.st37{fill:url(#SVGID_2_);}
</style>
<g>
	<path class="st35" d="M339.5,391.5h-279c-28.6,0-52-23.4-52-52v-279c0-28.6,23.4-52,52-52h279c28.6,0,52,23.4,52,52v279
		C391.5,368.1,368.1,391.5,339.5,391.5z"/>
	<path class="st36" d="M96.8,124.2l200.4-63.6c0,0,14.2-7.5,10.8,6.3l0.5,61.3c0,0,2.5,9-9.9,11.2l-81.4,25.5L96.8,124.2z"/>
	<path class="st36" d="M96.8,124.2c0,0-7.9,1.9-5.6,15.3l-0.4,59.1c0,0-0.7,7.5,13.5,10.5L302.9,273c0,0,6.7,2.7,5.9-5.6l0.1-65.8
		c0,0,1.9-6.8-10.5-11.2l-81.2-25.5L96.8,124.2z"/>
	
		<linearGradient id="SVGID_1_" gradientUnits="userSpaceOnUse" x1="-5313.5562" y1="505.4559" x2="-5277.3174" y2="517.9942" gradientTransform="matrix(5.5944 0 0 -5.5944 29828.3594 3130.2727)">
		<stop  offset="0.233" style="stop-color:#F89822"/>
		<stop  offset="1" style="stop-color:#C27818"/>
	</linearGradient>
	<path style="fill:url(#SVGID_1_);" d="M184.3,234.8l-84.5,25.8c0,0-10.2,0.3-9,19.5c1.2,19.1-0.1,57.6-0.1,57.6s0.9,7.1,10.6,3
		l200.4-63.9c0,0,7.1-1.8,1.1-3.8C296.9,271,184.3,234.8,184.3,234.8z"/>
</g>
</svg>
