<?xml version="1.0" encoding="utf-8"?>
<!-- Generator: Adobe Illustrator 25.0.0, SVG Export Plug-In . SVG Version: 6.00 Build 0)  -->
<svg version="1.1" id="Layer_1" xmlns="http://www.w3.org/2000/svg" xmlns:xlink="http://www.w3.org/1999/xlink" x="0px" y="0px"
	 viewBox="0 0 400 400" style="enable-background:new 0 0 400 400;" xml:space="preserve">
<style type="text/css">
	.st0{fill:#353535;}
	.st1{fill:#0ACF83;}
	.st2{fill:#A259FF;}
	.st3{fill:#F24E1E;}
	.st4{fill:#FF7262;}
	.st5{fill:#1ABCFE;}
	.st6{fill:#261300;}
	.st7{fill:#FF7C00;}
	.st8{fill:#FFFFFF;}
	.st9{fill:#E44D26;}
	.st10{fill:#F16529;}
	.st11{fill:#EBEBEB;}
	.st12{fill:#0170BA;}
	.st13{fill:#29A9DF;}
	.st14{fill:#CFCFCF;}
	.st15{fill:#EAEBEC;}
	.st16{fill:#F0BE25;}
	.st17{fill:#E4A126;}
	.st18{fill:#563D7C;}
	.st19{enable-background:new    ;}
	.st20{fill:#152347;}
	.st21{fill:#31C5F0;}
	.st22{fill:#1E2E3B;}
	.st23{fill:#0868AC;}
	.st24{fill:#FDB300;}
	.st25{fill:#EA6C00;}
	.st26{fill:#FDAD00;}
	.st27{fill:#FDD231;}
	.st28{fill:#FEEEB7;}
	.st29{fill:#2489CA;}
	.st30{fill:#1070B3;}
	.st31{fill:#0877B9;}
	.st32{fill:#3C99D4;}
	.st33{fill-rule:evenodd;clip-rule:evenodd;fill:url(#SVGID_1_);}
	.st34{fill:#DC395F;}
	.st35{fill-rule:evenodd;clip-rule:evenodd;fill:#FDBD39;}
	.st36{fill-rule:evenodd;clip-rule:evenodd;fill:#F69833;}
	.st37{fill-rule:evenodd;clip-rule:evenodd;fill:#FECF33;}
	.st38{fill-rule:evenodd;clip-rule:evenodd;fill:#EE6723;}
	.st39{fill:#4D4D4E;}
	.st40{fill:#F89820;}
	.st41{fill:url(#SVGID_2_);}
	.st42{fill:url(#SVGID_3_);}
	.st43{fill:url(#SVGID_4_);stroke:#FFFFFF;}
	.st44{fill:#E94F32;}
	.st45{fill:#CF6296;}
	.st46{fill:none;stroke:#000000;stroke-miterlimit:10;}
	.st47{fill:#8ED6FB;}
	.st48{fill:#1C78C0;}
	.st49{fill:#41B883;}
	.st50{fill:#34495E;}
	.st51{fill-rule:evenodd;clip-rule:evenodd;fill:url(#SVGID_5_);}
	.st52{fill:#D34A47;}
	.st53{fill:#EB494A;}
</style>
<path class="st53" d="M385.2,199.2c-1,0.6-1.8,1.3-2.7,2.1c-6,5.2-11.8,10.6-17.9,15.7c-9.3,7.6-18.8,15.1-28.4,22.4
	c-2.3,1.7-5.8,3.6-8.2,0.6c-2.3-2.9,0.7-5.3,2.5-7.5c6.6-8.1,13.6-15.9,19.6-24.4c4.1-5.8,7.6-12.2,9.8-18.9
	c3.6-11-3.2-19.3-14.6-19.4c-10.6-0.1-19,5-26.9,11.2c-3.8,3-7.3,6.4-10.6,9.4c0-4.2,0.4-8.5-0.2-12.6c-0.3-1.8-2.4-4-4.2-4.6
	c-1.6-0.5-4.3,0.5-5.6,1.7c-2,1.9-3.7,4.5-4.8,7.1c-3,6.9-5.6,14-8.5,20.9c-0.7,1.6-1.2,3.5-2.4,4.6c-9.7,8.6-19.4,17.1-29.4,25.3
	c-2.7,2.2-6.3,3.7-9.7,4.9c-4.2,1.5-6.7-0.5-6.2-5c0.4-3.4,1.4-6.9,2.7-10.1c12.2-30.1,24.5-60.2,36.8-90.4
	c3.4-8.3,6.6-16.5,9.8-24.9c1.2-3.1,0.6-5.9-2.3-8c-4.3-3.2-8.5-3.2-11.5,1.2c-3.3,4.8-6.4,10-8.6,15.4
	c-8.1,19.9-15.8,39.9-23.6,59.9c-6.2,15.9-12.4,31.8-18.2,47.8c-2.7,7.3-13.6,16-21.6,16.2c-3,0.1-5.1-1.2-5.2-4.2
	c-0.2-3.1-0.4-6.4,0.6-9.2c4-11.5,8.5-22.8,12.8-34.2c1.7-4.5,3.4-8.9,4.6-13.5c1-3.9-1.6-8.3-5-9.6c-3.4-1.2-6.8,0.2-9,4.2
	c-1.6,3-2.9,6.1-4.2,9.2c-3.8,8.6-7.3,17.4-11.5,25.8c-4.7,9.3-10.7,17.8-19.4,23.8c-3.7,2.5-8.2,4.2-12.6,5.3
	c-3.6,0.9-5.8-1.3-5.8-5.1c0-3.2,0.3-6.5,1.1-9.7c2.8-12,8.5-22.8,14.2-33.5c2-3.7,3.7-7.7,5-11.7c1.2-3.7-0.4-6.3-4-7.8
	c-5-2.2-10.6,0.1-13.6,6.2c-9.2,18.5-17.4,37.3-21.9,57.6c-0.6,2.7-1.1,5.4-1.2,8.2c-0.3,12.1,8.5,18.9,21,16.3
	c14.3-2.9,25-11.2,33.4-22.8c0.7-0.9,1.3-1.8,1.8-2.5c0,5.1-0.2,9.9,0,14.8c0.4,8,6.3,12.8,13.9,10.4c6.7-2.2,12.9-5.9,19.3-9
	c1.3-0.6,2.4-1.6,3.7-2.4c4,11.1,10,14.1,21.3,10.7c8.5-2.5,15.6-7.5,22.5-12.8c2.9-2.3,5.8-4.7,8.6-7.1c0.1,2.2-0.5,3.9-1.3,5.5
	c-7.8,17.2-15.8,34.2-23.2,51.5c-2,4.6-3,9.8-3.7,14.9c-0.5,4.1,2.6,6.9,6.8,7.4c3.5,0.4,6.4-1,8.2-3.7c2.7-3.9,5.4-7.9,7.2-12.3
	c5.4-13.3,10-26.8,15.4-40.1c8-19.6,17.4-38.5,31-55c5.5-6.7,11.6-13,19.9-16.4c3.1-1.3,6.8-2.5,9.5,0.6c2.6,3.1,0.1,6.1-1.7,8.5
	c-4.3,6-9,11.7-13.7,17.5c-6.3,7.8-13.3,15.2-17,24.8c-3.7,9.5,0.7,16.6,10.8,17.7c2.1,0.2,4.3,0.1,6.4-0.2
	c10.3-1.4,19.8-5.3,27.7-12c12.1-10.2,24-20.7,35.5-31.6c2.7-2.5,4.1-7.2,4.6-11.1C393.4,198.5,389.6,196.6,385.2,199.2z
	 M136.7,119.9c2-5.3,1.8-10.8-1.6-15.5c-3.2-4.4-6.8-8.8-10.8-12.5c-7.8-6.9-17-9.9-27.5-8.3C84.9,85.4,75.3,91.4,66.6,99
	c-20.4,17.7-34.2,40.1-44.8,64.5c-8,18.4-13.9,37.4-14.6,57.7c-0.3,8.7,0.2,17.4,4,25.4c4.3,9.1,11.2,13.9,21.5,13.5
	c8.5-0.3,16.2-3.3,22.7-8.2c8.8-6.6,17-14.1,25.3-21.4c1-0.9,1.4-2.4,2.1-3.6c0.5,0.4,1,0.8,1.4,1.2c-0.3,1.2-0.6,2.3-1,3.5
	c-2.7,8.4-5.9,16.6-8,25.1c-1.8,7.5-2.7,15.2-3.4,22.9c-0.2,1.9,1.8,4.7,3.6,5.8c2.5,1.5,5.3,0.1,6.9-2.3c2.1-3.2,4.4-6.5,5.6-10.2
	c3.5-10.7,6.6-21.6,9.8-32.4c3.3-11.3,6.3-22.7,9.9-33.9c3.1-9.5,7.3-18.7,10.2-28.3c1.6-5.4,2.1-11.4,1.7-17
	c-0.5-6.3-8-8.4-12.6-3.9c-1.7,1.6-3.1,3.7-4,5.8c-1.9,4.4-3.5,8.9-4.8,13.4c-2.8,9.3-5.4,18.6-12,26.1
	c-5.5,6.4-10.8,12.9-16.7,18.9c-6.2,6.4-13.1,12.2-21.6,15.6c-8.6,3.4-14.2,0.5-16.6-8.4c-2.3-8.4-1.3-16.7,0.4-25
	c5.4-25.8,16.4-49.2,31.1-71c6.6-9.7,13.8-18.9,23.5-25.8c2.5-1.8,5.3-3.4,8.2-4.5c8.4-3.3,15.3-1.3,20.6,6c3,4.2,5.3,8.8,8.4,13
	C127.6,127.4,134.2,126.4,136.7,119.9z"/>
</svg>
