<?xml version="1.0" encoding="utf-8"?>
<!-- Generator: Adobe Illustrator 25.0.0, SVG Export Plug-In . SVG Version: 6.00 Build 0)  -->
<svg version="1.1" id="Layer_1" xmlns="http://www.w3.org/2000/svg" xmlns:xlink="http://www.w3.org/1999/xlink" x="0px" y="0px"
	 viewBox="0 0 400 400" style="enable-background:new 0 0 400 400;" xml:space="preserve">
<style type="text/css">
	.st0{fill:#353535;}
	.st1{fill:#0ACF83;}
	.st2{fill:#A259FF;}
	.st3{fill:#F24E1E;}
	.st4{fill:#FF7262;}
	.st5{fill:#1ABCFE;}
	.st6{fill:#261300;}
	.st7{fill:#FF7C00;}
	.st8{fill:#FFFFFF;}
	.st9{fill:#E44D26;}
	.st10{fill:#F16529;}
	.st11{fill:#EBEBEB;}
	.st12{fill:#0170BA;}
	.st13{fill:#29A9DF;}
	.st14{fill:#CFCFCF;}
	.st15{fill:#EAEBEC;}
	.st16{fill:#F0BE25;}
	.st17{fill:#E4A126;}
	.st18{fill:#563D7C;}
	.st19{enable-background:new    ;}
	.st20{fill:#152347;}
	.st21{fill:#31C5F0;}
	.st22{fill:#1E2E3B;}
	.st23{fill:#0868AC;}
	.st24{fill:#FDB300;}
	.st25{fill:#EA6C00;}
	.st26{fill:#FDAD00;}
	.st27{fill:#FDD231;}
	.st28{fill:#FEEEB7;}
	.st29{fill:#2489CA;}
	.st30{fill:#1070B3;}
	.st31{fill:#0877B9;}
	.st32{fill:#3C99D4;}
	.st33{fill-rule:evenodd;clip-rule:evenodd;fill:url(#SVGID_1_);}
	.st34{fill:#DC395F;}
	.st35{fill-rule:evenodd;clip-rule:evenodd;fill:#FDBD39;}
	.st36{fill-rule:evenodd;clip-rule:evenodd;fill:#F69833;}
	.st37{fill-rule:evenodd;clip-rule:evenodd;fill:#FECF33;}
	.st38{fill-rule:evenodd;clip-rule:evenodd;fill:#EE6723;}
	.st39{fill:#4D4D4E;}
	.st40{fill:#F89820;}
	.st41{fill:url(#SVGID_2_);}
	.st42{fill:url(#SVGID_3_);}
	.st43{fill:url(#SVGID_4_);stroke:#FFFFFF;}
	.st44{fill:#E94F32;}
	.st45{fill:#CF6296;}
	.st46{fill:none;stroke:#000000;stroke-miterlimit:10;}
	.st47{fill:#8ED6FB;}
	.st48{fill:#1C78C0;}
	.st49{fill:#41B883;}
	.st50{fill:#34495E;}
	.st51{fill-rule:evenodd;clip-rule:evenodd;fill:url(#SVGID_5_);}
	.st52{fill:#D34A47;}
	.st53{fill:#EB494A;}
</style>
<g>
	<g id="_x23_0170baff_1_">
		<path class="st12" d="M32,9.5c112.1,0,224,0,336.1,0c-6.2,69.7-12.2,139.3-18.6,209c-3.8,44.4-7.7,89-11.9,133.4
			c-23.9,6.4-47.7,13.6-71.4,20c-22,6.4-44.1,12.2-66.1,18.6h-0.7c-20.8-6.2-42-11.7-62.8-17.9c-24.6-6.7-49.1-14.1-73.7-20.7
			c-3.3-33.2-6.2-66.6-9-100C48.5,190.3,42.5,128.6,37.3,67c-1.7-18.6-3.1-37.2-5.3-55.8L32,9.5"/>
	</g>
	<path class="st13" d="M201.2,365.5V43.6h136.7l-26.2,291.1L201.2,365.5z"/>
	<path class="st14" d="M86,77.2l4.1,38.7l107.4,1L95.2,161.7l3.6,42.7l102.4-0.3V77.2L86,77.2z M143.5,228.7l-41.8,0.5l6.5,64.6
		c0,0,93.1,23.4,93,23.4v-43l-54.7-10.5L143.5,228.7z"/>
	<path class="st8" d="M305,162.4c0,0-69.4-0.2-89.7-0.2l92.6-40.3l4.1-44.8L201.2,77v126.9l54.1-0.2l-3.4,54.6l-50.4,15.7h-0.2v43
		c0.2,0,93-24.3,93-24.3L305,162.4z"/>
</g>
</svg>
