<?xml version="1.0" encoding="utf-8"?>
<!-- Generator: Adobe Illustrator 25.0.1, SVG Export Plug-In . SVG Version: 6.00 Build 0)  -->
<svg version="1.1" id="Layer_1" xmlns="http://www.w3.org/2000/svg" xmlns:xlink="http://www.w3.org/1999/xlink" x="0px" y="0px"
	 viewBox="0 0 400 400" style="enable-background:new 0 0 400 400;" xml:space="preserve">
<style type="text/css">
	.st0{fill:#353535;}
	.st1{fill:#0ACF83;}
	.st2{fill:#A259FF;}
	.st3{fill:#F24E1E;}
	.st4{fill:#FF7262;}
	.st5{fill:#1ABCFE;}
	.st6{fill:#261300;}
	.st7{fill:#FF7C00;}
	.st8{fill:#FFFFFF;}
	.st9{fill:#E44D26;}
	.st10{fill:#F16529;}
	.st11{fill:#EBEBEB;}
	.st12{fill:#0170BA;}
	.st13{fill:#29A9DF;}
	.st14{fill:#CFCFCF;}
	.st15{fill:#EAEBEC;}
	.st16{fill:#F0BE25;}
	.st17{fill:#E4A126;}
	.st18{fill:#563D7C;}
	.st19{enable-background:new    ;}
	.st20{fill:#152347;}
	.st21{fill:#31C5F0;}
	.st22{fill:#1E2E3B;}
	.st23{fill:#0868AC;}
	.st24{fill:#FDB300;}
	.st25{fill:#EA6C00;}
	.st26{fill:#FDAD00;}
	.st27{fill:#FDD231;}
	.st28{fill:#FEEEB7;}
	.st29{fill:#2489CA;}
	.st30{fill:#1070B3;}
	.st31{fill:#0877B9;}
	.st32{fill:#3C99D4;}
	.st33{fill-rule:evenodd;clip-rule:evenodd;fill:url(#SVGID_1_);}
	.st34{fill:#DC395F;}
	.st35{fill-rule:evenodd;clip-rule:evenodd;fill:#FDBD39;}
	.st36{fill-rule:evenodd;clip-rule:evenodd;fill:#F69833;}
	.st37{fill-rule:evenodd;clip-rule:evenodd;fill:#FECF33;}
	.st38{fill-rule:evenodd;clip-rule:evenodd;fill:#EE6723;}
	.st39{fill:#4D4D4E;}
	.st40{fill:#F89820;}
	.st41{fill:url(#SVGID_2_);}
	.st42{fill:url(#SVGID_3_);}
	.st43{fill:url(#SVGID_4_);stroke:#FFFFFF;}
	.st44{fill:#F32735;}
	.st45{fill:#CF6296;}
	.st46{fill:none;stroke:#AAAAAA;stroke-miterlimit:10;}
	.st47{fill:#8ED6FB;}
	.st48{fill:#1C78C0;}
	.st49{fill:#41B883;}
	.st50{fill:#34495E;}
	.st51{fill-rule:evenodd;clip-rule:evenodd;fill:url(#SVGID_5_);}
</style>
<linearGradient id="SVGID_1_" gradientUnits="userSpaceOnUse" x1="9.2235" y1="-874.6498" x2="390.7765" y2="-1510.5675" gradientTransform="matrix(1 0 0 -1 0 -992.6086)">
	<stop  offset="0" style="stop-color:#2383AE"/>
	<stop  offset="1" style="stop-color:#6DD7B9"/>
</linearGradient>
<path class="st33" d="M104.6,161.8c12.7-50.9,44.5-76.3,95.4-76.3c76.3,0,85.8,57.2,124,66.8c25.4,6.4,47.7-3.2,66.8-28.6
	c-12.7,50.9-44.5,76.3-95.4,76.3c-76.3,0-85.8-57.2-124-66.8C145.9,126.9,123.7,136.4,104.6,161.8z M9.2,276.3
	c12.7-50.9,44.5-76.3,95.4-76.3c76.3,0,85.8,57.2,124,66.8c25.4,6.4,47.7-3.2,66.8-28.6c-12.7,50.9-44.5,76.3-95.4,76.3
	c-76.3,0-85.8-57.2-124-66.8C50.6,241.3,28.3,250.9,9.2,276.3z"/>
</svg>
