<svg id="Layer_1" data-name="Layer 1" xmlns="http://www.w3.org/2000/svg" viewBox="0 0 400 400"><defs><style>.cls-1{fill:#563d7c;}.cls-2{isolation:isolate;}.cls-3{fill:#fff;}</style></defs><g id="solid"><path id="bg" class="cls-1" d="M391.5,327.67a64,64,0,0,1-63.83,63.83H72.33A64,64,0,0,1,8.5,327.67V72.33A64,64,0,0,1,72.33,8.5H327.67A64,64,0,0,1,391.5,72.33Z"/><g id="B" class="cls-2"><path class="cls-3" d="M112.53,91.75H221.1c20.05,0,36.09,4.53,48.22,13.71s18.15,23,18.15,41.57c0,11.29-2.75,20.9-8.23,28.91s-13.4,14.25-23.64,18.68v.63c13.72,3,24.27,9.5,31.34,19.52s10.66,22.79,10.66,38.09A65.28,65.28,0,0,1,293,277.44a50.29,50.29,0,0,1-14.66,19.73c-6.65,5.49-15.2,9.92-25.64,13.19s-22.79,4.86-37.25,4.86H112.74V91.75Zm39.15,93.58h63.83c9.39,0,17.2-2.63,23.42-8s9.39-13,9.39-23c0-11.29-2.85-19.2-8.44-23.74s-13.71-6.85-24.37-6.85H151.68v61.61Zm0,97.92h69.11c11.92,0,21.1-3.06,27.64-9.29s9.92-14.87,9.92-26.16c0-11.08-3.27-19.52-9.92-25.54s-15.72-8.86-27.64-8.86H151.68Z"/></g></g></svg>