<?xml version="1.0" encoding="utf-8"?>
<!-- Generator: Adobe Illustrator 25.0.0, SVG Export Plug-In . SVG Version: 6.00 Build 0)  -->
<svg version="1.1" id="Layer_1" xmlns="http://www.w3.org/2000/svg" xmlns:xlink="http://www.w3.org/1999/xlink" x="0px" y="0px"
	 viewBox="0 0 400 400" style="enable-background:new 0 0 400 400;" xml:space="preserve">
<style type="text/css">
	.st0{fill:#353535;}
	.st1{fill:#0ACF83;}
	.st2{fill:#A259FF;}
	.st3{fill:#F24E1E;}
	.st4{fill:#FF7262;}
	.st5{fill:#1ABCFE;}
	.st6{fill:#261300;}
	.st7{fill:#FF7C00;}
	.st8{fill:#FFFFFF;}
	.st9{fill:#E44D26;}
	.st10{fill:#F16529;}
	.st11{fill:#EBEBEB;}
	.st12{fill:#0170BA;}
	.st13{fill:#29A9DF;}
	.st14{fill:#CFCFCF;}
	.st15{fill:#EAEBEC;}
	.st16{fill:#F0BE25;}
	.st17{fill:#E4A126;}
	.st18{fill:#563D7C;}
	.st19{enable-background:new    ;}
	.st20{fill:#152347;}
	.st21{fill:#31C5F0;}
	.st22{fill:#1E2E3B;}
	.st23{fill:#0868AC;}
	.st24{fill:#FDB300;}
	.st25{fill:#EA6C00;}
	.st26{fill:#FDAD00;}
	.st27{fill:#FDD231;}
	.st28{fill:#FEEEB7;}
	.st29{fill:#2489CA;}
	.st30{fill:#1070B3;}
	.st31{fill:#0877B9;}
	.st32{fill:#3C99D4;}
	.st33{fill-rule:evenodd;clip-rule:evenodd;fill:url(#SVGID_1_);}
	.st34{fill:#DC395F;}
	.st35{fill-rule:evenodd;clip-rule:evenodd;fill:#FDBD39;}
	.st36{fill-rule:evenodd;clip-rule:evenodd;fill:#F69833;}
	.st37{fill-rule:evenodd;clip-rule:evenodd;fill:#FECF33;}
	.st38{fill-rule:evenodd;clip-rule:evenodd;fill:#EE6723;}
	.st39{fill:#4D4D4E;}
	.st40{fill:#F89820;}
	.st41{fill:url(#SVGID_2_);}
	.st42{fill:url(#SVGID_3_);}
	.st43{fill:url(#SVGID_4_);stroke:#FFFFFF;}
	.st44{fill:#E94F32;}
	.st45{fill:#CF6296;}
	.st46{fill:none;stroke:#000000;stroke-miterlimit:10;}
	.st47{fill:#8ED6FB;}
	.st48{fill:#1C78C0;}
	.st49{fill:#41B883;}
	.st50{fill:#34495E;}
	.st51{fill-rule:evenodd;clip-rule:evenodd;fill:url(#SVGID_5_);}
	.st52{fill:#D34A47;}
	.st53{fill:#EB494A;}
</style>
<g>
	<path id="path118_1_" class="st8" d="M31.9,8.3l0.2,4.2c0,2.3,6.8,80,15,172.4l15,168.3l67.5,18.8c37.1,10.5,68.3,19,69.2,19
		c0.9,0.2,32.6-8.4,70.1-18.8c60.5-16.7,68.5-19.2,69-21.3c0.5-3,30.2-336.7,30.2-340.4V8.1H200L31.9,8.3L31.9,8.3z"/>
	<path id="path88_2_" class="st15" d="M130.1,373.4l-68.2-19.2l-0.9-5.1C60.2,344.6,30.7,14.4,30.7,9.8C30.7,8.3,48,8.1,200,8.1
		c160.6,0,169.3,0.2,169.3,2.1c-0.2,8.2-30.7,343-31.4,343.5c-0.9,0.9-133,37.7-137.4,38.2C199.5,392.4,167.6,383.9,130.1,373.4
		L130.1,373.4z M243.1,306.1c23-6.5,42-11.9,42.4-12.2c0.3-0.3,3.1-27.5,5.9-60.3c2.8-32.8,5.6-61.9,5.9-64.5l0.5-4.9h-49.5h-49.5
		v21.1v21.1h26.9h26.7l-0.5,2.4c-0.3,1.4-1.4,13.4-2.4,26.9c-1,14.1-2.4,24.9-3.3,25.6c-0.7,0.7-11.7,4-24.2,7.3l-22.8,6.1v21.4
		c0,14.6,0.3,21.4,1.2,21.4C200.9,317.4,220.1,312.4,243.1,306.1L243.1,306.1z M297.3,137.7c-0.7-5.6-7.5-80.2-7.5-83.2
		c0-1.7-4-1.9-44.8-1.9h-44.8v22v22l20.2,0.9c11.2,0.3,22.7,1,26,1.4l5.8,0.7l1.4,17.3c0.9,9.6,1.7,19.2,2.1,21.4l0.5,4.2h20.9H298
		L297.3,137.7z"/>
	<path id="path80_2_" class="st16" d="M129.6,372.3l-67.7-18.8l-15-168.3c-8.4-92.6-15-170.2-15-172.4l-0.2-4.2h168.4h168.1v2.4
		c0,3.5-29.5,337.4-30.2,340.4c-0.3,2.1-8.5,4.5-69,21.3c-37.7,10.5-69.2,18.8-70.3,18.8C197.9,391.2,166.9,382.6,129.6,372.3
		L129.6,372.3z M243.1,306.8c23.4-6.5,42.7-12.4,43.2-13.1c0.3-0.5,3.3-29.3,6.1-63.5c3-34.3,5.8-63.1,5.9-64.3
		c0.5-1.9-3.5-2.1-72.2-2.1h-72.4l3.1-32.6c1.7-18,3.1-32.8,3.1-32.8c0-0.2,10.6-0.3,23.7-0.7c21.3-0.5,65,1,66.6,2.4
		c0.5,0.5,4.2,35.9,4.2,40.8c0,2.4,0.3,2.4,22,2.4h22l-0.5-4.9c-0.3-2.6-2.1-23.2-4.2-45.7l-3.7-41l-84.9-0.3
		c-67.5-0.2-84.9,0-84.9,1c0,0.9-0.5,5.8-1,11.2c-1.4,12.9-12.6,137-12.6,140.5v2.8h72.4h72.4l-0.5,4.2c-0.3,2.3-1.6,14.3-2.4,26.3
		c-1,12.2-2.3,22.5-2.6,22.8c-1,1-43.6,12.4-46.2,12.4c-1.2,0-12.2-2.8-24.4-6.1l-22.1-6.1l-0.9-9.6c-0.3-5.2-1-12.7-1.6-16.7
		l-0.7-7.1h-21.6h-21.6v4.2c0.2,8,5.2,61.7,5.9,62.4c0.9,0.9,83.5,24.1,86.1,24.2C199.8,318.6,219.7,313.4,243.1,306.8L243.1,306.8z
		"/>
	<path id="path78_2_" class="st17" d="M129.6,372.3l-67.7-18.8l-15-168.3c-8.4-92.6-15-170.2-15-172.4l-0.2-4.2h168.4h168.1v2.4
		c0,3.5-29.5,337.4-30.2,340.4c-0.3,2.1-8.5,4.5-69,21.3c-37.7,10.5-69.2,18.8-70.3,18.8C197.9,391.2,166.9,382.6,129.6,372.3
		L129.6,372.3z M255.8,346.9c29.8-8.2,54.6-15.5,55.3-16.2c1-1,26.9-282.6,26.7-292.1v-3.1H269h-68.7v8v8h-39.9
		c-31,0-39.8,0.3-39.8,1.4c0,0.9-0.5,5.8-1,11.2c-1.4,12.9-12.6,137-12.6,140.5v2.8h46.6h46.6v33c0,25.6-0.3,33-1.4,33
		c-0.9,0-11.5-2.8-23.5-6.1l-22.1-6.1l-0.9-9.6c-0.3-5.2-1-12.7-1.6-16.7l-0.7-7.1h-21.6h-21.6v4.2c0.2,12.2,5.4,62.1,6.6,62.8
		c0.7,0.5,20.6,6.1,43.9,12.6l42.5,11.9v21.3c0,11.7,0.3,21.3,0.9,21.3C201.4,361.9,226,355.3,255.8,346.9L255.8,346.9z
		 M156.9,131.7c1.6-17.8,3.3-32.6,3.5-32.8c0.3-0.2,9.2-0.7,20.1-1l19.7-0.5v33.3V164H177h-23L156.9,131.7z"/>
</g>
</svg>
