<?xml version="1.0" encoding="utf-8"?>
<!-- Generator: Adobe Illustrator 24.3.0, SVG Export Plug-In . SVG Version: 6.00 Build 0)  -->
<svg version="1.1" id="Layer_1" xmlns="http://www.w3.org/2000/svg" xmlns:xlink="http://www.w3.org/1999/xlink" x="0px" y="0px"
	 viewBox="0 0 400 400" style="enable-background:new 0 0 400 400;" xml:space="preserve">
<style type="text/css">
	.st0{fill:#353535;}
	.st1{fill:#0ACF83;}
	.st2{fill:#A259FF;}
	.st3{fill:#F24E1E;}
	.st4{fill:#FF7262;}
	.st5{fill:#1ABCFE;}
	.st6{fill:#261300;}
	.st7{fill:#FF7C00;}
	.st8{fill:#FFFFFF;}
	.st9{fill:#E44D26;}
	.st10{fill:#F16529;}
	.st11{fill:#EBEBEB;}
	.st12{fill:#0170BA;}
	.st13{fill:#29A9DF;}
	.st14{fill:#CFCFCF;}
	.st15{fill:#EAEBEC;}
	.st16{fill:#F0BE25;}
	.st17{fill:#E4A126;}
	.st18{fill:#563D7C;}
	.st19{enable-background:new    ;}
	.st20{fill:#152347;}
	.st21{fill:#31C5F0;}
	.st22{fill:#1E2E3B;}
	.st23{fill:#0868AC;}
	.st24{fill:#FDB300;}
	.st25{fill:#EA6C00;}
	.st26{fill:#FDAD00;}
	.st27{fill:#FDD231;}
	.st28{fill:#FEEEB7;}
	.st29{fill:#2489CA;}
	.st30{fill:#1070B3;}
	.st31{fill:#0877B9;}
	.st32{fill:#3C99D4;}
	.st33{fill-rule:evenodd;clip-rule:evenodd;fill:url(#SVGID_1_);}
	.st34{fill:#DC395F;}
</style>
<g>
	<path class="st34" d="M356.8,8.5H43.2C24,8.5,8.5,24,8.5,43.2v313.6c0,19.2,15.5,34.7,34.7,34.7h313.6c19.2,0,34.7-15.5,34.7-34.7
		V43.2C391.5,24,376,8.5,356.8,8.5"/>
	<path class="st8" d="M136.5,129c12.7,0,23.4-10,23.4-23.1c0-13.1-10.7-23-23.4-23c-12.7,0-23.4,10-23.4,23
		C113.1,119,123.8,129,136.5,129 M88,252.5c-1.4,5.8-2.1,12.2-2.1,17.3c0,20.3,11,33.8,34.4,33.8c19.4,0,35.1-11.5,46.5-30.1
		l-6.9,27.8h38.5l22-88.3c5.5-22.4,16.2-34,32.3-34c12.7,0,20.6,7.9,20.6,21c0,3.8-0.3,7.9-1.7,12.4l-11.4,40.6
		c-1.7,5.8-2.4,11.7-2.4,17.2c0,19.3,11.4,33.4,35.1,33.4c20.3,0,36.5-13.1,45.4-44.4l-15.1-5.8c-7.6,21-14.1,24.8-19.3,24.8
		s-7.9-3.4-7.9-10.3c0-3.1,0.7-6.5,1.7-10.7l11-39.6c2.8-9.3,3.8-17.5,3.8-25.1c0-29.6-17.9-45-39.6-45c-20.3,0-40.9,18.3-51.3,37.6
		l7.6-34.6h-58.8l-8.3,30.5h27.5l-17,67.9c-13.3,29.6-37.8,30.1-40.8,29.4c-5-1.1-8.3-3.1-8.3-9.6c0-3.8,0.7-9.2,2.4-15.7L152,150.3
		H86.6l-8.3,30.5h27.2L88,252.5"/>
</g>
</svg>
