<?xml version="1.0" encoding="utf-8"?>
<!-- Generator: Adobe Illustrator 24.3.0, SVG Export Plug-In . SVG Version: 6.00 Build 0)  -->
<svg version="1.1" id="Layer_1" xmlns="http://www.w3.org/2000/svg" xmlns:xlink="http://www.w3.org/1999/xlink" x="0px" y="0px"
	 viewBox="0 0 400 400" style="enable-background:new 0 0 400 400;" xml:space="preserve">
<style type="text/css">
	.st0{fill:#261300;}
	.st1{fill:#FF7C00;}
	.st2{fill:#353535;}
	.st3{fill:#0ACF83;}
	.st4{fill:#A259FF;}
	.st5{fill:#F24E1E;}
	.st6{fill:#FF7262;}
	.st7{fill:#1ABCFE;}
	.st8{fill:#E44D26;}
	.st9{fill:#F16529;}
	.st10{fill:#EBEBEB;}
	.st11{fill:#FFFFFF;}
	.st12{fill:#0170BA;}
	.st13{fill:#EAEBEC;}
	.st14{fill:#F0BE25;}
	.st15{fill:#E4A126;}
	.st16{fill:#0E0E0F;}
	.st17{fill:#29A9DF;}
	.st18{fill:#CFCFCF;}
</style>
<path class="st2" d="M339.5,391.5h-279c-28.6,0-52-23.4-52-52v-279c0-28.6,23.4-52,52-52h279c28.6,0,52,23.4,52,52v279
	C391.5,368.1,368.1,391.5,339.5,391.5z"/>
<g>
	<path id="path0_fill_1_" class="st3" d="M160,320c22.1,0,40-17.9,40-40v-40h-40c-22.1,0-40,17.9-40,40S137.9,320,160,320z"/>
	<path id="path1_fill_3_" class="st4" d="M120,200c0-22.1,17.9-40,40-40h40v80h-40C137.9,240,120,222.1,120,200z"/>
	<path id="path1_fill_2_" class="st5" d="M120,120c0-22.1,17.9-40,40-40h40v80h-40C137.9,160,120,142.1,120,120z"/>
	<path id="path2_fill_1_" class="st6" d="M200,80h40c22.1,0,40,17.9,40,40s-17.9,40-40,40h-40V80z"/>
	<path id="path3_fill_1_" class="st7" d="M280,200c0,22.1-17.9,40-40,40s-40-17.9-40-40s17.9-40,40-40S280,177.9,280,200z"/>
</g>
</svg>
