<?xml version="1.0" encoding="utf-8"?>
<!-- Generator: Adobe Illustrator 24.3.0, SVG Export Plug-In . SVG Version: 6.00 Build 0)  -->
<svg version="1.1" id="Layer_1" xmlns="http://www.w3.org/2000/svg" xmlns:xlink="http://www.w3.org/1999/xlink" x="0px" y="0px"
	 viewBox="0 0 400 400" style="enable-background:new 0 0 400 400;" xml:space="preserve">
<style type="text/css">
	.st0{fill:#353535;}
	.st1{fill:#0ACF83;}
	.st2{fill:#A259FF;}
	.st3{fill:#F24E1E;}
	.st4{fill:#FF7262;}
	.st5{fill:#1ABCFE;}
	.st6{fill:#261300;}
	.st7{fill:#FF7C00;}
	.st8{fill:#FFFFFF;}
	.st9{fill:#E44D26;}
	.st10{fill:#F16529;}
	.st11{fill:#EBEBEB;}
	.st12{fill:#0170BA;}
	.st13{fill:#29A9DF;}
	.st14{fill:#CFCFCF;}
	.st15{fill:#EAEBEC;}
	.st16{fill:#F0BE25;}
	.st17{fill:#E4A126;}
	.st18{fill:#563D7C;}
	.st19{enable-background:new    ;}
	.st20{fill:#152347;}
	.st21{fill:#31C5F0;}
	.st22{fill:#1E2E3B;}
	.st23{fill:#0868AC;}
</style>
<g>
	<path class="st20" d="M62,8.4H338c29.6,0,53.6,24,53.6,53.6V338c0,29.6-24,53.6-53.6,53.6H62c-29.6,0-53.6-24-53.6-53.6V62
		C8.4,32.4,32.4,8.4,62,8.4z"/>
	<path class="st21" d="M225.8,295.8c8,4.6,21.9,8,38,8c30.6,0,53.2-15.9,53.2-45.6c0-19.8-9.1-33.4-38.2-47.5
		c-19.7-10.2-23-14.8-23-21.5c0-6.1,5-13.5,19.7-13.5l0,0l0,0l0,0c12,0,24.1,3.2,32.3,8.3c1.9,0.6,2.8-0.4,2.8-1.9v-25.4
		c0-1.3-0.4-2.8-1.9-3.7c-6.1-2.8-17.2-5.2-33.2-5.2c-32.4,0-51.2,19.8-51.2,43.8c0,21.3,10.9,34.1,37.3,46.7
		c18.7,9.6,23,15.6,23,22.2c0,8.3-6.1,14.5-20.8,14.5c-12.2,0-25.6-3.3-37.3-10.9c-1.3-0.9-2.2-0.4-2.2,1.5v27.3
		C224.3,294.4,224.5,295.3,225.8,295.8z"/>
	<path class="st21" d="M85.2,300.7h28.4c1.7,0,2.2-0.7,2.2-2.2v-71.2c5,0,7.4,0.4,14.5,0.4c41.9,0,76-20.2,76-67.3
		c0-36-20-64.1-71.4-64.1c-18.4,0-36,0.4-47.8,0.9c-1.5,0-4.1,0.9-4.1,2.2h0v199.1C83,300.1,83.8,300.7,85.2,300.7z M116,126.2
		c3.3-0.2,10.4-0.6,17.8-0.6c24.7,0,39.3,11.9,39.3,35.4c0,29.5-20.4,37.1-42.1,37.1c-7.4,0-10.8,0-15-0.4V126.2z"/>
</g>
</svg>
